Dekko-Regular.ufo
<glyph name="percent" format="1">
  <advance width="1525"/>
  <unicode hex="0025"/>
  <outline>
    <contour>
      <point x="254" y="-20" type="curve" smooth="yes"/>
      <point x="254" y="-57"/>
      <point x="263" y="-139"/>
      <point x="322" y="-139" type="curve" smooth="yes"/>
      <point x="371" y="-139"/>
      <point x="397" y="-81"/>
      <point x="416" y="-45" type="curve"/>
      <point x="647" y="349"/>
      <point x="875" y="729"/>
      <point x="1226" y="1168" type="curve"/>
      <point x="1246" y="1191"/>
      <point x="1247" y="1233"/>
      <point x="1248" y="1248" type="curve"/>
      <point x="1248" y="1302"/>
      <point x="1236" y="1330"/>
      <point x="1196" y="1330" type="curve" smooth="yes"/>
      <point x="1015" y="1330"/>
      <point x="254" y="-57"/>
    </contour>
    <contour>
      <point x="1361" y="382" type="curve" smooth="yes"/>
      <point x="1361" y="600"/>
      <point x="1157" y="621"/>
      <point x="1094" y="621" type="curve" smooth="yes"/>
      <point x="946" y="621"/>
      <point x="860" y="413"/>
      <point x="860" y="301" type="curve" smooth="yes"/>
      <point x="860" y="119"/>
      <point x="938" y="0"/>
      <point x="1107" y="0" type="curve" smooth="yes"/>
      <point x="1262" y="0"/>
      <point x="1361" y="218"/>
    </contour>
    <contour>
      <point x="1003" y="301" type="curve" smooth="yes"/>
      <point x="1003" y="363"/>
      <point x="1054" y="450"/>
      <point x="1089" y="450" type="curve" smooth="yes"/>
      <point x="1126" y="450"/>
      <point x="1217" y="421"/>
      <point x="1217" y="368" type="curve" smooth="yes"/>
      <point x="1217" y="303"/>
      <point x="1162" y="181"/>
      <point x="1117" y="181" type="curve" smooth="yes"/>
      <point x="1048" y="181"/>
      <point x="1003" y="222"/>
    </contour>
    <contour>
      <point x="694" y="1102" type="curve" smooth="yes"/>
      <point x="694" y="1320"/>
      <point x="492" y="1341"/>
      <point x="429" y="1341" type="curve" smooth="yes"/>
      <point x="282" y="1341"/>
      <point x="193" y="1133"/>
      <point x="193" y="1021" type="curve" smooth="yes"/>
      <point x="193" y="839"/>
      <point x="273" y="720"/>
      <point x="439" y="720" type="curve" smooth="yes"/>
      <point x="595" y="720"/>
      <point x="694" y="938"/>
    </contour>
    <contour>
      <point x="337" y="1021" type="curve" smooth="yes"/>
      <point x="337" y="1083"/>
      <point x="387" y="1173"/>
      <point x="423" y="1173" type="curve" smooth="yes"/>
      <point x="461" y="1173"/>
      <point x="552" y="1142"/>
      <point x="552" y="1089" type="curve" smooth="yes"/>
      <point x="552" y="1023"/>
      <point x="497" y="901"/>
      <point x="450" y="901" type="curve" smooth="yes"/>
      <point x="381" y="901"/>
      <point x="337" y="942"/>
    </contour>
  </outline>
</glyph>
<glyph name="quotesingle" format="1">
  <advance width="569"/>
  <unicode hex="0027"/>
  <outline>
    <contour>
      <point x="343" y="1031" type="curve" smooth="yes"/>
      <point x="343" y="1128"/>
      <point x="359" y="1236"/>
      <point x="363" y="1309" type="curve"/>
      <point x="363" y="1363"/>
      <point x="359" y="1410"/>
      <point x="314" y="1410" type="curve" smooth="yes"/>
      <point x="200" y="1410"/>
      <point x="200" y="1094"/>
      <point x="200" y="990" type="curve" smooth="yes"/>
      <point x="200" y="843"/>
      <point x="206" y="798"/>
      <point x="209" y="783" type="curve" smooth="yes"/>
      <point x="223" y="710"/>
      <point x="251" y="684"/>
      <point x="299" y="684" type="curve" smooth="yes"/>
      <point x="330" y="684"/>
      <point x="369" y="720"/>
      <point x="369" y="790" type="curve" smooth="yes"/>
      <point x="369" y="859"/>
      <point x="343" y="958"/>
    </contour>
  </outline>
</glyph>
<glyph name="parenleft" format="1">
  <advance width="245"/>
  <unicode hex="0028"/>
  <outline>
    <contour>
      <point x="110" y="-11" type="curve" smooth="yes"/>
      <point x="122" y="-30" type="line" smooth="yes"/>
      <point x="129" y="-42"/>
      <point x="142" y="-72"/>
      <point x="159" y="-72" type="curve" smooth="yes"/>
      <point x="179" y="-72"/>
      <point x="204" y="-63"/>
      <point x="204" y="-28" type="curve" smooth="yes"/>
      <point x="204" y="7"/>
      <point x="193" y="25"/>
      <point x="176" y="39" type="curve" smooth="yes"/>
      <point x="135" y="73"/>
      <point x="100" y="158"/>
      <point x="100" y="223" type="curve" smooth="yes"/>
      <point x="100" y="280"/>
      <point x="123" y="412"/>
      <point x="159" y="467" type="curve" smooth="yes"/>
      <point x="174" y="490"/>
      <point x="206" y="520"/>
      <point x="206" y="558" type="curve" smooth="yes"/>
      <point x="206" y="583"/>
      <point x="190" y="592"/>
      <point x="171" y="592" type="curve" smooth="yes"/>
      <point x="160" y="592"/>
      <point x="135" y="565"/>
      <point x="135" y="565" type="curve"/>
      <point x="70" y="490"/>
      <point x="26" y="348"/>
      <point x="26" y="220" type="curve"/>
      <point x="25" y="139"/>
      <point x="76" y="42"/>
    </contour>
  </outline>
</glyph>
<glyph name="asterisk" format="1">
  <advance width="1117"/>
  <unicode hex="002A"/>
  <outline>
    <contour>
      <point x="773" y="1330" type="curve" smooth="yes"/>
      <point x="773" y="1381"/>
      <point x="726" y="1408"/>
      <point x="702" y="1408" type="curve" smooth="yes"/>
      <point x="626" y="1408"/>
      <point x="553" y="1057"/>
      <point x="523" y="955" type="curve"/>
      <point x="409" y="978"/>
      <point x="326" y="1111"/>
      <point x="243" y="1111" type="curve" smooth="yes"/>
      <point x="210" y="1111"/>
      <point x="159" y="1089"/>
      <point x="159" y="1005" type="curve" smooth="yes"/>
      <point x="159" y="967"/>
      <point x="169" y="930"/>
      <point x="200" y="920" type="curve"/>
      <point x="381" y="836" type="line"/>
      <point x="356" y="825"/>
      <point x="332" y="818"/>
      <point x="195" y="765" type="curve" smooth="yes"/>
      <point x="167" y="753"/>
      <point x="139" y="732"/>
      <point x="139" y="671" type="curve" smooth="yes"/>
      <point x="139" y="625"/>
      <point x="181" y="565"/>
      <point x="229" y="565" type="curve" smooth="yes"/>
      <point x="237" y="565"/>
      <point x="248" y="567"/>
      <point x="258" y="574" type="curve" smooth="yes"/>
      <point x="450" y="686" type="line"/>
      <point x="433" y="645"/>
      <point x="363" y="466"/>
      <point x="363" y="433" type="curve" smooth="yes"/>
      <point x="363" y="356"/>
      <point x="409" y="315"/>
      <point x="458" y="315" type="curve" smooth="yes"/>
      <point x="502" y="315"/>
      <point x="570" y="596"/>
      <point x="596" y="720" type="curve"/>
      <point x="605" y="720"/>
      <point x="605" y="716"/>
      <point x="612" y="716" type="curve"/>
      <point x="716" y="686"/>
      <point x="829" y="602"/>
      <point x="866" y="602" type="curve" smooth="yes"/>
      <point x="913" y="602"/>
      <point x="938" y="666"/>
      <point x="938" y="722" type="curve" smooth="yes"/>
      <point x="938" y="765"/>
      <point x="922" y="841"/>
      <point x="879" y="841" type="curve" smooth="yes"/>
      <point x="866" y="841"/>
      <point x="846" y="834"/>
      <point x="836" y="834" type="curve" smooth="yes"/>
      <point x="820" y="834"/>
      <point x="771" y="853"/>
      <point x="760" y="859" type="curve"/>
      <point x="913" y="928" type="line" smooth="yes"/>
      <point x="934" y="936"/>
      <point x="990" y="960"/>
      <point x="990" y="1028" type="curve" smooth="yes"/>
      <point x="990" y="1107"/>
      <point x="936" y="1128"/>
      <point x="920" y="1128" type="curve" smooth="yes"/>
      <point x="871" y="1128"/>
      <point x="739" y="1035"/>
      <point x="661" y="977" type="curve"/>
      <point x="684" y="1062"/>
      <point x="773" y="1276"/>
    </contour>
  </outline>
</glyph>
<glyph name="comma" format="1">
  <advance width="190"/>
  <unicode hex="002C"/>
  <outline>
    <contour>
      <point x="24" y="33" type="curve" smooth="yes"/>
      <point x="15" y="15"/>
      <point x="-22" y="-56"/>
      <point x="-21" y="-83" type="curve" smooth="yes"/>
      <point x="-21" y="-105"/>
      <point x="-12" y="-137"/>
      <point x="13" y="-137" type="curve" smooth="yes"/>
      <point x="31" y="-137"/>
      <point x="75" y="-42"/>
      <point x="102" y="-1" type="curve" smooth="yes"/>
      <point x="121" y="28"/>
      <point x="139" y="45"/>
      <point x="139" y="83" type="curve" smooth="yes"/>
      <point x="139" y="108"/>
      <point x="116" y="134"/>
      <point x="91" y="134" type="curve" smooth="yes"/>
      <point x="47" y="134"/>
      <point x="41" y="66"/>
    </contour>
  </outline>
</glyph>
<glyph name="hyphen" format="1">
  <advance width="342"/>
  <unicode hex="002D"/>
  <outline>
    <contour>
      <point x="82" y="231" type="curve" smooth="yes"/>
      <point x="111" y="231"/>
      <point x="135" y="237"/>
      <point x="159" y="237" type="curve" smooth="yes"/>
      <point x="192" y="237"/>
      <point x="221" y="229"/>
      <point x="251" y="229" type="curve" smooth="yes"/>
      <point x="262" y="229"/>
      <point x="293" y="238"/>
      <point x="293" y="271" type="curve" smooth="yes"/>
      <point x="293" y="300"/>
      <point x="281" y="319"/>
      <point x="262" y="319" type="curve" smooth="yes"/>
      <point x="207" y="319"/>
      <point x="152" y="315"/>
      <point x="99" y="315" type="curve" smooth="yes"/>
      <point x="89" y="315"/>
      <point x="84" y="319"/>
      <point x="78" y="319" type="curve" smooth="yes"/>
      <point x="59" y="319"/>
      <point x="46" y="304"/>
      <point x="46" y="278" type="curve" smooth="yes"/>
      <point x="46" y="236"/>
      <point x="65" y="231"/>
    </contour>
  </outline>
</glyph>
<glyph name="period" format="1">
  <advance width="363"/>
  <unicode hex="002E"/>
  <outline>
    <contour>
      <point x="81" y="116" type="curve" smooth="yes"/>
      <point x="81" y="26"/>
      <point x="105" y="-18"/>
      <point x="173" y="-18" type="curve" smooth="yes"/>
      <point x="218" y="-18"/>
      <point x="268" y="49"/>
      <point x="268" y="116" type="curve" smooth="yes"/>
      <point x="268" y="175"/>
      <point x="222" y="253"/>
      <point x="177" y="253" type="curve" smooth="yes"/>
      <point x="112" y="253"/>
      <point x="81" y="192"/>
    </contour>
  </outline>
</glyph>
<glyph name="zero" format="1">
  <advance width="1318"/>
  <unicode hex="0030"/>
  <outline>
    <contour>
      <point x="1163" y="650" type="curve" smooth="yes"/>
      <point x="1163" y="1070"/>
      <point x="997" y="1318"/>
      <point x="672" y="1318" type="curve" smooth="yes"/>
      <point x="391" y="1318"/>
      <point x="140" y="1115"/>
      <point x="140" y="617" type="curve" smooth="yes"/>
      <point x="140" y="270"/>
      <point x="355" y="-11"/>
      <point x="645" y="-11" type="curve" smooth="yes"/>
      <point x="937" y="-11"/>
      <point x="1163" y="250"/>
    </contour>
    <contour>
      <point x="638" y="199" type="curve" smooth="yes"/>
      <point x="448" y="199"/>
      <point x="280" y="423"/>
      <point x="280" y="653" type="curve" smooth="yes"/>
      <point x="280" y="954"/>
      <point x="477" y="1097"/>
      <point x="692" y="1097" type="curve" smooth="yes"/>
      <point x="887" y="1097"/>
      <point x="1028" y="934"/>
      <point x="1028" y="658" type="curve" smooth="yes"/>
      <point x="1028" y="352"/>
      <point x="850" y="199"/>
    </contour>
  </outline>
</glyph>
<glyph name="two" format="1">
  <advance width="437"/>
  <unicode hex="0032"/>
  <outline>
    <contour>
      <point x="93" y="31" type="curve" smooth="yes"/>
      <point x="93" y="10"/>
      <point x="110" y="-5"/>
      <point x="122" y="-5" type="curve" smooth="yes"/>
      <point x="173" y="-5"/>
      <point x="230" y="4"/>
      <point x="281" y="4" type="curve" smooth="yes"/>
      <point x="293" y="4"/>
      <point x="308" y="1"/>
      <point x="319" y="1" type="curve" smooth="yes"/>
      <point x="318" y="1"/>
      <point x="368" y="2"/>
      <point x="368" y="48" type="curve" smooth="yes"/>
      <point x="368" y="66"/>
      <point x="350" y="105"/>
      <point x="334" y="107" type="curve"/>
      <point x="331" y="104"/>
      <point x="322" y="102"/>
      <point x="321" y="102" type="curve" smooth="yes"/>
      <point x="294" y="95"/>
      <point x="207" y="77"/>
      <point x="189" y="86" type="curve"/>
      <point x="235" y="181"/>
      <point x="320" y="325"/>
      <point x="320" y="441" type="curve" smooth="yes"/>
      <point x="320" y="518"/>
      <point x="254" y="565"/>
      <point x="196" y="565" type="curve" smooth="yes"/>
      <point x="150" y="565"/>
      <point x="66" y="538"/>
      <point x="64" y="452" type="curve" smooth="yes"/>
      <point x="64" y="443"/>
      <point x="68" y="401"/>
      <point x="89" y="401" type="curve" smooth="yes"/>
      <point x="123" y="401"/>
      <point x="111" y="475"/>
      <point x="192" y="475" type="curve" smooth="yes"/>
      <point x="223" y="475"/>
      <point x="257" y="461"/>
      <point x="257" y="424" type="curve" smooth="yes"/>
      <point x="257" y="363"/>
      <point x="178" y="214"/>
      <point x="144" y="138" type="curve" smooth="yes"/>
      <point x="128" y="103"/>
      <point x="93" y="86"/>
    </contour>
  </outline>
</glyph>
<glyph name="three" format="1">
  <advance width="1075"/>
  <unicode hex="0033"/>
  <outline>
    <contour>
      <point x="162" y="244" type="curve" smooth="yes"/>
      <point x="125" y="244"/>
      <point x="104" y="143"/>
      <point x="104" y="95" type="curve"/>
      <point x="104" y="48"/>
      <point x="115" y="-6"/>
      <point x="172" y="-6" type="curve" smooth="yes"/>
      <point x="630" y="-6"/>
      <point x="900" y="32"/>
      <point x="900" y="479" type="curve" smooth="yes"/>
      <point x="900" y="591"/>
      <point x="847" y="768"/>
      <point x="660" y="814" type="curve"/>
      <point x="783" y="954"/>
      <point x="923" y="1061"/>
      <point x="923" y="1135" type="curve" smooth="yes"/>
      <point x="923" y="1298"/>
      <point x="845" y="1368"/>
      <point x="696" y="1368" type="curve" smooth="yes"/>
      <point x="592" y="1368"/>
      <point x="292" y="1305"/>
      <point x="292" y="1133" type="curve" smooth="yes"/>
      <point x="292" y="1087"/>
      <point x="339" y="1051"/>
      <point x="369" y="1051" type="curve" smooth="yes"/>
      <point x="382" y="1051"/>
      <point x="391" y="1061"/>
      <point x="405" y="1067" type="curve" smooth="yes"/>
      <point x="464" y="1110"/>
      <point x="579" y="1153"/>
      <point x="661" y="1153" type="curve" smooth="yes"/>
      <point x="685" y="1153"/>
      <point x="740" y="1150"/>
      <point x="762" y="1150" type="curve"/>
      <point x="757" y="1036"/>
      <point x="624" y="909"/>
      <point x="529" y="839" type="curve"/>
      <point x="443" y="810"/>
      <point x="308" y="753"/>
      <point x="308" y="642" type="curve" smooth="yes"/>
      <point x="308" y="576"/>
      <point x="339" y="543"/>
      <point x="396" y="543" type="curve" smooth="yes"/>
      <point x="453" y="543"/>
      <point x="492" y="585"/>
      <point x="552" y="585" type="curve" smooth="yes"/>
      <point x="651" y="585"/>
      <point x="746" y="515"/>
      <point x="746" y="443" type="curve" smooth="yes"/>
      <point x="746" y="222"/>
      <point x="481" y="210"/>
      <point x="358" y="210" type="curve" smooth="yes"/>
      <point x="210" y="210"/>
      <point x="258" y="244"/>
    </contour>
  </outline>
</glyph>
<glyph name="four" format="1">
  <advance width="415"/>
  <unicode hex="0034"/>
  <outline>
    <contour>
      <point x="160" y="178" type="curve"/>
      <point x="262" y="175" type="line"/>
      <point x="262" y="27" type="line" smooth="yes"/>
      <point x="262" y="5"/>
      <point x="275" y="-15"/>
      <point x="286" y="-15" type="curve" smooth="yes"/>
      <point x="312" y="-15"/>
      <point x="332" y="9"/>
      <point x="332" y="46" type="curve" smooth="yes"/>
      <point x="332" y="83"/>
      <point x="328" y="107"/>
      <point x="328" y="147" type="curve" smooth="yes"/>
      <point x="328" y="153"/>
      <point x="328" y="171"/>
      <point x="331" y="187" type="curve"/>
      <point x="335" y="193"/>
      <point x="341" y="205"/>
      <point x="341" y="213" type="curve" smooth="yes"/>
      <point x="341" y="227"/>
      <point x="337" y="238"/>
      <point x="334" y="245" type="curve"/>
      <point x="338" y="510"/>
      <point x="339" y="513"/>
      <point x="339" y="516" type="curve" smooth="yes"/>
      <point x="339" y="535"/>
      <point x="326" y="565"/>
      <point x="309" y="565" type="curve" smooth="yes"/>
      <point x="291" y="565"/>
      <point x="277" y="549"/>
      <point x="276" y="515" type="curve"/>
      <point x="276" y="363"/>
      <point x="272" y="297"/>
      <point x="270" y="263" type="curve"/>
      <point x="235" y="263" type="line" smooth="yes"/>
      <point x="156" y="263"/>
      <point x="107" y="268"/>
      <point x="107" y="340" type="curve"/>
      <point x="110" y="416" type="line"/>
      <point x="110" y="454"/>
      <point x="103" y="487"/>
      <point x="82" y="487" type="curve" smooth="yes"/>
      <point x="61" y="487"/>
      <point x="51" y="466"/>
      <point x="50" y="445" type="curve" smooth="yes"/>
      <point x="45" y="337" type="line"/>
      <point x="45" y="331" type="line" smooth="yes"/>
      <point x="45" y="241"/>
      <point x="85" y="182"/>
    </contour>
  </outline>
</glyph>
<glyph name="five" format="1">
  <advance width="1120"/>
  <unicode hex="0035"/>
  <outline>
    <contour>
      <point x="403" y="1167" type="line"/>
      <point x="419" y="1167"/>
      <point x="448" y="1169"/>
      <point x="486" y="1169" type="curve" smooth="yes"/>
      <point x="591" y="1169"/>
      <point x="751" y="1165"/>
      <point x="813" y="1156" type="curve"/>
      <point x="845" y="1156"/>
      <point x="876" y="1126"/>
      <point x="917" y="1126" type="curve" smooth="yes"/>
      <point x="959" y="1126"/>
      <point x="995" y="1169"/>
      <point x="995" y="1238" type="curve" smooth="yes"/>
      <point x="995" y="1303"/>
      <point x="975" y="1376"/>
      <point x="909" y="1376" type="curve" smooth="yes"/>
      <point x="783" y="1376"/>
      <point x="651" y="1359"/>
      <point x="523" y="1359" type="curve" smooth="yes"/>
      <point x="454" y="1359"/>
      <point x="385" y="1359"/>
      <point x="316" y="1352" type="curve"/>
      <point x="213" y="1301"/>
      <point x="248" y="852"/>
      <point x="220" y="680" type="curve" smooth="yes"/>
      <point x="217" y="669"/>
      <point x="217" y="661"/>
      <point x="217" y="651" type="curve" smooth="yes"/>
      <point x="217" y="572"/>
      <point x="282" y="561"/>
      <point x="339" y="561" type="curve"/>
      <point x="385" y="587"/>
      <point x="448" y="628"/>
      <point x="524" y="628" type="curve" smooth="yes"/>
      <point x="688" y="628"/>
      <point x="755" y="451"/>
      <point x="755" y="405" type="curve" smooth="yes"/>
      <point x="755" y="236"/>
      <point x="602" y="197"/>
      <point x="414" y="197" type="curve" smooth="yes"/>
      <point x="296" y="197"/>
      <point x="278" y="267"/>
      <point x="220" y="267" type="curve" smooth="yes"/>
      <point x="178" y="267"/>
      <point x="136" y="205"/>
      <point x="136" y="149" type="curve" smooth="yes"/>
      <point x="136" y="-5"/>
      <point x="343" y="-29"/>
      <point x="448" y="-29" type="curve" smooth="yes"/>
      <point x="706" y="-29"/>
      <point x="902" y="112"/>
      <point x="902" y="419" type="curve" smooth="yes"/>
      <point x="902" y="664"/>
      <point x="816" y="873"/>
      <point x="529" y="873" type="curve" smooth="yes"/>
      <point x="479" y="873"/>
      <point x="415" y="818"/>
      <point x="368" y="818" type="curve"/>
    </contour>
  </outline>
</glyph>
<glyph name="six" format="1">
  <advance width="490"/>
  <unicode hex="0036"/>
  <outline>
    <contour>
      <point x="206" y="92" type="curve"/>
      <point x="132" y="104"/>
      <point x="120" y="163"/>
      <point x="120" y="234" type="curve" smooth="yes"/>
      <point x="120" y="318"/>
      <point x="223" y="439"/>
      <point x="223" y="519" type="curve" smooth="yes"/>
      <point x="223" y="544"/>
      <point x="218" y="566"/>
      <point x="193" y="566" type="curve" smooth="yes"/>
      <point x="154" y="566"/>
      <point x="54" y="320"/>
      <point x="54" y="233" type="curve" smooth="yes"/>
      <point x="54" y="57"/>
      <point x="109" y="-2"/>
      <point x="240" y="-2" type="curve" smooth="yes"/>
      <point x="342" y="-2"/>
      <point x="442" y="93"/>
      <point x="442" y="215" type="curve" smooth="yes"/>
      <point x="442" y="267"/>
      <point x="411" y="312"/>
      <point x="349" y="312" type="curve" smooth="yes"/>
      <point x="256" y="312"/>
      <point x="206" y="220"/>
      <point x="204" y="123" type="curve" smooth="yes"/>
      <point x="204" y="114"/>
      <point x="204" y="101"/>
    </contour>
    <contour>
      <point x="270" y="96" type="curve"/>
      <point x="270" y="144"/>
      <point x="283" y="224"/>
      <point x="348" y="224" type="curve" smooth="yes"/>
      <point x="363" y="224"/>
      <point x="381" y="218"/>
      <point x="381" y="203" type="curve" smooth="yes"/>
      <point x="381" y="148"/>
      <point x="327" y="101"/>
    </contour>
  </outline>
</glyph>
<glyph name="nine" format="1">
  <advance width="458"/>
  <unicode hex="0039"/>
  <outline>
    <contour>
      <point x="290" y="30" type="curve"/>
      <point x="290" y="-5"/>
      <point x="324" y="-26"/>
      <point x="333" y="-26" type="curve" smooth="yes"/>
      <point x="370" y="-26"/>
      <point x="366" y="173"/>
      <point x="374" y="273" type="curve" smooth="yes"/>
      <point x="376" y="297"/>
      <point x="378" y="324"/>
      <point x="378" y="352" type="curve" smooth="yes"/>
      <point x="378" y="403"/>
      <point x="349" y="404"/>
      <point x="349" y="416" type="curve" smooth="yes"/>
      <point x="349" y="513"/>
      <point x="291" y="568"/>
      <point x="218" y="568" type="curve" smooth="yes"/>
      <point x="165" y="568"/>
      <point x="43" y="517"/>
      <point x="43" y="424" type="curve" smooth="yes"/>
      <point x="43" y="300"/>
      <point x="149" y="254"/>
      <point x="229" y="254" type="curve" smooth="yes"/>
      <point x="250" y="254"/>
      <point x="280" y="264"/>
      <point x="312" y="276" type="curve"/>
      <point x="312" y="177"/>
      <point x="292" y="112"/>
    </contour>
    <contour>
      <point x="231" y="343" type="curve" smooth="yes"/>
      <point x="187" y="343"/>
      <point x="108" y="369"/>
      <point x="108" y="411" type="curve" smooth="yes"/>
      <point x="108" y="460"/>
      <point x="178" y="482"/>
      <point x="218" y="482" type="curve" smooth="yes"/>
      <point x="277" y="482"/>
      <point x="306" y="426"/>
      <point x="306" y="370" type="curve" smooth="yes"/>
      <point x="306" y="366" type="line" smooth="yes"/>
      <point x="306" y="347"/>
      <point x="249" y="343"/>
    </contour>
  </outline>
</glyph>
<glyph name="semicolon" format="1">
  <advance width="159"/>
  <unicode hex="003B"/>
  <outline>
    <contour>
      <point x="91" y="284" type="curve" smooth="yes"/>
      <point x="110" y="284"/>
      <point x="126" y="305"/>
      <point x="126" y="348" type="curve" smooth="yes"/>
      <point x="126" y="389"/>
      <point x="106" y="414"/>
      <point x="99" y="414" type="curve" smooth="yes"/>
      <point x="77" y="414"/>
      <point x="40" y="385"/>
      <point x="40" y="353" type="curve" smooth="yes"/>
      <point x="40" y="299"/>
      <point x="58" y="284"/>
    </contour>
    <component base="comma"/>
  </outline>
</glyph>
<glyph name="less" format="1">
  <advance width="850"/>
  <unicode hex="003C"/>
  <outline>
    <contour>
      <point x="729" y="802" type="curve" smooth="yes"/>
      <point x="729" y="875"/>
      <point x="705" y="914"/>
      <point x="647" y="914" type="curve" smooth="yes"/>
      <point x="629" y="914"/>
      <point x="631" y="879"/>
      <point x="533" y="829" type="curve"/>
      <point x="392" y="740"/>
      <point x="163" y="555"/>
      <point x="163" y="555" type="curve"/>
      <point x="130" y="525"/>
      <point x="99" y="481"/>
      <point x="99" y="431" type="curve" smooth="yes"/>
      <point x="99" y="359"/>
      <point x="129" y="337"/>
      <point x="167" y="322" type="curve"/>
      <point x="313" y="282"/>
      <point x="557" y="157"/>
      <point x="631" y="89" type="curve"/>
      <point x="641" y="84"/>
      <point x="649" y="79"/>
      <point x="661" y="79" type="curve" smooth="yes"/>
      <point x="705" y="79"/>
      <point x="736" y="109"/>
      <point x="736" y="155" type="curve" smooth="yes"/>
      <point x="736" y="167"/>
      <point x="726" y="244"/>
      <point x="706" y="263" type="curve"/>
      <point x="574" y="334"/>
      <point x="458" y="411"/>
      <point x="322" y="471" type="curve"/>
      <point x="661" y="676"/>
      <point x="732" y="694"/>
    </contour>
  </outline>
</glyph>
<glyph name="A" format="1">
  <advance width="546"/>
  <unicode hex="0041"/>
  <outline>
    <contour>
      <point x="275" y="695" type="move" name="top"/>
    </contour>
    <contour>
      <point x="40" y="31" type="curve" smooth="yes"/>
      <point x="40" y="2"/>
      <point x="52" y="-6"/>
      <point x="73" y="-6" type="curve" smooth="yes"/>
      <point x="79" y="-6"/>
      <point x="108" y="4"/>
      <point x="112" y="56" type="curve"/>
      <point x="143" y="145" type="line" smooth="yes"/>
      <point x="156" y="182"/>
      <point x="158" y="186"/>
      <point x="177" y="186" type="curve" smooth="yes"/>
      <point x="345" y="186" type="line" smooth="yes"/>
      <point x="379" y="186"/>
      <point x="381" y="169"/>
      <point x="403" y="94" type="curve"/>
      <point x="411" y="59"/>
      <point x="433" y="-10"/>
      <point x="460" y="-10" type="curve" smooth="yes"/>
      <point x="473" y="-10"/>
      <point x="503" y="-8"/>
      <point x="503" y="34" type="curve" smooth="yes"/>
      <point x="503" y="67"/>
      <point x="496" y="68"/>
      <point x="477" y="92" type="curve" smooth="yes"/>
      <point x="435" y="144"/>
      <point x="382" y="565"/>
      <point x="271" y="565" type="curve" smooth="yes"/>
      <point x="245" y="565"/>
      <point x="222" y="512"/>
      <point x="207" y="480" type="curve"/>
      <point x="120" y="276" type="line"/>
      <point x="99" y="263"/>
      <point x="94" y="246"/>
      <point x="94" y="219" type="curve" smooth="yes"/>
      <point x="94" y="216"/>
      <point x="94" y="210"/>
      <point x="95" y="206" type="curve"/>
      <point x="78" y="158"/>
      <point x="66" y="121"/>
      <point x="56" y="92" type="curve"/>
      <point x="47" y="75"/>
      <point x="40" y="53"/>
    </contour>
    <contour>
      <point x="191" y="279" type="curve"/>
      <point x="208" y="330"/>
      <point x="254" y="449"/>
      <point x="267" y="457" type="curve"/>
      <point x="304" y="378" type="line" smooth="yes"/>
      <point x="321" y="342"/>
      <point x="336" y="304"/>
      <point x="345" y="278" type="curve"/>
      <point x="325" y="277"/>
      <point x="308" y="277"/>
      <point x="292" y="277" type="curve" smooth="yes"/>
      <point x="257" y="277"/>
      <point x="229" y="278"/>
    </contour>
  </outline>
</glyph>
<glyph name="C" format="1">
  <advance width="494"/>
  <unicode hex="0043"/>
  <outline>
    <contour>
      <point x="276" y="688" type="move" name="top"/>
    </contour>
    <contour>
      <point x="49" y="210" type="curve" smooth="yes"/>
      <point x="49" y="33"/>
      <point x="163" y="-7"/>
      <point x="266" y="-7" type="curve" smooth="yes"/>
      <point x="342" y="-7"/>
      <point x="465" y="14"/>
      <point x="465" y="84" type="curve" smooth="yes"/>
      <point x="465" y="110"/>
      <point x="452" y="130"/>
      <point x="433" y="130" type="curve" smooth="yes"/>
      <point x="427" y="130"/>
      <point x="417" y="121"/>
      <point x="396" y="102" type="curve"/>
      <point x="360" y="86"/>
      <point x="294" y="80"/>
      <point x="259" y="80" type="curve" smooth="yes"/>
      <point x="188" y="80"/>
      <point x="115" y="127"/>
      <point x="115" y="211" type="curve" smooth="yes"/>
      <point x="115" y="281"/>
      <point x="161" y="477"/>
      <point x="274" y="477" type="curve" smooth="yes"/>
      <point x="409" y="477"/>
      <point x="331" y="340"/>
      <point x="387" y="340" type="curve" smooth="yes"/>
      <point x="415" y="340"/>
      <point x="427" y="384"/>
      <point x="427" y="407" type="curve" smooth="yes"/>
      <point x="427" y="509"/>
      <point x="349" y="563"/>
      <point x="273" y="563" type="curve" smooth="yes"/>
      <point x="188" y="563"/>
      <point x="111" y="462"/>
      <point x="87" y="393" type="curve" smooth="yes"/>
      <point x="66" y="334"/>
      <point x="49" y="273"/>
    </contour>
  </outline>
</glyph>
<glyph name="D" format="1">
  <advance width="1123"/>
  <unicode hex="0044"/>
  <outline>
    <contour>
      <point x="142" y="225" type="line" smooth="yes"/>
      <point x="139" y="136"/>
      <point x="157" y="-18"/>
      <point x="228" y="-18" type="curve" smooth="yes"/>
      <point x="237" y="-18"/>
      <point x="258" y="-5"/>
      <point x="284" y="4" type="curve"/>
      <point x="332" y="-5"/>
      <point x="411" y="-5"/>
      <point x="448" y="-5" type="curve" smooth="yes"/>
      <point x="686" y="-5"/>
      <point x="1064" y="173"/>
      <point x="1064" y="567" type="curve" smooth="yes"/>
      <point x="1064" y="965"/>
      <point x="694" y="1219"/>
      <point x="448" y="1219" type="curve" smooth="yes"/>
      <point x="303" y="1219" type="line" smooth="yes"/>
      <point x="240" y="1219"/>
      <point x="159" y="1194"/>
      <point x="157" y="1050" type="curve" smooth="yes"/>
    </contour>
    <contour>
      <point x="357" y="189" type="line" smooth="yes"/>
      <point x="329" y="189"/>
      <point x="303" y="192"/>
      <point x="299" y="195" type="curve"/>
      <point x="279" y="313"/>
      <point x="277" y="511"/>
      <point x="277" y="661" type="curve" smooth="yes"/>
      <point x="277" y="833" type="line" smooth="yes"/>
      <point x="277" y="895"/>
      <point x="282" y="968"/>
      <point x="293" y="1030" type="curve"/>
      <point x="334" y="1035"/>
      <point x="433" y="1038"/>
      <point x="468" y="1038" type="curve" smooth="yes"/>
      <point x="681" y="1038"/>
      <point x="934" y="815"/>
      <point x="934" y="540" type="curve" smooth="yes"/>
      <point x="934" y="287"/>
      <point x="660" y="189"/>
      <point x="483" y="189" type="curve" smooth="yes"/>
    </contour>
    <contour>
      <point x="499" y="-297" type="move" name="btm"/>
    </contour>
    <contour>
      <point x="466" y="1497" type="move" name="top"/>
    </contour>
  </outline>
</glyph>
<glyph name="E" format="1">
  <advance width="988"/>
  <unicode hex="0045"/>
  <outline>
    <contour>
      <point x="367" y="1173" type="curve" smooth="yes"/>
      <point x="319" y="1173"/>
      <point x="283" y="1188"/>
      <point x="240" y="1188" type="curve" smooth="yes"/>
      <point x="160" y="1188"/>
      <point x="160" y="1084"/>
      <point x="160" y="1012" type="curve" smooth="yes"/>
      <point x="160" y="856"/>
      <point x="163" y="750"/>
      <point x="165" y="689" type="curve"/>
      <point x="157" y="668"/>
      <point x="153" y="645"/>
      <point x="153" y="633" type="curve" smooth="yes"/>
      <point x="153" y="605"/>
      <point x="163" y="582"/>
      <point x="163" y="560" type="curve" smooth="yes"/>
      <point x="157" y="116" type="line" smooth="yes"/>
      <point x="155" y="39"/>
      <point x="192" y="-12"/>
      <point x="243" y="-12" type="curve" smooth="yes"/>
      <point x="313" y="-12"/>
      <point x="377" y="-2"/>
      <point x="437" y="-2" type="curve" smooth="yes"/>
      <point x="652" y="-2"/>
      <point x="691" y="-23"/>
      <point x="804" y="-23" type="curve" smooth="yes"/>
      <point x="859" y="-23"/>
      <point x="909" y="2"/>
      <point x="909" y="84" type="curve" smooth="yes"/>
      <point x="909" y="139"/>
      <point x="899" y="200"/>
      <point x="843" y="200" type="curve" smooth="yes"/>
      <point x="651" y="200"/>
      <point x="472" y="215"/>
      <point x="299" y="215" type="curve"/>
      <point x="292" y="537" type="line"/>
      <point x="299" y="540"/>
      <point x="307" y="540"/>
      <point x="326" y="540" type="curve" smooth="yes"/>
      <point x="367" y="540"/>
      <point x="454" y="537"/>
      <point x="674" y="537" type="curve" smooth="yes"/>
      <point x="720" y="537"/>
      <point x="739" y="612"/>
      <point x="739" y="635" type="curve" smooth="yes"/>
      <point x="739" y="709"/>
      <point x="706" y="736"/>
      <point x="664" y="736" type="curve" smooth="yes"/>
      <point x="289" y="732" type="line"/>
      <point x="289" y="802"/>
      <point x="293" y="920"/>
      <point x="293" y="985" type="curve"/>
      <point x="356" y="983"/>
      <point x="505" y="980"/>
      <point x="895" y="978" type="curve" smooth="yes"/>
      <point x="932" y="978"/>
      <point x="963" y="1040"/>
      <point x="963" y="1087" type="curve" smooth="yes"/>
      <point x="963" y="1173"/>
      <point x="934" y="1176"/>
      <point x="846" y="1176" type="curve" smooth="yes"/>
      <point x="720" y="1176"/>
      <point x="492" y="1173"/>
    </contour>
    <contour>
      <point x="557" y="-297" type="move" name="btm"/>
    </contour>
    <contour>
      <point x="547" y="1497" type="move" name="top"/>
    </contour>
  </outline>
</glyph>
<glyph name="F" format="1">
  <advance width="446"/>
  <unicode hex="0046"/>
  <outline>
    <contour>
      <point x="267" y="688" type="move" name="top"/>
    </contour>
    <contour>
      <point x="64" y="62" type="curve" smooth="yes"/>
      <point x="64" y="24"/>
      <point x="73" y="-4"/>
      <point x="105" y="-4" type="curve" smooth="yes"/>
      <point x="132" y="-4"/>
      <point x="136" y="33"/>
      <point x="136" y="61" type="curve" smooth="yes"/>
      <point x="135" y="231" type="line"/>
      <point x="158" y="231"/>
      <point x="178" y="235"/>
      <point x="294" y="248" type="curve" smooth="yes"/>
      <point x="338" y="253"/>
      <point x="360" y="251"/>
      <point x="360" y="301" type="curve" smooth="yes"/>
      <point x="360" y="314"/>
      <point x="359" y="346"/>
      <point x="333" y="346" type="curve" smooth="yes"/>
      <point x="324" y="346"/>
      <point x="314" y="344"/>
      <point x="305" y="341" type="curve"/>
      <point x="219" y="328" type="line" smooth="yes"/>
      <point x="209" y="326"/>
      <point x="176" y="323"/>
      <point x="155" y="323" type="curve" smooth="yes"/>
      <point x="143" y="323"/>
      <point x="135" y="324"/>
      <point x="134" y="326" type="curve"/>
      <point x="135" y="390"/>
      <point x="136" y="438"/>
      <point x="139" y="465" type="curve"/>
      <point x="143" y="464"/>
      <point x="156" y="463"/>
      <point x="170" y="463" type="curve" smooth="yes"/>
      <point x="311" y="463"/>
      <point x="337" y="468"/>
      <point x="346" y="468" type="curve"/>
      <point x="374" y="461"/>
      <point x="399" y="455"/>
      <point x="404" y="455" type="curve" smooth="yes"/>
      <point x="428" y="455"/>
      <point x="437" y="472"/>
      <point x="437" y="503" type="curve" smooth="yes"/>
      <point x="437" y="529"/>
      <point x="410" y="562"/>
      <point x="391" y="562" type="curve" smooth="yes"/>
      <point x="376" y="562"/>
      <point x="363" y="559"/>
      <point x="351" y="556" type="curve"/>
      <point x="182" y="556" type="line" smooth="yes"/>
      <point x="160" y="556"/>
      <point x="135" y="565"/>
      <point x="112" y="565" type="curve" smooth="yes"/>
      <point x="78" y="565"/>
      <point x="74" y="488"/>
      <point x="74" y="455" type="curve" smooth="yes"/>
      <point x="69" y="121" type="line" smooth="yes"/>
      <point x="69" y="105"/>
      <point x="64" y="91"/>
    </contour>
  </outline>
</glyph>
<glyph name="G" format="1">
  <advance width="505"/>
  <unicode hex="0047"/>
  <outline>
    <contour>
      <point x="296" y="688" type="move" name="top"/>
    </contour>
    <contour>
      <point x="61" y="262" type="curve" smooth="yes"/>
      <point x="61" y="92"/>
      <point x="129" y="-6"/>
      <point x="272" y="-6" type="curve" smooth="yes"/>
      <point x="317" y="-6"/>
      <point x="369" y="19"/>
      <point x="385" y="26" type="curve"/>
      <point x="393" y="16"/>
      <point x="402" y="-5"/>
      <point x="419" y="-5" type="curve" smooth="yes"/>
      <point x="435" y="-5"/>
      <point x="444" y="2"/>
      <point x="445" y="54" type="curve"/>
      <point x="443" y="77"/>
      <point x="442" y="99"/>
      <point x="442" y="122" type="curve" smooth="yes"/>
      <point x="442" y="154"/>
      <point x="445" y="184"/>
      <point x="445" y="216" type="curve"/>
      <point x="457" y="223"/>
      <point x="462" y="237"/>
      <point x="462" y="260" type="curve" smooth="yes"/>
      <point x="462" y="280"/>
      <point x="446" y="305"/>
      <point x="429" y="305" type="curve" smooth="yes"/>
      <point x="403" y="305"/>
      <point x="380" y="297"/>
      <point x="356" y="297" type="curve"/>
      <point x="345" y="298"/>
      <point x="325" y="300"/>
      <point x="314" y="300" type="curve" smooth="yes"/>
      <point x="292" y="300"/>
      <point x="270" y="292"/>
      <point x="270" y="254" type="curve" smooth="yes"/>
      <point x="270" y="222"/>
      <point x="296" y="204"/>
      <point x="317" y="204" type="curve" smooth="yes"/>
      <point x="333" y="204"/>
      <point x="358" y="204"/>
      <point x="382" y="207" type="curve"/>
      <point x="382" y="151" type="line" smooth="yes"/>
      <point x="382" y="103"/>
      <point x="366" y="80"/>
      <point x="282" y="80" type="curve" smooth="yes"/>
      <point x="190" y="80"/>
      <point x="121" y="133"/>
      <point x="121" y="250" type="curve" smooth="yes"/>
      <point x="121" y="347"/>
      <point x="206" y="478"/>
      <point x="283" y="478" type="curve" smooth="yes"/>
      <point x="321" y="478"/>
      <point x="354" y="461"/>
      <point x="385" y="428" type="curve" smooth="yes"/>
      <point x="394" y="419"/>
      <point x="408" y="389"/>
      <point x="415" y="389" type="curve" smooth="yes"/>
      <point x="429" y="389"/>
      <point x="437" y="406"/>
      <point x="437" y="444" type="curve" smooth="yes"/>
      <point x="437" y="520"/>
      <point x="366" y="565"/>
      <point x="288" y="565" type="curve" smooth="yes"/>
      <point x="146" y="565"/>
      <point x="61" y="357"/>
    </contour>
  </outline>
</glyph>
<glyph name="H" format="1">
  <advance width="512"/>
  <unicode hex="0048"/>
  <outline>
    <contour>
      <point x="274" y="688" type="move" name="top"/>
    </contour>
    <contour>
      <point x="74" y="67" type="curve" smooth="yes"/>
      <point x="74" y="28"/>
      <point x="78" y="-5"/>
      <point x="105" y="-5" type="curve" smooth="yes"/>
      <point x="118" y="-5"/>
      <point x="142" y="12"/>
      <point x="143" y="32" type="curve" smooth="yes"/>
      <point x="143" y="42"/>
      <point x="142" y="71"/>
      <point x="140" y="226" type="curve"/>
      <point x="171" y="229"/>
      <point x="200" y="230"/>
      <point x="282" y="230" type="curve" smooth="yes"/>
      <point x="376" y="230" type="line"/>
      <point x="373" y="63" type="line" smooth="yes"/>
      <point x="372" y="9"/>
      <point x="384" y="-6"/>
      <point x="408" y="-6" type="curve" smooth="yes"/>
      <point x="429" y="-6"/>
      <point x="442" y="17"/>
      <point x="442" y="43" type="curve" smooth="yes"/>
      <point x="442" y="62"/>
      <point x="442" y="140"/>
      <point x="438" y="250" type="curve"/>
      <point x="445" y="280" type="line"/>
      <point x="444" y="294"/>
      <point x="439" y="308"/>
      <point x="436" y="316" type="curve"/>
      <point x="436" y="433"/>
      <point x="437" y="456"/>
      <point x="437" y="471" type="curve" smooth="yes"/>
      <point x="437" y="529"/>
      <point x="431" y="561"/>
      <point x="402" y="561" type="curve" smooth="yes"/>
      <point x="377" y="561"/>
      <point x="373" y="530"/>
      <point x="372" y="493" type="curve" smooth="yes"/>
      <point x="372" y="485"/>
      <point x="372" y="459"/>
      <point x="374" y="320" type="curve"/>
      <point x="140" y="320" type="line"/>
      <point x="140" y="378"/>
      <point x="141" y="443"/>
      <point x="141" y="501" type="curve" smooth="yes"/>
      <point x="141" y="526"/>
      <point x="123" y="558"/>
      <point x="109" y="558" type="curve" smooth="yes"/>
      <point x="80" y="558"/>
      <point x="75" y="498"/>
      <point x="75" y="402" type="curve" smooth="yes"/>
      <point x="75" y="351"/>
      <point x="76" y="289"/>
      <point x="76" y="222" type="curve" smooth="yes"/>
      <point x="76" y="181"/>
      <point x="74" y="130"/>
    </contour>
  </outline>
</glyph>
<glyph name="I" format="1">
  <advance width="676"/>
  <unicode hex="0049"/>
  <outline>
    <contour>
      <point x="537" y="985" type="curve" smooth="yes"/>
      <point x="574" y="985"/>
      <point x="645" y="1023"/>
      <point x="645" y="1107" type="curve" smooth="yes"/>
      <point x="645" y="1138"/>
      <point x="602" y="1206"/>
      <point x="570" y="1206" type="curve" smooth="yes"/>
      <point x="552" y="1206"/>
      <point x="501" y="1192"/>
      <point x="478" y="1192" type="curve" smooth="yes"/>
      <point x="392" y="1192"/>
      <point x="349" y="1191"/>
      <point x="254" y="1191" type="curve" smooth="yes"/>
      <point x="163" y="1191"/>
      <point x="136" y="1157"/>
      <point x="136" y="1080" type="curve" smooth="yes"/>
      <point x="136" y="1076" type="line" smooth="yes"/>
      <point x="136" y="988"/>
      <point x="189" y="987"/>
      <point x="232" y="987" type="curve" smooth="yes"/>
      <point x="287" y="987" type="line"/>
      <point x="273" y="802"/>
      <point x="260" y="436"/>
      <point x="260" y="248" type="curve" smooth="yes"/>
      <point x="260" y="203" type="line"/>
      <point x="177" y="210" type="line"/>
      <point x="136" y="210"/>
      <point x="105" y="153"/>
      <point x="105" y="98" type="curve" smooth="yes"/>
      <point x="105" y="20"/>
      <point x="203" y="0"/>
      <point x="238" y="0" type="curve" smooth="yes"/>
      <point x="489" y="0" type="line" smooth="yes"/>
      <point x="523" y="0"/>
      <point x="570" y="36"/>
      <point x="570" y="91" type="curve" smooth="yes"/>
      <point x="570" y="139"/>
      <point x="555" y="179"/>
      <point x="526" y="200" type="curve"/>
      <point x="491" y="200"/>
      <point x="472" y="198"/>
      <point x="411" y="198" type="curve"/>
      <point x="403" y="277"/>
      <point x="400" y="368"/>
      <point x="400" y="450" type="curve" smooth="yes"/>
      <point x="400" y="739"/>
      <point x="413" y="920"/>
      <point x="421" y="1003" type="curve"/>
      <point x="492" y="1003" type="line" smooth="yes"/>
      <point x="515" y="1003"/>
      <point x="521" y="985"/>
    </contour>
    <contour>
      <point x="374" y="-297" type="move" name="btm"/>
    </contour>
    <contour>
      <point x="377" y="1515" type="move" name="top"/>
    </contour>
  </outline>
</glyph>
<glyph name="K" format="1">
  <advance width="462"/>
  <unicode hex="004B"/>
  <outline>
    <contour>
      <point x="238" y="656" type="move" name="top"/>
    </contour>
    <contour>
      <point x="72" y="88" type="line"/>
      <point x="72" y="34"/>
      <point x="76" y="-11"/>
      <point x="114" y="-11" type="curve" smooth="yes"/>
      <point x="128" y="-11"/>
      <point x="149" y="4"/>
      <point x="148" y="30" type="curve" smooth="yes"/>
      <point x="146" y="89" type="line" smooth="yes"/>
      <point x="145" y="118"/>
      <point x="141" y="147"/>
      <point x="142" y="200" type="curve"/>
      <point x="161" y="228"/>
      <point x="200" y="279"/>
      <point x="227" y="306" type="curve"/>
      <point x="254" y="267"/>
      <point x="328" y="93"/>
      <point x="344" y="49" type="curve" smooth="yes"/>
      <point x="359" y="6"/>
      <point x="377" y="-48"/>
      <point x="395" y="-48" type="curve" smooth="yes"/>
      <point x="424" y="-48"/>
      <point x="433" y="-22"/>
      <point x="433" y="8" type="curve" smooth="yes"/>
      <point x="433" y="44"/>
      <point x="395" y="117"/>
      <point x="373" y="165" type="curve"/>
      <point x="323" y="271" type="line" smooth="yes"/>
      <point x="309" y="301"/>
      <point x="294" y="334"/>
      <point x="277" y="364" type="curve"/>
      <point x="329" y="438"/>
      <point x="380" y="448"/>
      <point x="380" y="517" type="curve" smooth="yes"/>
      <point x="380" y="547"/>
      <point x="364" y="558"/>
      <point x="356" y="558" type="curve" smooth="yes"/>
      <point x="319" y="557"/>
      <point x="312" y="526"/>
      <point x="288" y="497" type="curve" smooth="yes"/>
      <point x="270" y="476"/>
      <point x="271" y="476"/>
      <point x="236" y="427" type="curve"/>
      <point x="217" y="424"/>
      <point x="208" y="410"/>
      <point x="196" y="385" type="curve"/>
      <point x="179" y="359"/>
      <point x="155" y="335"/>
      <point x="140" y="310" type="curve"/>
      <point x="139" y="313"/>
      <point x="139" y="324"/>
      <point x="139" y="335" type="curve" smooth="yes"/>
      <point x="139" y="364" type="line"/>
      <point x="145" y="517" type="line"/>
      <point x="145" y="548"/>
      <point x="129" y="561"/>
      <point x="116" y="561" type="curve" smooth="yes"/>
      <point x="92" y="561"/>
      <point x="84" y="532"/>
      <point x="83" y="511" type="curve" smooth="yes"/>
      <point x="79" y="418"/>
      <point x="78" y="328"/>
      <point x="76" y="238" type="curve" smooth="yes"/>
    </contour>
  </outline>
</glyph>
<glyph name="L" format="1">
  <advance width="891"/>
  <unicode hex="004C"/>
  <outline>
    <contour>
      <point x="775" y="-10" type="curve" smooth="yes"/>
      <point x="810" y="-10"/>
      <point x="856" y="53"/>
      <point x="856" y="101" type="curve" smooth="yes"/>
      <point x="856" y="160"/>
      <point x="825" y="213"/>
      <point x="788" y="215" type="curve"/>
      <point x="696" y="203"/>
      <point x="684" y="200"/>
      <point x="671" y="200" type="curve" smooth="yes"/>
      <point x="537" y="200"/>
      <point x="427" y="208"/>
      <point x="301" y="213" type="curve"/>
      <point x="289" y="664" type="line" smooth="yes"/>
      <point x="287" y="760"/>
      <point x="287" y="860"/>
      <point x="287" y="952" type="curve"/>
      <point x="293" y="1023"/>
      <point x="297" y="1047"/>
      <point x="297" y="1102" type="curve" smooth="yes"/>
      <point x="297" y="1162"/>
      <point x="254" y="1217"/>
      <point x="218" y="1217" type="curve" smooth="yes"/>
      <point x="157" y="1217"/>
      <point x="150" y="1144"/>
      <point x="150" y="944" type="curve" smooth="yes"/>
      <point x="150" y="740"/>
      <point x="165" y="533"/>
      <point x="165" y="329" type="curve"/>
      <point x="153" y="200"/>
      <point x="146" y="144"/>
      <point x="146" y="66" type="curve" smooth="yes"/>
      <point x="146" y="4"/>
      <point x="160" y="0"/>
      <point x="181" y="0" type="curve"/>
      <point x="287" y="-10"/>
      <point x="305" y="-10"/>
      <point x="317" y="-10" type="curve" smooth="yes"/>
      <point x="373" y="-10"/>
      <point x="421" y="0"/>
      <point x="466" y="0" type="curve" smooth="yes"/>
      <point x="582" y="0"/>
      <point x="681" y="-10"/>
    </contour>
    <contour>
      <point x="501" y="-297" type="move" name="btm"/>
    </contour>
    <contour>
      <point x="406" y="1429" type="move" name="top"/>
    </contour>
  </outline>
</glyph>
<glyph name="M" format="1">
  <advance width="1276"/>
  <unicode hex="004D"/>
  <outline>
    <contour>
      <point x="955" y="94" type="curve" smooth="yes"/>
      <point x="955" y="0"/>
      <point x="1050" y="-20"/>
      <point x="1054" y="-20" type="curve" smooth="yes"/>
      <point x="1066" y="-20"/>
      <point x="1111" y="2"/>
      <point x="1112" y="60" type="curve" smooth="yes"/>
      <point x="1129" y="696" type="line" smooth="yes"/>
      <point x="1133" y="834"/>
      <point x="1146" y="958"/>
      <point x="1146" y="1094" type="curve" smooth="yes"/>
      <point x="1146" y="1164"/>
      <point x="1117" y="1209"/>
      <point x="1064" y="1209" type="curve" smooth="yes"/>
      <point x="1035" y="1209"/>
      <point x="999" y="1159"/>
      <point x="990" y="1112" type="curve"/>
      <point x="895" y="913"/>
      <point x="740" y="570"/>
      <point x="700" y="503" type="curve" smooth="yes"/>
      <point x="657" y="434"/>
      <point x="639" y="417"/>
      <point x="620" y="417" type="curve"/>
      <point x="591" y="453"/>
      <point x="476" y="696"/>
      <point x="439" y="781" type="curve" smooth="yes"/>
      <point x="373" y="934"/>
      <point x="337" y="1038"/>
      <point x="329" y="1102" type="curve" smooth="yes"/>
      <point x="329" y="1107"/>
      <point x="329" y="1109"/>
      <point x="329" y="1112" type="curve" smooth="yes"/>
      <point x="329" y="1159"/>
      <point x="303" y="1217"/>
      <point x="263" y="1217" type="curve" smooth="yes"/>
      <point x="144" y="1217"/>
      <point x="160" y="926"/>
      <point x="149" y="243" type="curve" smooth="yes"/>
      <point x="149" y="208"/>
      <point x="142" y="160"/>
      <point x="142" y="119" type="curve" smooth="yes"/>
      <point x="142" y="53"/>
      <point x="147" y="-5"/>
      <point x="222" y="-5" type="curve" smooth="yes"/>
      <point x="269" y="-5"/>
      <point x="287" y="55"/>
      <point x="287" y="146" type="curve" smooth="yes"/>
      <point x="287" y="149"/>
      <point x="283" y="155"/>
      <point x="273" y="222" type="curve"/>
      <point x="273" y="406"/>
      <point x="254" y="662"/>
      <point x="263" y="781" type="curve"/>
      <point x="382" y="523" type="line" smooth="yes"/>
      <point x="416" y="449"/>
      <point x="532" y="189"/>
      <point x="586" y="189" type="curve" smooth="yes"/>
      <point x="681" y="187"/>
      <point x="788" y="423"/>
      <point x="894" y="612" type="curve" smooth="yes"/>
      <point x="930" y="679" type="line" smooth="yes"/>
      <point x="958" y="724"/>
      <point x="973" y="802"/>
      <point x="998" y="836" type="curve"/>
      <point x="988" y="266" type="line" smooth="yes"/>
      <point x="987" y="215"/>
      <point x="955" y="157"/>
    </contour>
    <contour>
      <point x="643" y="-297" type="move" name="btm"/>
    </contour>
    <contour>
      <point x="689" y="1429" type="move" name="top"/>
    </contour>
  </outline>
</glyph>
<glyph name="N" format="1">
  <advance width="1076"/>
  <unicode hex="004E"/>
  <outline>
    <contour>
      <point x="716" y="23" type="curve"/>
      <point x="724" y="4"/>
      <point x="755" y="-29"/>
      <point x="781" y="-29" type="curve" smooth="yes"/>
      <point x="885" y="-29"/>
      <point x="894" y="85"/>
      <point x="897" y="187" type="curve" smooth="yes"/>
      <point x="897" y="213" type="line"/>
      <point x="928" y="540"/>
      <point x="955" y="814"/>
      <point x="955" y="1126" type="curve" smooth="yes"/>
      <point x="955" y="1233"/>
      <point x="932" y="1241"/>
      <point x="881" y="1241" type="curve" smooth="yes"/>
      <point x="818" y="1241"/>
      <point x="808" y="1184"/>
      <point x="804" y="1028" type="curve" smooth="yes"/>
      <point x="781" y="232"/>
      <point x="775" y="243"/>
      <point x="767" y="243" type="curve" smooth="yes"/>
      <point x="740" y="243"/>
      <point x="416" y="706"/>
      <point x="352" y="1021" type="curve" smooth="yes"/>
      <point x="332" y="1123"/>
      <point x="303" y="1216"/>
      <point x="225" y="1216" type="curve" smooth="yes"/>
      <point x="184" y="1216"/>
      <point x="163" y="1128"/>
      <point x="163" y="1089" type="curve" smooth="yes"/>
      <point x="163" y="946"/>
      <point x="167" y="904"/>
      <point x="167" y="868" type="curve" smooth="yes"/>
      <point x="167" y="779"/>
      <point x="167" y="705"/>
      <point x="157" y="491" type="curve"/>
      <point x="153" y="153" type="line" smooth="yes"/>
      <point x="150" y="66"/>
      <point x="140" y="-5"/>
      <point x="220" y="-5" type="curve" smooth="yes"/>
      <point x="272" y="-5"/>
      <point x="291" y="57"/>
      <point x="291" y="181" type="curve" smooth="yes"/>
      <point x="291" y="248"/>
      <point x="293" y="284"/>
      <point x="293" y="456" type="curve" smooth="yes"/>
      <point x="293" y="501"/>
      <point x="293" y="664"/>
      <point x="297" y="734" type="curve"/>
      <point x="399" y="492"/>
      <point x="560" y="218"/>
    </contour>
    <contour>
      <point x="552" y="-297" type="move" name="btm"/>
    </contour>
    <contour>
      <point x="553" y="1515" type="move" name="top"/>
    </contour>
  </outline>
</glyph>
<glyph name="O" format="1">
  <advance width="574"/>
  <unicode hex="004F"/>
  <outline>
    <contour>
      <point x="299" y="695" type="move" name="top"/>
    </contour>
    <contour>
      <point x="49" y="271" type="curve"/>
      <point x="49" y="141"/>
      <point x="157" y="-10"/>
      <point x="284" y="-10" type="curve" smooth="yes"/>
      <point x="406" y="-10"/>
      <point x="521" y="106"/>
      <point x="521" y="275" type="curve" smooth="yes"/>
      <point x="521" y="453"/>
      <point x="439" y="561"/>
      <point x="299" y="561" type="curve" smooth="yes"/>
      <point x="176" y="561"/>
      <point x="51" y="481"/>
    </contour>
    <contour>
      <point x="280" y="78" type="curve" smooth="yes"/>
      <point x="192" y="78"/>
      <point x="111" y="185"/>
      <point x="111" y="284" type="curve" smooth="yes"/>
      <point x="111" y="413"/>
      <point x="208" y="475"/>
      <point x="306" y="475" type="curve" smooth="yes"/>
      <point x="395" y="475"/>
      <point x="460" y="397"/>
      <point x="460" y="272" type="curve" smooth="yes"/>
      <point x="460" y="145"/>
      <point x="373" y="78"/>
    </contour>
  </outline>
</glyph>
<glyph name="P" format="1">
  <advance width="454"/>
  <unicode hex="0050"/>
  <outline>
    <contour>
      <point x="246" y="695" type="move" name="top"/>
    </contour>
    <contour>
      <point x="118" y="-5" type="curve" smooth="yes"/>
      <point x="130" y="-5"/>
      <point x="152" y="-2"/>
      <point x="152" y="29" type="curve"/>
      <point x="144" y="152"/>
      <point x="143" y="166"/>
      <point x="141" y="186" type="curve"/>
      <point x="146" y="184"/>
      <point x="152" y="183"/>
      <point x="157" y="183" type="curve" smooth="yes"/>
      <point x="316" y="183"/>
      <point x="420" y="254"/>
      <point x="420" y="411" type="curve" smooth="yes"/>
      <point x="420" y="504"/>
      <point x="362" y="560"/>
      <point x="245" y="560" type="curve"/>
      <point x="213" y="561"/>
      <point x="188" y="548"/>
      <point x="169" y="540" type="curve" smooth="yes"/>
      <point x="146" y="531" type="line"/>
      <point x="138" y="531"/>
      <point x="137" y="535"/>
      <point x="129" y="535" type="curve" smooth="yes"/>
      <point x="81" y="533"/>
      <point x="77" y="410"/>
      <point x="77" y="303" type="curve" smooth="yes"/>
      <point x="77" y="273"/>
      <point x="69" y="256"/>
      <point x="69" y="229" type="curve" smooth="yes"/>
      <point x="69" y="221"/>
      <point x="74" y="206"/>
      <point x="77" y="199" type="curve"/>
      <point x="77" y="93" type="line" smooth="yes"/>
      <point x="77" y="-11"/>
      <point x="97" y="-5"/>
    </contour>
    <contour>
      <point x="140" y="285" type="curve"/>
      <point x="145" y="424"/>
      <point x="148" y="443"/>
      <point x="148" y="447" type="curve"/>
      <point x="160" y="461"/>
      <point x="218" y="476"/>
      <point x="249" y="476" type="curve" smooth="yes"/>
      <point x="328" y="476"/>
      <point x="359" y="438"/>
      <point x="359" y="387" type="curve" smooth="yes"/>
      <point x="359" y="315"/>
      <point x="278" y="277"/>
      <point x="186" y="277" type="curve" smooth="yes"/>
      <point x="167" y="277"/>
      <point x="154" y="280"/>
    </contour>
  </outline>
</glyph>
<glyph name="Q" format="1">
  <advance width="583"/>
  <unicode hex="0051"/>
  <outline>
    <contour>
      <point x="266" y="656" type="move" name="top"/>
    </contour>
    <contour>
      <point x="271" y="-10" type="curve" smooth="yes"/>
      <point x="320" y="-10"/>
      <point x="372" y="3"/>
      <point x="415" y="34" type="curve"/>
      <point x="449" y="-17"/>
      <point x="474" y="-62"/>
      <point x="477" y="-66" type="curve" smooth="yes"/>
      <point x="487" y="-85"/>
      <point x="509" y="-88"/>
      <point x="520" y="-88" type="curve" smooth="yes"/>
      <point x="539" y="-88"/>
      <point x="549" y="-72"/>
      <point x="549" y="-49" type="curve" smooth="yes"/>
      <point x="549" y="-25"/>
      <point x="511" y="39"/>
      <point x="473" y="94" type="curve"/>
      <point x="503" y="139"/>
      <point x="523" y="200"/>
      <point x="523" y="280" type="curve" smooth="yes"/>
      <point x="523" y="410"/>
      <point x="415" y="561"/>
      <point x="287" y="561" type="curve" smooth="yes"/>
      <point x="164" y="561"/>
      <point x="49" y="447"/>
      <point x="49" y="280" type="curve" smooth="yes"/>
      <point x="49" y="100"/>
      <point x="132" y="-10"/>
    </contour>
    <contour>
      <point x="265" y="78" type="curve" smooth="yes"/>
      <point x="176" y="78"/>
      <point x="112" y="151"/>
      <point x="112" y="273" type="curve" smooth="yes"/>
      <point x="112" y="404"/>
      <point x="195" y="477"/>
      <point x="291" y="477" type="curve" smooth="yes"/>
      <point x="379" y="477"/>
      <point x="459" y="367"/>
      <point x="459" y="264" type="curve" smooth="yes"/>
      <point x="459" y="219"/>
      <point x="447" y="183"/>
      <point x="427" y="154" type="curve"/>
      <point x="421" y="162" type="line"/>
      <point x="405" y="179"/>
      <point x="369" y="242"/>
      <point x="327" y="242" type="curve" smooth="yes"/>
      <point x="313" y="242"/>
      <point x="303" y="223"/>
      <point x="303" y="195" type="curve" smooth="yes"/>
      <point x="303" y="173" type="line"/>
      <point x="323" y="155"/>
      <point x="345" y="129"/>
      <point x="366" y="102" type="curve"/>
      <point x="336" y="86"/>
      <point x="300" y="78"/>
    </contour>
  </outline>
</glyph>
<glyph name="R" format="1">
  <advance width="487"/>
  <unicode hex="0052"/>
  <outline>
    <contour>
      <point x="253" y="695" type="move" name="top"/>
    </contour>
    <contour>
      <point x="80" y="47" type="curve" smooth="yes"/>
      <point x="80" y="21"/>
      <point x="95" y="-7"/>
      <point x="114" y="-7" type="curve" smooth="yes"/>
      <point x="137" y="-7"/>
      <point x="158" y="11"/>
      <point x="158" y="40" type="curve"/>
      <point x="148" y="85"/>
      <point x="140" y="178"/>
      <point x="139" y="231" type="curve"/>
      <point x="163" y="242"/>
      <point x="210" y="254"/>
      <point x="222" y="254" type="curve" smooth="yes"/>
      <point x="274" y="254"/>
      <point x="344" y="236"/>
      <point x="368" y="187" type="curve"/>
      <point x="373" y="160"/>
      <point x="374" y="134"/>
      <point x="374" y="108" type="curve" smooth="yes"/>
      <point x="374" y="85"/>
      <point x="373" y="62"/>
      <point x="373" y="39" type="curve" smooth="yes"/>
      <point x="373" y="28" type="line" smooth="yes"/>
      <point x="373" y="-3"/>
      <point x="378" y="-28"/>
      <point x="403" y="-28" type="curve" smooth="yes"/>
      <point x="436" y="-28"/>
      <point x="441" y="25"/>
      <point x="441" y="79" type="curve" smooth="yes"/>
      <point x="441" y="193"/>
      <point x="427" y="287"/>
      <point x="328" y="321" type="curve"/>
      <point x="359" y="340"/>
      <point x="388" y="373"/>
      <point x="388" y="429" type="curve" smooth="yes"/>
      <point x="388" y="519"/>
      <point x="323" y="558"/>
      <point x="262" y="558" type="curve" smooth="yes"/>
      <point x="201" y="558"/>
      <point x="145" y="527"/>
      <point x="95" y="479" type="curve"/>
      <point x="71" y="453"/>
      <point x="69" y="388"/>
      <point x="69" y="345" type="curve" smooth="yes"/>
      <point x="69" y="212"/>
      <point x="84" y="118"/>
      <point x="84" y="90" type="curve" smooth="yes"/>
      <point x="84" y="77"/>
      <point x="80" y="60"/>
    </contour>
    <contour>
      <point x="134" y="328" type="curve"/>
      <point x="132" y="342"/>
      <point x="131" y="357"/>
      <point x="131" y="374" type="curve" smooth="yes"/>
      <point x="131" y="383"/>
      <point x="132" y="393"/>
      <point x="132" y="403" type="curve" smooth="yes"/>
      <point x="133" y="446"/>
      <point x="211" y="475"/>
      <point x="258" y="475" type="curve" smooth="yes"/>
      <point x="290" y="475"/>
      <point x="325" y="463"/>
      <point x="325" y="419" type="curve" smooth="yes"/>
      <point x="325" y="383"/>
      <point x="202" y="341"/>
    </contour>
  </outline>
</glyph>
<glyph name="S" format="1">
  <advance width="441"/>
  <unicode hex="0053"/>
  <outline>
    <contour>
      <point x="235" y="695" type="move" name="top"/>
    </contour>
    <contour>
      <point x="72" y="93" type="curve" smooth="yes"/>
      <point x="72" y="4"/>
      <point x="153" y="-6"/>
      <point x="193" y="-6" type="curve" smooth="yes"/>
      <point x="247" y="-6"/>
      <point x="391" y="38"/>
      <point x="391" y="158" type="curve" smooth="yes"/>
      <point x="391" y="337"/>
      <point x="114" y="272"/>
      <point x="114" y="361" type="curve" smooth="yes"/>
      <point x="114" y="418"/>
      <point x="195" y="471"/>
      <point x="240" y="471" type="curve" smooth="yes"/>
      <point x="280" y="471"/>
      <point x="306" y="458"/>
      <point x="306" y="416" type="curve" smooth="yes"/>
      <point x="306" y="393"/>
      <point x="307" y="373"/>
      <point x="325" y="373" type="curve" smooth="yes"/>
      <point x="354" y="373"/>
      <point x="357" y="421"/>
      <point x="357" y="455" type="curve" smooth="yes"/>
      <point x="357" y="509"/>
      <point x="315" y="559"/>
      <point x="252" y="559" type="curve" smooth="yes"/>
      <point x="160" y="559"/>
      <point x="52" y="484"/>
      <point x="52" y="352" type="curve" smooth="yes"/>
      <point x="52" y="182"/>
      <point x="328" y="228"/>
      <point x="328" y="153" type="curve" smooth="yes"/>
      <point x="328" y="123"/>
      <point x="258" y="83"/>
      <point x="203" y="83" type="curve" smooth="yes"/>
      <point x="157" y="83"/>
      <point x="142" y="84"/>
      <point x="114" y="139" type="curve" smooth="yes"/>
      <point x="109" y="149"/>
      <point x="104" y="155"/>
      <point x="103" y="155" type="curve" smooth="yes"/>
      <point x="86" y="155"/>
      <point x="72" y="110"/>
    </contour>
  </outline>
</glyph>
<glyph name="T" format="1">
  <advance width="400"/>
  <unicode hex="0054"/>
  <outline>
    <contour>
      <point x="209" y="688" type="move" name="top"/>
    </contour>
    <contour>
      <point x="180" y="62" type="curve" smooth="yes"/>
      <point x="180" y="20"/>
      <point x="185" y="-6"/>
      <point x="222" y="-6" type="curve" smooth="yes"/>
      <point x="251" y="-6"/>
      <point x="254" y="5"/>
      <point x="255" y="37" type="curve"/>
      <point x="247" y="91" type="line" smooth="yes"/>
      <point x="247" y="94"/>
      <point x="247" y="98"/>
      <point x="234" y="475" type="curve"/>
      <point x="256" y="478"/>
      <point x="295" y="478"/>
      <point x="303" y="478" type="curve" smooth="yes"/>
      <point x="318" y="478"/>
      <point x="334" y="458"/>
      <point x="347" y="458" type="curve" smooth="yes"/>
      <point x="366" y="458"/>
      <point x="385" y="497"/>
      <point x="385" y="516" type="curve" smooth="yes"/>
      <point x="385" y="542"/>
      <point x="371" y="564"/>
      <point x="348" y="564" type="curve"/>
      <point x="275" y="559" type="line"/>
      <point x="81" y="557" type="line" smooth="yes"/>
      <point x="54" y="557"/>
      <point x="26" y="545"/>
      <point x="26" y="493" type="curve" smooth="yes"/>
      <point x="26" y="467"/>
      <point x="40" y="457"/>
      <point x="69" y="457" type="curve" smooth="yes"/>
      <point x="98" y="457"/>
      <point x="132" y="464"/>
      <point x="168" y="467" type="curve"/>
      <point x="181" y="89" type="line" smooth="yes"/>
      <point x="181" y="80"/>
      <point x="180" y="70"/>
    </contour>
  </outline>
</glyph>
<glyph name="U" format="1">
  <advance width="482"/>
  <unicode hex="0055"/>
  <outline>
    <contour>
      <point x="251" y="695" type="move" name="top"/>
    </contour>
    <contour>
      <point x="210" y="-12" type="curve" smooth="yes"/>
      <point x="248" y="-12"/>
      <point x="308" y="11"/>
      <point x="343" y="61" type="curve"/>
      <point x="344" y="11"/>
      <point x="355" y="-6"/>
      <point x="376" y="-6" type="curve" smooth="yes"/>
      <point x="400" y="-6"/>
      <point x="415" y="9"/>
      <point x="415" y="31" type="curve" smooth="yes"/>
      <point x="415" y="73"/>
      <point x="406" y="132"/>
      <point x="406" y="190" type="curve" smooth="yes"/>
      <point x="406" y="300"/>
      <point x="416" y="426"/>
      <point x="428" y="483" type="curve"/>
      <point x="430" y="503" type="line" smooth="yes"/>
      <point x="430" y="505"/>
      <point x="431" y="507"/>
      <point x="431" y="510" type="curve" smooth="yes"/>
      <point x="431" y="542"/>
      <point x="420" y="565"/>
      <point x="406" y="565" type="curve" smooth="yes"/>
      <point x="375" y="565"/>
      <point x="359" y="525"/>
      <point x="354" y="410" type="curve"/>
      <point x="340" y="179" type="line" smooth="yes"/>
      <point x="336" y="113"/>
      <point x="289" y="75"/>
      <point x="221" y="75" type="curve" smooth="yes"/>
      <point x="140" y="75"/>
      <point x="131" y="197"/>
      <point x="131" y="292" type="curve" smooth="yes"/>
      <point x="131" y="349"/>
      <point x="148" y="459"/>
      <point x="148" y="518" type="curve" smooth="yes"/>
      <point x="148" y="540"/>
      <point x="142" y="558"/>
      <point x="123" y="558" type="curve" smooth="yes"/>
      <point x="70" y="558"/>
      <point x="66" y="369"/>
      <point x="66" y="289" type="curve" smooth="yes"/>
      <point x="66" y="275" type="line" smooth="yes"/>
      <point x="66" y="147"/>
      <point x="92" y="-12"/>
    </contour>
  </outline>
</glyph>
<glyph name="V" format="1">
  <advance width="481"/>
  <unicode hex="0056"/>
  <outline>
    <contour>
      <point x="249" y="688" type="move" name="top"/>
    </contour>
    <contour>
      <point x="174" y="-2" type="curve" smooth="yes"/>
      <point x="213" y="-2"/>
      <point x="218" y="10"/>
      <point x="228" y="33" type="curve" smooth="yes"/>
      <point x="256" y="98"/>
      <point x="404" y="388"/>
      <point x="461" y="488" type="curve" smooth="yes"/>
      <point x="464" y="494"/>
      <point x="471" y="513"/>
      <point x="471" y="526" type="curve" smooth="yes"/>
      <point x="471" y="557"/>
      <point x="456" y="571"/>
      <point x="449" y="571" type="curve" smooth="yes"/>
      <point x="412" y="571"/>
      <point x="353" y="422"/>
      <point x="321" y="363" type="curve"/>
      <point x="210" y="136"/>
      <point x="207" y="129"/>
      <point x="199" y="112" type="curve"/>
      <point x="175" y="194"/>
      <point x="112" y="412"/>
      <point x="93" y="523" type="curve"/>
      <point x="88" y="544"/>
      <point x="71" y="558"/>
      <point x="59" y="558" type="curve" smooth="yes"/>
      <point x="35" y="558"/>
      <point x="34" y="527"/>
      <point x="34" y="509" type="curve" smooth="yes"/>
      <point x="34" y="438"/>
      <point x="161" y="-2"/>
    </contour>
  </outline>
</glyph>
<glyph name="W" format="1">
  <advance width="1248"/>
  <unicode hex="0057"/>
  <outline>
    <contour>
      <point x="139" y="1219" type="curve" smooth="yes"/>
      <point x="95" y="1219"/>
      <point x="69" y="1139"/>
      <point x="69" y="1102" type="curve" smooth="yes"/>
      <point x="69" y="1068"/>
      <point x="79" y="1018"/>
      <point x="89" y="968" type="curve" smooth="yes"/>
      <point x="153" y="657"/>
      <point x="218" y="367"/>
      <point x="258" y="81" type="curve" smooth="yes"/>
      <point x="268" y="23"/>
      <point x="292" y="-23"/>
      <point x="347" y="-23" type="curve" smooth="yes"/>
      <point x="382" y="-23"/>
      <point x="450" y="146"/>
      <point x="462" y="181" type="curve" smooth="yes"/>
      <point x="515" y="349"/>
      <point x="584" y="638"/>
      <point x="629" y="764" type="curve"/>
      <point x="662" y="586"/>
      <point x="649" y="578"/>
      <point x="719" y="205" type="curve" smooth="yes"/>
      <point x="739" y="95"/>
      <point x="751" y="-5"/>
      <point x="814" y="-5" type="curve" smooth="yes"/>
      <point x="899" y="-5"/>
      <point x="952" y="218"/>
      <point x="977" y="334" type="curve" smooth="yes"/>
      <point x="1074" y="767"/>
      <point x="1138" y="922"/>
      <point x="1209" y="1038" type="curve" smooth="yes"/>
      <point x="1231" y="1070"/>
      <point x="1252" y="1089"/>
      <point x="1252" y="1133" type="curve" smooth="yes"/>
      <point x="1252" y="1183"/>
      <point x="1219" y="1247"/>
      <point x="1174" y="1247" type="curve" smooth="yes"/>
      <point x="1121" y="1247"/>
      <point x="1087" y="1123"/>
      <point x="1062" y="1062" type="curve" smooth="yes"/>
      <point x="1018" y="942"/>
      <point x="944" y="734"/>
      <point x="894" y="537" type="curve" smooth="yes"/>
      <point x="834" y="322" type="line"/>
      <point x="818" y="433"/>
      <point x="790" y="537"/>
      <point x="771" y="676" type="curve" smooth="yes"/>
      <point x="743" y="879"/>
      <point x="715" y="1087"/>
      <point x="661" y="1087" type="curve" smooth="yes"/>
      <point x="600" y="1087"/>
      <point x="483" y="688"/>
      <point x="406" y="450" type="curve" smooth="yes"/>
      <point x="364" y="324" type="line"/>
      <point x="352" y="356"/>
      <point x="346" y="394"/>
      <point x="346" y="423" type="curve" smooth="yes"/>
      <point x="346" y="590"/>
      <point x="289" y="684"/>
      <point x="247" y="885" type="curve" smooth="yes"/>
      <point x="222" y="998"/>
      <point x="215" y="1219"/>
    </contour>
    <contour>
      <point x="660" y="-297" type="move" name="btm"/>
    </contour>
    <contour>
      <point x="649" y="1497" type="move" name="top"/>
    </contour>
  </outline>
</glyph>
<glyph name="Z" format="1">
  <advance width="441"/>
  <unicode hex="005A"/>
  <outline>
    <contour>
      <point x="229" y="688" type="move" name="top"/>
    </contour>
    <contour>
      <point x="57" y="38" type="curve" smooth="yes"/>
      <point x="57" y="11"/>
      <point x="61" y="-2"/>
      <point x="80" y="-4" type="curve" smooth="yes"/>
      <point x="127" y="-8"/>
      <point x="141" y="-8"/>
      <point x="157" y="-8" type="curve" smooth="yes"/>
      <point x="232" y="-8"/>
      <point x="306" y="-2"/>
      <point x="368" y="-2" type="curve" smooth="yes"/>
      <point x="380" y="-2"/>
      <point x="390" y="-7"/>
      <point x="403" y="-7" type="curve" smooth="yes"/>
      <point x="427" y="-7"/>
      <point x="437" y="31"/>
      <point x="437" y="58" type="curve" smooth="yes"/>
      <point x="437" y="82"/>
      <point x="428" y="104"/>
      <point x="403" y="104" type="curve" smooth="yes"/>
      <point x="383" y="104"/>
      <point x="363" y="84"/>
      <point x="339" y="84" type="curve" smooth="yes"/>
      <point x="312" y="84"/>
      <point x="287" y="83"/>
      <point x="261" y="83" type="curve" smooth="yes"/>
      <point x="141" y="83" type="line"/>
      <point x="151" y="106"/>
      <point x="177" y="155"/>
      <point x="190" y="175" type="curve" smooth="yes"/>
      <point x="227" y="231"/>
      <point x="361" y="467"/>
      <point x="361" y="510" type="curve" smooth="yes"/>
      <point x="361" y="528"/>
      <point x="358" y="554"/>
      <point x="345" y="556" type="curve" smooth="yes"/>
      <point x="319" y="559"/>
      <point x="295" y="560"/>
      <point x="271" y="560" type="curve" smooth="yes"/>
      <point x="229" y="560"/>
      <point x="189" y="557"/>
      <point x="150" y="557" type="curve" smooth="yes"/>
      <point x="127" y="557"/>
      <point x="94" y="561"/>
      <point x="72" y="561" type="curve" smooth="yes"/>
      <point x="52" y="561"/>
      <point x="36" y="546"/>
      <point x="36" y="515" type="curve" smooth="yes"/>
      <point x="36" y="484"/>
      <point x="54" y="461"/>
      <point x="78" y="461" type="curve" smooth="yes"/>
      <point x="127" y="461"/>
      <point x="196" y="469"/>
      <point x="252" y="469" type="curve" smooth="yes"/>
      <point x="271" y="469" type="line"/>
      <point x="224" y="366"/>
      <point x="150" y="246"/>
      <point x="95" y="153" type="curve" smooth="yes"/>
      <point x="73" y="116"/>
      <point x="57" y="79"/>
    </contour>
  </outline>
</glyph>
<glyph name="bracketleft" format="1">
  <advance width="231"/>
  <unicode hex="005B"/>
  <outline>
    <contour>
      <point x="51" y="-29" type="line" smooth="yes"/>
      <point x="50" y="-69"/>
      <point x="75" y="-76"/>
      <point x="92" y="-76" type="curve" smooth="yes"/>
      <point x="148" y="-76" type="line" smooth="yes"/>
      <point x="164" y="-76"/>
      <point x="182" y="-56"/>
      <point x="182" y="-26" type="curve" smooth="yes"/>
      <point x="182" y="13"/>
      <point x="160" y="20"/>
      <point x="126" y="21" type="curve" smooth="yes"/>
      <point x="120" y="21" type="line"/>
      <point x="120" y="194"/>
      <point x="124" y="398"/>
      <point x="128" y="498" type="curve"/>
      <point x="141" y="498" type="line" smooth="yes"/>
      <point x="160" y="498"/>
      <point x="193" y="503"/>
      <point x="193" y="546" type="curve" smooth="yes"/>
      <point x="193" y="574"/>
      <point x="172" y="592"/>
      <point x="154" y="592" type="curve" smooth="yes"/>
      <point x="148" y="592"/>
      <point x="139" y="592"/>
      <point x="133" y="591" type="curve"/>
      <point x="113" y="591" type="line" smooth="yes"/>
      <point x="62" y="591"/>
      <point x="62" y="558"/>
      <point x="61" y="500" type="curve" smooth="yes"/>
    </contour>
  </outline>
</glyph>
<glyph name="backslash" format="1">
  <advance width="285"/>
  <unicode hex="005C"/>
  <outline>
    <contour>
      <point x="190" y="-33" type="curve"/>
      <point x="190" y="-57"/>
      <point x="205" y="-84"/>
      <point x="217" y="-84" type="curve" smooth="yes"/>
      <point x="232" y="-84"/>
      <point x="262" y="-74"/>
      <point x="262" y="-37" type="curve"/>
      <point x="212" y="158"/>
      <point x="137" y="442"/>
      <point x="79" y="617" type="curve" smooth="yes"/>
      <point x="73" y="635"/>
      <point x="56" y="665"/>
      <point x="43" y="665" type="curve" smooth="yes"/>
      <point x="25" y="665"/>
      <point x="13" y="650"/>
      <point x="13" y="620" type="curve" smooth="yes"/>
      <point x="13" y="616"/>
      <point x="15" y="608"/>
      <point x="17" y="604" type="curve" smooth="yes"/>
      <point x="63" y="476"/>
      <point x="101" y="332"/>
    </contour>
  </outline>
</glyph>
<glyph name="bracketright" format="1">
  <advance width="227"/>
  <unicode hex="005D"/>
  <outline>
    <contour>
      <point x="34" y="-29" type="curve" smooth="yes"/>
      <point x="34" y="-57"/>
      <point x="53" y="-76"/>
      <point x="75" y="-76" type="curve" smooth="yes"/>
      <point x="147" y="-76"/>
      <point x="161" y="-69"/>
      <point x="165" y="-20" type="curve"/>
      <point x="170" y="254" type="line" smooth="yes"/>
      <point x="170" y="265"/>
      <point x="171" y="275"/>
      <point x="171" y="286" type="curve" smooth="yes"/>
      <point x="171" y="343" type="line"/>
      <point x="175" y="546" type="line" smooth="yes"/>
      <point x="176" y="586"/>
      <point x="152" y="592"/>
      <point x="138" y="592" type="curve" smooth="yes"/>
      <point x="81" y="592" type="line" smooth="yes"/>
      <point x="65" y="592"/>
      <point x="45" y="575"/>
      <point x="45" y="546" type="curve" smooth="yes"/>
      <point x="45" y="505"/>
      <point x="67" y="498"/>
      <point x="103" y="497" type="curve" smooth="yes"/>
      <point x="109" y="497" type="line"/>
      <point x="110" y="482"/>
      <point x="110" y="464"/>
      <point x="110" y="443" type="curve" smooth="yes"/>
      <point x="110" y="331"/>
      <point x="106" y="120"/>
      <point x="102" y="18" type="curve"/>
      <point x="88" y="20" type="line"/>
      <point x="68" y="20"/>
      <point x="34" y="16"/>
    </contour>
  </outline>
</glyph>
<glyph name="asciicircum" format="1">
  <advance width="884"/>
  <unicode hex="005E"/>
  <outline>
    <contour>
      <point x="760" y="173" type="curve" smooth="yes"/>
      <point x="818" y="173"/>
      <point x="849" y="215"/>
      <point x="849" y="299" type="curve" smooth="yes"/>
      <point x="849" y="354"/>
      <point x="792" y="392"/>
      <point x="773" y="443" type="curve" smooth="yes"/>
      <point x="691" y="651"/>
      <point x="473" y="1092"/>
      <point x="473" y="1092" type="curve"/>
      <point x="450" y="1121"/>
      <point x="416" y="1149"/>
      <point x="387" y="1149" type="curve" smooth="yes"/>
      <point x="334" y="1149"/>
      <point x="319" y="1112"/>
      <point x="305" y="1050" type="curve" smooth="yes"/>
      <point x="273" y="909"/>
      <point x="144" y="517"/>
      <point x="53" y="346" type="curve" smooth="yes"/>
      <point x="35" y="315"/>
      <point x="23" y="293"/>
      <point x="23" y="263" type="curve" smooth="yes"/>
      <point x="23" y="205"/>
      <point x="40" y="149"/>
      <point x="63" y="149" type="curve" smooth="yes"/>
      <point x="76" y="149"/>
      <point x="130" y="159"/>
      <point x="150" y="200" type="curve" smooth="yes"/>
      <point x="266" y="448"/>
      <point x="364" y="732"/>
      <point x="411" y="881" type="curve"/>
      <point x="468" y="820"/>
      <point x="571" y="517"/>
      <point x="612" y="418" type="curve" smooth="yes"/>
      <point x="689" y="220" type="line" smooth="yes"/>
      <point x="696" y="205"/>
      <point x="724" y="173"/>
    </contour>
  </outline>
</glyph>
<glyph name="grave" format="1">
  <advance width="187"/>
  <unicode hex="0060"/>
  <outline>
    <contour>
      <point x="66" y="656" type="move" name="_top"/>
    </contour>
    <contour>
      <point x="123" y="459" type="curve" smooth="yes"/>
      <point x="143" y="459"/>
      <point x="146" y="470"/>
      <point x="146" y="489" type="curve" smooth="yes"/>
      <point x="146" y="502" type="line" smooth="yes"/>
      <point x="146" y="525"/>
      <point x="134" y="536"/>
      <point x="120" y="549" type="curve" smooth="yes"/>
      <point x="88" y="579"/>
      <point x="53" y="663"/>
      <point x="15" y="663" type="curve" smooth="yes"/>
      <point x="-4" y="663"/>
      <point x="-19" y="648"/>
      <point x="-19" y="620" type="curve" smooth="yes"/>
      <point x="-19" y="600"/>
      <point x="84" y="459"/>
    </contour>
  </outline>
</glyph>
<glyph name="d" format="1">
  <advance width="469"/>
  <unicode hex="0064"/>
  <outline>
    <contour>
      <point x="104" y="695" type="move" name="top"/>
    </contour>
    <contour>
      <point x="34" y="196" type="curve" smooth="yes"/>
      <point x="34" y="76"/>
      <point x="88" y="-6"/>
      <point x="201" y="-6" type="curve" smooth="yes"/>
      <point x="236" y="-6"/>
      <point x="305" y="9"/>
      <point x="337" y="40" type="curve"/>
      <point x="344" y="20"/>
      <point x="353" y="-7"/>
      <point x="367" y="-7" type="curve" smooth="yes"/>
      <point x="402" y="-7"/>
      <point x="406" y="49"/>
      <point x="407" y="117" type="curve" smooth="yes"/>
      <point x="408" y="196" type="line" smooth="yes"/>
      <point x="408" y="199"/>
      <point x="408" y="202"/>
      <point x="414" y="488" type="curve" smooth="yes"/>
      <point x="414" y="511"/>
      <point x="415" y="603"/>
      <point x="415" y="625" type="curve" smooth="yes"/>
      <point x="415" y="646"/>
      <point x="409" y="669"/>
      <point x="390" y="669" type="curve" smooth="yes"/>
      <point x="366" y="669"/>
      <point x="355" y="652"/>
      <point x="355" y="621" type="curve" smooth="yes"/>
      <point x="355" y="577"/>
      <point x="353" y="402"/>
      <point x="353" y="358" type="curve"/>
      <point x="348" y="408"/>
      <point x="298" y="442"/>
      <point x="243" y="442" type="curve" smooth="yes"/>
      <point x="110" y="442"/>
      <point x="34" y="322"/>
    </contour>
    <contour>
      <point x="98" y="199" type="curve" smooth="yes"/>
      <point x="98" y="290"/>
      <point x="153" y="356"/>
      <point x="244" y="356" type="curve" smooth="yes"/>
      <point x="297" y="356"/>
      <point x="346" y="298"/>
      <point x="346" y="235" type="curve" smooth="yes"/>
      <point x="346" y="208" type="line" smooth="yes"/>
      <point x="346" y="184"/>
      <point x="347" y="157"/>
      <point x="340" y="135" type="curve" smooth="yes"/>
      <point x="334" y="114"/>
      <point x="290" y="76"/>
      <point x="212" y="76" type="curve" smooth="yes"/>
      <point x="148" y="76"/>
      <point x="98" y="122"/>
    </contour>
  </outline>
</glyph>
<glyph name="e" format="1">
  <advance width="440"/>
  <unicode hex="0065"/>
  <outline>
    <contour>
      <point x="218" y="695" type="move" name="top"/>
    </contour>
    <contour>
      <point x="94" y="147" type="curve"/>
      <point x="372" y="246" type="line" smooth="yes"/>
      <point x="388" y="251"/>
      <point x="398" y="274"/>
      <point x="398" y="305" type="curve" smooth="yes"/>
      <point x="398" y="401"/>
      <point x="316" y="452"/>
      <point x="248" y="452" type="curve" smooth="yes"/>
      <point x="112" y="452"/>
      <point x="34" y="343"/>
      <point x="34" y="189" type="curve" smooth="yes"/>
      <point x="34" y="77"/>
      <point x="125" y="-9"/>
      <point x="216" y="-9" type="curve" smooth="yes"/>
      <point x="253" y="-9"/>
      <point x="401" y="-6"/>
      <point x="401" y="62" type="curve" smooth="yes"/>
      <point x="401" y="92"/>
      <point x="390" y="106"/>
      <point x="367" y="106" type="curve" smooth="yes"/>
      <point x="342" y="106"/>
      <point x="295" y="74"/>
      <point x="249" y="74" type="curve" smooth="yes"/>
      <point x="204" y="74"/>
      <point x="116" y="77"/>
    </contour>
    <contour>
      <point x="90" y="216" type="curve"/>
      <point x="105" y="324"/>
      <point x="198" y="366"/>
      <point x="235" y="366" type="curve" smooth="yes"/>
      <point x="282" y="366"/>
      <point x="327" y="352"/>
      <point x="344" y="315" type="curve"/>
      <point x="291" y="294"/>
      <point x="164" y="237"/>
    </contour>
  </outline>
</glyph>
<glyph name="f" format="1">
  <advance width="352"/>
  <unicode hex="0066"/>
  <outline>
    <contour>
      <point x="36" y="816" type="move" name="top"/>
    </contour>
    <contour>
      <point x="106" y="100" type="curve" smooth="yes"/>
      <point x="106" y="10"/>
      <point x="114" y="-5"/>
      <point x="157" y="-5" type="curve" smooth="yes"/>
      <point x="172" y="-5"/>
      <point x="182" y="6"/>
      <point x="182" y="34" type="curve" smooth="yes"/>
      <point x="182" y="81"/>
      <point x="172" y="126"/>
      <point x="172" y="140" type="curve" smooth="yes"/>
      <point x="173" y="212"/>
      <point x="177" y="272"/>
      <point x="178" y="334" type="curve"/>
      <point x="188" y="334" type="line" smooth="yes"/>
      <point x="214" y="334"/>
      <point x="235" y="333"/>
      <point x="300" y="329" type="curve"/>
      <point x="314" y="329"/>
      <point x="342" y="330"/>
      <point x="342" y="377" type="curve" smooth="yes"/>
      <point x="342" y="412"/>
      <point x="327" y="419"/>
      <point x="314" y="419" type="curve" smooth="yes"/>
      <point x="306" y="419"/>
      <point x="296" y="418"/>
      <point x="288" y="417" type="curve"/>
      <point x="179" y="417" type="line"/>
      <point x="183" y="496"/>
      <point x="203" y="602"/>
      <point x="274" y="602" type="curve" smooth="yes"/>
      <point x="307" y="602"/>
      <point x="324" y="574"/>
      <point x="353" y="574" type="curve" smooth="yes"/>
      <point x="369" y="574"/>
      <point x="371" y="605"/>
      <point x="371" y="618" type="curve" smooth="yes"/>
      <point x="371" y="661"/>
      <point x="298" y="690"/>
      <point x="274" y="690" type="curve" smooth="yes"/>
      <point x="175" y="690"/>
      <point x="132" y="551"/>
      <point x="117" y="417" type="curve"/>
      <point x="113" y="417" type="line"/>
      <point x="48" y="419" type="line" smooth="yes"/>
      <point x="32" y="419"/>
      <point x="17" y="395"/>
      <point x="17" y="374" type="curve" smooth="yes"/>
      <point x="17" y="352"/>
      <point x="30" y="329"/>
      <point x="47" y="329" type="curve" smooth="yes"/>
      <point x="68" y="329"/>
      <point x="89" y="330"/>
      <point x="110" y="331" type="curve"/>
      <point x="110" y="308" type="line" smooth="yes"/>
      <point x="109" y="234"/>
      <point x="106" y="167"/>
    </contour>
  </outline>
</glyph>
<glyph name="g" format="1">
  <advance width="438"/>
  <unicode hex="0067"/>
  <outline>
    <contour>
      <point x="207" y="695" type="move" name="top"/>
    </contour>
    <contour>
      <point x="34" y="191" type="curve" smooth="yes"/>
      <point x="34" y="57"/>
      <point x="93" y="-10"/>
      <point x="203" y="-10" type="curve" smooth="yes"/>
      <point x="245" y="-10"/>
      <point x="309" y="15"/>
      <point x="321" y="59" type="curve"/>
      <point x="312" y="-14"/>
      <point x="319" y="-130"/>
      <point x="261" y="-130" type="curve" smooth="yes"/>
      <point x="177" y="-130"/>
      <point x="182" y="-108"/>
      <point x="164" y="-108" type="curve" smooth="yes"/>
      <point x="140" y="-108"/>
      <point x="135" y="-128"/>
      <point x="135" y="-156" type="curve" smooth="yes"/>
      <point x="135" y="-209"/>
      <point x="231" y="-222"/>
      <point x="255" y="-222" type="curve" smooth="yes"/>
      <point x="374" y="-222"/>
      <point x="365" y="-73"/>
      <point x="382" y="28" type="curve" smooth="yes"/>
      <point x="382" y="30"/>
      <point x="383" y="32"/>
      <point x="383" y="34" type="curve" smooth="yes"/>
      <point x="392" y="251" type="line"/>
      <point x="392" y="331"/>
      <point x="303" y="439"/>
      <point x="208" y="439" type="curve" smooth="yes"/>
      <point x="88" y="439"/>
      <point x="34" y="316"/>
    </contour>
    <contour>
      <point x="98" y="197" type="curve"/>
      <point x="99" y="278"/>
      <point x="128" y="351"/>
      <point x="219" y="351" type="curve" smooth="yes"/>
      <point x="302" y="351"/>
      <point x="321" y="269"/>
      <point x="328" y="206" type="curve"/>
      <point x="315" y="153"/>
      <point x="274" y="75"/>
      <point x="213" y="75" type="curve" smooth="yes"/>
      <point x="146" y="75"/>
      <point x="98" y="101"/>
    </contour>
  </outline>
</glyph>
<glyph name="h" format="1">
  <advance width="458"/>
  <unicode hex="0068"/>
  <outline>
    <contour>
      <point x="260" y="695" type="move" name="top"/>
    </contour>
    <contour>
      <point x="49" y="46" type="curve" smooth="yes"/>
      <point x="49" y="1"/>
      <point x="73" y="-2"/>
      <point x="84" y="-2" type="curve" smooth="yes"/>
      <point x="113" y="-2"/>
      <point x="113" y="29"/>
      <point x="114" y="55" type="curve"/>
      <point x="114" y="271" type="line" smooth="yes"/>
      <point x="114" y="303"/>
      <point x="168" y="348"/>
      <point x="224" y="348" type="curve" smooth="yes"/>
      <point x="340" y="348"/>
      <point x="349" y="269"/>
      <point x="349" y="212" type="curve" smooth="yes"/>
      <point x="349" y="202" type="line" smooth="yes"/>
      <point x="349" y="146"/>
      <point x="338" y="97"/>
      <point x="338" y="39" type="curve" smooth="yes"/>
      <point x="338" y="11"/>
      <point x="351" y="-11"/>
      <point x="374" y="-11" type="curve" smooth="yes"/>
      <point x="409" y="-11"/>
      <point x="408" y="44"/>
      <point x="409" y="69" type="curve" smooth="yes"/>
      <point x="414" y="219" type="line"/>
      <point x="414" y="311"/>
      <point x="383" y="436"/>
      <point x="225" y="436" type="curve" smooth="yes"/>
      <point x="183" y="436"/>
      <point x="122" y="402"/>
      <point x="114" y="350" type="curve"/>
      <point x="116" y="405" type="line"/>
      <point x="116" y="481"/>
      <point x="122" y="566"/>
      <point x="122" y="640" type="curve" smooth="yes"/>
      <point x="122" y="642" type="line" smooth="yes"/>
      <point x="122" y="663"/>
      <point x="109" y="681"/>
      <point x="94" y="681" type="curve" smooth="yes"/>
      <point x="71" y="681"/>
      <point x="56" y="643"/>
      <point x="56" y="622" type="curve" smooth="yes"/>
      <point x="56" y="461"/>
      <point x="49" y="208"/>
    </contour>
  </outline>
</glyph>
<glyph name="i" format="1">
  <advance width="183"/>
  <unicode hex="0069"/>
  <outline>
    <contour>
      <point x="78" y="656" type="move" name="top"/>
    </contour>
    <contour>
      <point x="118" y="539" type="curve" smooth="yes"/>
      <point x="147" y="539"/>
      <point x="161" y="559"/>
      <point x="161" y="596" type="curve" smooth="yes"/>
      <point x="161" y="639"/>
      <point x="135" y="650"/>
      <point x="114" y="650" type="curve" smooth="yes"/>
      <point x="93" y="650"/>
      <point x="66" y="618"/>
      <point x="66" y="589" type="curve" smooth="yes"/>
      <point x="66" y="547"/>
      <point x="100" y="539"/>
    </contour>
    <contour>
      <point x="62" y="36" type="curve" smooth="yes"/>
      <point x="68" y="2"/>
      <point x="81" y="-10"/>
      <point x="104" y="-10" type="curve" smooth="yes"/>
      <point x="118" y="-10"/>
      <point x="135" y="7"/>
      <point x="135" y="39" type="curve" smooth="yes"/>
      <point x="135" y="85"/>
      <point x="123" y="151"/>
      <point x="123" y="200" type="curve" smooth="yes"/>
      <point x="123" y="266"/>
      <point x="131" y="342"/>
      <point x="133" y="397" type="curve"/>
      <point x="133" y="422"/>
      <point x="131" y="444"/>
      <point x="110" y="444" type="curve" smooth="yes"/>
      <point x="58" y="444"/>
      <point x="58" y="213"/>
      <point x="58" y="131" type="curve" smooth="yes"/>
      <point x="58" y="63"/>
      <point x="61" y="42"/>
    </contour>
  </outline>
</glyph>
<glyph name="j" format="1">
  <advance width="262"/>
  <unicode hex="006A"/>
  <outline>
    <contour>
      <point x="105" y="656" type="move" name="top"/>
    </contour>
    <contour>
      <point x="158" y="559" type="curve" smooth="yes"/>
      <point x="187" y="559"/>
      <point x="201" y="579"/>
      <point x="201" y="616" type="curve" smooth="yes"/>
      <point x="201" y="659"/>
      <point x="175" y="670"/>
      <point x="154" y="670" type="curve" smooth="yes"/>
      <point x="133" y="670"/>
      <point x="106" y="638"/>
      <point x="106" y="609" type="curve" smooth="yes"/>
      <point x="106" y="567"/>
      <point x="140" y="559"/>
    </contour>
    <contour>
      <point x="-19" y="-139" type="curve" smooth="yes"/>
      <point x="-33" y="-139" type="line" smooth="yes"/>
      <point x="-54" y="-139"/>
      <point x="-70" y="-146"/>
      <point x="-70" y="-180" type="curve" smooth="yes"/>
      <point x="-70" y="-227"/>
      <point x="-24" y="-227"/>
      <point x="-7" y="-227" type="curve" smooth="yes"/>
      <point x="188" y="-227"/>
      <point x="185" y="-75"/>
      <point x="185" y="124" type="curve" smooth="yes"/>
      <point x="185" y="161"/>
      <point x="184" y="193"/>
      <point x="184" y="221" type="curve" smooth="yes"/>
      <point x="184" y="281"/>
      <point x="194" y="343"/>
      <point x="194" y="398" type="curve"/>
      <point x="192" y="419"/>
      <point x="183" y="445"/>
      <point x="161" y="445" type="curve" smooth="yes"/>
      <point x="131" y="445"/>
      <point x="126" y="399"/>
      <point x="125" y="365" type="curve"/>
      <point x="124" y="102" type="line" smooth="yes"/>
      <point x="123" y="-18"/>
      <point x="118" y="-139"/>
    </contour>
  </outline>
</glyph>
<glyph name="l" format="1">
  <advance width="518"/>
  <unicode hex="006C"/>
  <outline>
    <contour>
      <point x="349" y="181" type="curve" smooth="yes"/>
      <point x="301" y="181"/>
      <point x="289" y="311"/>
      <point x="292" y="433" type="curve" smooth="yes"/>
      <point x="305" y="1394" type="line" smooth="yes"/>
      <point x="305" y="1435"/>
      <point x="283" y="1487"/>
      <point x="247" y="1487" type="curve" smooth="yes"/>
      <point x="193" y="1487"/>
      <point x="173" y="1421"/>
      <point x="173" y="1340" type="curve" smooth="yes"/>
      <point x="160" y="243" type="line" smooth="yes"/>
      <point x="159" y="85"/>
      <point x="213" y="-5"/>
      <point x="347" y="-5" type="curve" smooth="yes"/>
      <point x="399" y="-5"/>
      <point x="489" y="50"/>
      <point x="489" y="134" type="curve" smooth="yes"/>
      <point x="489" y="179"/>
      <point x="472" y="228"/>
      <point x="433" y="228" type="curve" smooth="yes"/>
      <point x="397" y="228"/>
      <point x="387" y="181"/>
    </contour>
    <contour>
      <point x="324" y="-297" type="move" name="btm"/>
    </contour>
    <contour>
      <point x="237" y="1714" type="move" name="top"/>
    </contour>
  </outline>
</glyph>
<glyph name="n" format="1">
  <advance width="462"/>
  <unicode hex="006E"/>
  <outline>
    <contour>
      <point x="235" y="695" type="move" name="top"/>
    </contour>
    <contour>
      <point x="51" y="50" type="line" smooth="yes"/>
      <point x="50" y="0"/>
      <point x="74" y="-6"/>
      <point x="94" y="-6" type="curve" smooth="yes"/>
      <point x="123" y="-6"/>
      <point x="126" y="19"/>
      <point x="126" y="48" type="curve" smooth="yes"/>
      <point x="126" y="90"/>
      <point x="111" y="126"/>
      <point x="111" y="168" type="curve" smooth="yes"/>
      <point x="111" y="196"/>
      <point x="113" y="239"/>
      <point x="113" y="269" type="curve"/>
      <point x="144" y="319"/>
      <point x="206" y="356"/>
      <point x="244" y="356" type="curve" smooth="yes"/>
      <point x="342" y="356"/>
      <point x="356" y="248"/>
      <point x="356" y="177" type="curve" smooth="yes"/>
      <point x="356" y="127"/>
      <point x="337" y="85"/>
      <point x="337" y="38" type="curve" smooth="yes"/>
      <point x="337" y="-10"/>
      <point x="353" y="-13"/>
      <point x="373" y="-13" type="curve" smooth="yes"/>
      <point x="414" y="-13"/>
      <point x="418" y="108"/>
      <point x="418" y="202" type="curve" smooth="yes"/>
      <point x="418" y="314"/>
      <point x="385" y="444"/>
      <point x="259" y="444" type="curve" smooth="yes"/>
      <point x="220" y="444"/>
      <point x="134" y="408"/>
      <point x="112" y="331" type="curve"/>
      <point x="114" y="350"/>
      <point x="116" y="366"/>
      <point x="116" y="380" type="curve" smooth="yes"/>
      <point x="116" y="422"/>
      <point x="104" y="441"/>
      <point x="81" y="441" type="curve" smooth="yes"/>
      <point x="55" y="441"/>
      <point x="49" y="376"/>
      <point x="49" y="334" type="curve" smooth="yes"/>
      <point x="49" y="320" type="line" smooth="yes"/>
      <point x="49" y="308"/>
      <point x="49" y="295"/>
      <point x="53" y="230" type="curve"/>
    </contour>
  </outline>
</glyph>
<glyph name="o" format="1">
  <advance width="445"/>
  <unicode hex="006F"/>
  <outline>
    <contour>
      <point x="222" y="695" type="move" name="top"/>
    </contour>
    <contour>
      <point x="35" y="212" type="curve" smooth="yes"/>
      <point x="35" y="111"/>
      <point x="119" y="-10"/>
      <point x="220" y="-10" type="curve" smooth="yes"/>
      <point x="314" y="-10"/>
      <point x="406" y="80"/>
      <point x="406" y="212" type="curve" smooth="yes"/>
      <point x="406" y="353"/>
      <point x="341" y="443"/>
      <point x="231" y="443" type="curve" smooth="yes"/>
      <point x="135" y="443"/>
      <point x="35" y="380"/>
    </contour>
    <contour>
      <point x="215" y="75" type="curve" smooth="yes"/>
      <point x="153" y="75"/>
      <point x="94" y="149"/>
      <point x="94" y="222" type="curve" smooth="yes"/>
      <point x="94" y="311"/>
      <point x="172" y="356"/>
      <point x="242" y="356" type="curve" smooth="yes"/>
      <point x="301" y="356"/>
      <point x="346" y="300"/>
      <point x="346" y="216" type="curve" smooth="yes"/>
      <point x="346" y="126"/>
      <point x="281" y="75"/>
    </contour>
  </outline>
</glyph>
<glyph name="p" format="1">
  <advance width="461"/>
  <unicode hex="0070"/>
  <outline>
    <contour>
      <point x="227" y="695" type="move" name="top"/>
    </contour>
    <contour>
      <point x="115" y="7" type="line"/>
      <point x="147" y="0"/>
      <point x="169" y="-5"/>
      <point x="203" y="-5" type="curve" smooth="yes"/>
      <point x="334" y="-5"/>
      <point x="417" y="99"/>
      <point x="417" y="258" type="curve" smooth="yes"/>
      <point x="417" y="362"/>
      <point x="341" y="444"/>
      <point x="203" y="444" type="curve" smooth="yes"/>
      <point x="157" y="444"/>
      <point x="87" y="423"/>
      <point x="57" y="357" type="curve"/>
      <point x="49" y="-71"/>
      <point x="49" y="-110"/>
      <point x="49" y="-139" type="curve" smooth="yes"/>
      <point x="49" y="-204"/>
      <point x="49" y="-235"/>
      <point x="87" y="-235" type="curve" smooth="yes"/>
      <point x="103" y="-235"/>
      <point x="124" y="-222"/>
      <point x="124" y="-196" type="curve" smooth="yes"/>
      <point x="124" y="-133"/>
      <point x="115" y="-97"/>
      <point x="115" y="-31" type="curve" smooth="yes"/>
    </contour>
    <contour>
      <point x="117" y="89" type="curve"/>
      <point x="117" y="89"/>
      <point x="112" y="179"/>
      <point x="113" y="200" type="curve" smooth="yes"/>
      <point x="116" y="317" type="line" smooth="yes"/>
      <point x="117" y="343"/>
      <point x="174" y="358"/>
      <point x="202" y="358" type="curve" smooth="yes"/>
      <point x="294" y="358"/>
      <point x="352" y="320"/>
      <point x="352" y="244" type="curve" smooth="yes"/>
      <point x="352" y="132"/>
      <point x="267" y="82"/>
      <point x="175" y="82" type="curve" smooth="yes"/>
      <point x="162" y="82"/>
      <point x="116" y="83"/>
    </contour>
  </outline>
</glyph>
<glyph name="q" format="1">
  <advance width="445"/>
  <unicode hex="0071"/>
  <outline>
    <contour>
      <point x="194" y="695" type="move" name="top"/>
    </contour>
    <contour>
      <point x="39" y="204" type="curve" smooth="yes"/>
      <point x="39" y="106"/>
      <point x="101" y="-3"/>
      <point x="211" y="-3" type="curve" smooth="yes"/>
      <point x="254" y="-3"/>
      <point x="320" y="34"/>
      <point x="330" y="73" type="curve"/>
      <point x="329" y="-7" type="line"/>
      <point x="320" y="-183" type="line"/>
      <point x="320" y="-189" type="line" smooth="yes"/>
      <point x="320" y="-218"/>
      <point x="334" y="-225"/>
      <point x="356" y="-225" type="curve" smooth="yes"/>
      <point x="367" y="-225"/>
      <point x="391" y="-216"/>
      <point x="391" y="-187" type="curve" smooth="yes"/>
      <point x="391" y="-93" type="line" smooth="yes"/>
      <point x="391" y="76"/>
      <point x="398" y="173"/>
      <point x="398" y="264" type="curve" smooth="yes"/>
      <point x="398" y="384"/>
      <point x="292" y="448"/>
      <point x="222" y="448" type="curve" smooth="yes"/>
      <point x="117" y="448"/>
      <point x="39" y="341"/>
    </contour>
    <contour>
      <point x="219" y="87" type="curve" smooth="yes"/>
      <point x="136" y="87"/>
      <point x="101" y="157"/>
      <point x="101" y="215" type="curve" smooth="yes"/>
      <point x="101" y="304"/>
      <point x="163" y="362"/>
      <point x="233" y="362" type="curve" smooth="yes"/>
      <point x="271" y="362"/>
      <point x="314" y="335"/>
      <point x="333" y="285" type="curve"/>
      <point x="333" y="208"/>
      <point x="313" y="87"/>
    </contour>
  </outline>
</glyph>
<glyph name="t" format="1">
  <advance width="804"/>
  <unicode hex="0074"/>
  <outline>
    <contour>
      <point x="497" y="-10" type="curve" smooth="yes"/>
      <point x="567" y="-10"/>
      <point x="694" y="105"/>
      <point x="694" y="193" type="curve" smooth="yes"/>
      <point x="694" y="237"/>
      <point x="686" y="256"/>
      <point x="651" y="256" type="curve" smooth="yes"/>
      <point x="643" y="256"/>
      <point x="562" y="184"/>
      <point x="491" y="184" type="curve" smooth="yes"/>
      <point x="392" y="184"/>
      <point x="377" y="329"/>
      <point x="377" y="483" type="curve" smooth="yes"/>
      <point x="377" y="582"/>
      <point x="381" y="709"/>
      <point x="381" y="757" type="curve"/>
      <point x="689" y="753" type="line" smooth="yes"/>
      <point x="719" y="753"/>
      <point x="757" y="783"/>
      <point x="757" y="844" type="curve" smooth="yes"/>
      <point x="757" y="884"/>
      <point x="745" y="952"/>
      <point x="702" y="952" type="curve" smooth="yes"/>
      <point x="595" y="952"/>
      <point x="489" y="946"/>
      <point x="382" y="946" type="curve"/>
      <point x="391" y="987" type="line" smooth="yes"/>
      <point x="394" y="1020"/>
      <point x="406" y="1076"/>
      <point x="406" y="1204" type="curve" smooth="yes"/>
      <point x="406" y="1257"/>
      <point x="371" y="1297"/>
      <point x="346" y="1297" type="curve" smooth="yes"/>
      <point x="258" y="1297"/>
      <point x="250" y="1028"/>
      <point x="248" y="949" type="curve"/>
      <point x="205" y="952"/>
      <point x="167" y="955"/>
      <point x="130" y="955" type="curve" smooth="yes"/>
      <point x="88" y="955"/>
      <point x="45" y="907"/>
      <point x="45" y="849" type="curve" smooth="yes"/>
      <point x="45" y="788"/>
      <point x="105" y="753"/>
      <point x="130" y="753" type="curve" smooth="yes"/>
      <point x="173" y="753"/>
      <point x="205" y="757"/>
      <point x="238" y="757" type="curve"/>
      <point x="268" y="489"/>
      <point x="181" y="-10"/>
    </contour>
    <contour>
      <point x="400" y="-297" type="move" name="btm"/>
    </contour>
    <contour>
      <point x="364" y="1672" type="move" name="top"/>
    </contour>
  </outline>
</glyph>
<glyph name="u" format="1">
  <advance width="938"/>
  <unicode hex="0075"/>
  <outline>
    <contour>
      <point x="215" y="960" type="curve" smooth="yes"/>
      <point x="116" y="960"/>
      <point x="88" y="674"/>
      <point x="88" y="495" type="curve" smooth="yes"/>
      <point x="88" y="307"/>
      <point x="122" y="-29"/>
      <point x="421" y="-29" type="curve" smooth="yes"/>
      <point x="523" y="-29"/>
      <point x="643" y="81"/>
      <point x="678" y="232" type="curve"/>
      <point x="676" y="200"/>
      <point x="676" y="173"/>
      <point x="676" y="149" type="curve" smooth="yes"/>
      <point x="676" y="5"/>
      <point x="696" y="-10"/>
      <point x="751" y="-10" type="curve" smooth="yes"/>
      <point x="796" y="-10"/>
      <point x="814" y="8"/>
      <point x="815" y="85" type="curve" smooth="yes"/>
      <point x="831" y="881" type="line" smooth="yes"/>
      <point x="831" y="934"/>
      <point x="798" y="960"/>
      <point x="771" y="960" type="curve" smooth="yes"/>
      <point x="745" y="960"/>
      <point x="697" y="940"/>
      <point x="697" y="875" type="curve" smooth="yes"/>
      <point x="694" y="596" type="line" smooth="yes"/>
      <point x="691" y="535"/>
      <point x="688" y="446"/>
      <point x="681" y="352" type="curve"/>
      <point x="621" y="253"/>
      <point x="547" y="163"/>
      <point x="411" y="163" type="curve" smooth="yes"/>
      <point x="247" y="163"/>
      <point x="222" y="408"/>
      <point x="222" y="518" type="curve" smooth="yes"/>
      <point x="222" y="655"/>
      <point x="270" y="804"/>
      <point x="270" y="889" type="curve" smooth="yes"/>
      <point x="270" y="932"/>
      <point x="256" y="960"/>
    </contour>
    <contour>
      <point x="458" y="-297" type="move" name="btm"/>
    </contour>
    <contour>
      <point x="462" y="1515" type="move" name="top"/>
    </contour>
  </outline>
</glyph>
<glyph name="v" format="1">
  <advance width="417"/>
  <unicode hex="0076"/>
  <outline>
    <contour>
      <point x="195" y="695" type="move" name="top"/>
    </contour>
    <contour>
      <point x="176" y="-13" type="curve" smooth="yes"/>
      <point x="219" y="-13"/>
      <point x="294" y="160"/>
      <point x="332" y="248" type="curve"/>
      <point x="390" y="361"/>
      <point x="401" y="380"/>
      <point x="401" y="401" type="curve" smooth="yes"/>
      <point x="401" y="429"/>
      <point x="392" y="451"/>
      <point x="376" y="451" type="curve" smooth="yes"/>
      <point x="361" y="451"/>
      <point x="341" y="416"/>
      <point x="306" y="345" type="curve"/>
      <point x="217" y="140"/>
      <point x="197" y="107"/>
      <point x="189" y="98" type="curve"/>
      <point x="138" y="211"/>
      <point x="119" y="296"/>
      <point x="90" y="389" type="curve" smooth="yes"/>
      <point x="80" y="421"/>
      <point x="73" y="437"/>
      <point x="47" y="437" type="curve" smooth="yes"/>
      <point x="24" y="437"/>
      <point x="22" y="410"/>
      <point x="22" y="390" type="curve" smooth="yes"/>
      <point x="22" y="367"/>
      <point x="30" y="346"/>
      <point x="37" y="330" type="curve"/>
      <point x="83" y="164"/>
      <point x="136" y="-13"/>
    </contour>
  </outline>
</glyph>
<glyph name="w" format="1">
  <advance width="1402"/>
  <unicode hex="0077"/>
  <outline>
    <contour>
      <point x="1310" y="571" type="curve" smooth="yes"/>
      <point x="1310" y="681"/>
      <point x="1276" y="783"/>
      <point x="1276" y="881" type="curve"/>
      <point x="1268" y="968"/>
      <point x="1226" y="990"/>
      <point x="1201" y="990" type="curve" smooth="yes"/>
      <point x="1147" y="990"/>
      <point x="1123" y="940"/>
      <point x="1123" y="874" type="curve" smooth="yes"/>
      <point x="1123" y="836"/>
      <point x="1144" y="798"/>
      <point x="1154" y="773" type="curve"/>
      <point x="1181" y="697"/>
      <point x="1183" y="574"/>
      <point x="1183" y="525" type="curve" smooth="yes"/>
      <point x="1183" y="303"/>
      <point x="999" y="183"/>
      <point x="864" y="183" type="curve" smooth="yes"/>
      <point x="755" y="183"/>
      <point x="753" y="364"/>
      <point x="753" y="540" type="curve" smooth="yes"/>
      <point x="753" y="641" type="line" smooth="yes"/>
      <point x="753" y="775"/>
      <point x="750" y="885"/>
      <point x="688" y="885" type="curve" smooth="yes"/>
      <point x="625" y="885"/>
      <point x="598" y="802"/>
      <point x="598" y="760" type="curve" smooth="yes"/>
      <point x="598" y="679"/>
      <point x="610" y="525"/>
      <point x="610" y="508" type="curve" smooth="yes"/>
      <point x="607" y="334"/>
      <point x="491" y="150"/>
      <point x="381" y="139" type="curve"/>
      <point x="273" y="238"/>
      <point x="244" y="508"/>
      <point x="244" y="678" type="curve" smooth="yes"/>
      <point x="244" y="732"/>
      <point x="250" y="796"/>
      <point x="250" y="863" type="curve" smooth="yes"/>
      <point x="250" y="875" type="line" smooth="yes"/>
      <point x="250" y="930"/>
      <point x="238" y="960"/>
      <point x="198" y="960" type="curve" smooth="yes"/>
      <point x="165" y="960"/>
      <point x="103" y="891"/>
      <point x="103" y="647" type="curve" smooth="yes"/>
      <point x="103" y="544"/>
      <point x="105" y="-69"/>
      <point x="377" y="-69" type="curve" smooth="yes"/>
      <point x="478" y="-69"/>
      <point x="602" y="58"/>
      <point x="649" y="222" type="curve"/>
      <point x="686" y="67"/>
      <point x="765" y="-31"/>
      <point x="859" y="-31" type="curve" smooth="yes"/>
      <point x="1087" y="-31"/>
      <point x="1310" y="243"/>
    </contour>
    <contour>
      <point x="706" y="-297" type="move" name="btm"/>
    </contour>
    <contour>
      <point x="681" y="1515" type="move" name="top"/>
    </contour>
  </outline>
</glyph>
<glyph name="x" format="1">
  <advance width="371"/>
  <unicode hex="0078"/>
  <outline>
    <contour>
      <point x="178" y="695" type="move" name="top"/>
    </contour>
    <contour>
      <point x="34" y="38" type="curve" smooth="yes"/>
      <point x="34" y="0"/>
      <point x="53" y="-8"/>
      <point x="76" y="-8" type="curve" smooth="yes"/>
      <point x="97" y="-8"/>
      <point x="109" y="34"/>
      <point x="111" y="55" type="curve"/>
      <point x="161" y="126"/>
      <point x="166" y="131"/>
      <point x="169" y="138" type="curve"/>
      <point x="194" y="96"/>
      <point x="262" y="-11"/>
      <point x="320" y="-11" type="curve" smooth="yes"/>
      <point x="336" y="-11"/>
      <point x="355" y="2"/>
      <point x="355" y="47" type="curve" smooth="yes"/>
      <point x="355" y="68"/>
      <point x="346" y="82"/>
      <point x="327" y="82" type="curve" smooth="yes"/>
      <point x="285" y="82"/>
      <point x="229" y="180"/>
      <point x="215" y="214" type="curve"/>
      <point x="249" y="271"/>
      <point x="288" y="324"/>
      <point x="334" y="369" type="curve"/>
      <point x="348" y="387"/>
      <point x="354" y="397"/>
      <point x="354" y="408" type="curve" smooth="yes"/>
      <point x="354" y="429"/>
      <point x="346" y="447"/>
      <point x="324" y="447" type="curve" smooth="yes"/>
      <point x="290" y="447"/>
      <point x="235" y="357"/>
      <point x="183" y="271" type="curve"/>
      <point x="153" y="335" type="line" smooth="yes"/>
      <point x="129" y="386"/>
      <point x="100" y="445"/>
      <point x="84" y="445" type="curve" smooth="yes"/>
      <point x="64" y="445"/>
      <point x="53" y="425"/>
      <point x="53" y="406" type="curve" smooth="yes"/>
      <point x="53" y="389"/>
      <point x="58" y="361"/>
      <point x="69" y="348" type="curve"/>
      <point x="99" y="301"/>
      <point x="114" y="253"/>
      <point x="140" y="211" type="curve"/>
      <point x="108" y="165"/>
      <point x="80" y="129"/>
      <point x="56" y="93" type="curve" smooth="yes"/>
      <point x="47" y="80"/>
      <point x="34" y="66"/>
    </contour>
  </outline>
</glyph>
<glyph name="z" format="1">
  <advance width="829"/>
  <unicode hex="007A"/>
  <outline>
    <contour>
      <point x="497" y="755" type="curve" smooth="yes"/>
      <point x="515" y="755"/>
      <point x="525" y="755"/>
      <point x="528" y="753" type="curve"/>
      <point x="463" y="578"/>
      <point x="181" y="173"/>
      <point x="181" y="101" type="curve" smooth="yes"/>
      <point x="181" y="-8"/>
      <point x="274" y="-8"/>
      <point x="347" y="-8" type="curve" smooth="yes"/>
      <point x="443" y="-8"/>
      <point x="528" y="-2"/>
      <point x="612" y="-2" type="curve" smooth="yes"/>
      <point x="645" y="-2"/>
      <point x="674" y="-12"/>
      <point x="705" y="-12" type="curve" smooth="yes"/>
      <point x="760" y="-12"/>
      <point x="800" y="49"/>
      <point x="800" y="98" type="curve" smooth="yes"/>
      <point x="800" y="144"/>
      <point x="779" y="243"/>
      <point x="734" y="243" type="curve" smooth="yes"/>
      <point x="732" y="243"/>
      <point x="722" y="240"/>
      <point x="719" y="238" type="curve" smooth="yes"/>
      <point x="651" y="198"/>
      <point x="535" y="175"/>
      <point x="446" y="175" type="curve" smooth="yes"/>
      <point x="418" y="175"/>
      <point x="392" y="177"/>
      <point x="371" y="183" type="curve"/>
      <point x="562" y="518"/>
      <point x="652" y="645"/>
      <point x="689" y="822" type="curve"/>
      <point x="689" y="868"/>
      <point x="678" y="958"/>
      <point x="625" y="958" type="curve" smooth="yes"/>
      <point x="567" y="958"/>
      <point x="507" y="940"/>
      <point x="448" y="940" type="curve" smooth="yes"/>
      <point x="144" y="940" type="line" smooth="yes"/>
      <point x="105" y="940"/>
      <point x="91" y="864"/>
      <point x="91" y="825" type="curve" smooth="yes"/>
      <point x="91" y="729"/>
      <point x="139" y="736"/>
      <point x="189" y="736" type="curve" smooth="yes"/>
      <point x="293" y="736"/>
      <point x="392" y="755"/>
    </contour>
    <contour>
      <point x="446" y="-297" type="move" name="btm"/>
    </contour>
    <contour>
      <point x="436" y="1515" type="move" name="top"/>
    </contour>
  </outline>
</glyph>
<glyph name="braceleft" format="1">
  <advance width="278"/>
  <unicode hex="007B"/>
  <outline>
    <contour>
      <point x="98" y="4" type="curve" smooth="yes"/>
      <point x="98" y="-47"/>
      <point x="129" y="-75"/>
      <point x="193" y="-75" type="curve" smooth="yes"/>
      <point x="210" y="-75"/>
      <point x="230" y="-62"/>
      <point x="230" y="-32" type="curve" smooth="yes"/>
      <point x="230" y="30"/>
      <point x="166" y="-10"/>
      <point x="166" y="33" type="curve" smooth="yes"/>
      <point x="166" y="73"/>
      <point x="186" y="130"/>
      <point x="186" y="171" type="curve" smooth="yes"/>
      <point x="186" y="218"/>
      <point x="151" y="242"/>
      <point x="119" y="264" type="curve"/>
      <point x="144" y="289"/>
      <point x="185" y="299"/>
      <point x="185" y="348" type="curve" smooth="yes"/>
      <point x="185" y="383"/>
      <point x="171" y="444"/>
      <point x="171" y="481" type="curve" smooth="yes"/>
      <point x="171" y="488"/>
      <point x="172" y="494"/>
      <point x="173" y="499" type="curve"/>
      <point x="192" y="518"/>
      <point x="240" y="502"/>
      <point x="240" y="554" type="curve" smooth="yes"/>
      <point x="240" y="585"/>
      <point x="220" y="592"/>
      <point x="200" y="592" type="curve" smooth="yes"/>
      <point x="139" y="592"/>
      <point x="109" y="551"/>
      <point x="109" y="500" type="curve" smooth="yes"/>
      <point x="109" y="451"/>
      <point x="120" y="421"/>
      <point x="120" y="379" type="curve" smooth="yes"/>
      <point x="120" y="356"/>
      <point x="65" y="317"/>
      <point x="56" y="308" type="curve" smooth="yes"/>
      <point x="46" y="297"/>
      <point x="30" y="287"/>
      <point x="30" y="248" type="curve" smooth="yes"/>
      <point x="30" y="222"/>
      <point x="49" y="212"/>
      <point x="63" y="212" type="curve" smooth="yes"/>
      <point x="69" y="212"/>
      <point x="70" y="213"/>
      <point x="71" y="213" type="curve" smooth="yes"/>
      <point x="96" y="200"/>
      <point x="124" y="184"/>
      <point x="124" y="169" type="curve" smooth="yes"/>
      <point x="124" y="151"/>
      <point x="98" y="35"/>
    </contour>
  </outline>
</glyph>
<glyph name="braceright" format="1">
  <advance width="274"/>
  <unicode hex="007D"/>
  <outline>
    <contour>
      <point x="38" y="-39" type="curve" smooth="yes"/>
      <point x="38" y="-71"/>
      <point x="53" y="-75"/>
      <point x="71" y="-75" type="curve" smooth="yes"/>
      <point x="140" y="-75"/>
      <point x="169" y="-44"/>
      <point x="169" y="10" type="curve" smooth="yes"/>
      <point x="169" y="60"/>
      <point x="148" y="115"/>
      <point x="148" y="169" type="curve" smooth="yes"/>
      <point x="148" y="215"/>
      <point x="243" y="201"/>
      <point x="243" y="277" type="curve" smooth="yes"/>
      <point x="243" y="354"/>
      <point x="159" y="322"/>
      <point x="159" y="380" type="curve" smooth="yes"/>
      <point x="159" y="419"/>
      <point x="176" y="462"/>
      <point x="176" y="500" type="curve" smooth="yes"/>
      <point x="176" y="551"/>
      <point x="148" y="592"/>
      <point x="86" y="592" type="curve" smooth="yes"/>
      <point x="62" y="592"/>
      <point x="45" y="584"/>
      <point x="45" y="551" type="curve" smooth="yes"/>
      <point x="45" y="520"/>
      <point x="59" y="511"/>
      <point x="76" y="511" type="curve" smooth="yes"/>
      <point x="95" y="511" type="line" smooth="yes"/>
      <point x="106" y="511"/>
      <point x="110" y="501"/>
      <point x="110" y="491" type="curve" smooth="yes"/>
      <point x="110" y="453"/>
      <point x="102" y="393"/>
      <point x="102" y="361" type="curve" smooth="yes"/>
      <point x="102" y="325"/>
      <point x="128" y="298"/>
      <point x="151" y="285" type="curve"/>
      <point x="118" y="262"/>
      <point x="84" y="225"/>
      <point x="84" y="179" type="curve" smooth="yes"/>
      <point x="84" y="126"/>
      <point x="106" y="78"/>
      <point x="106" y="28" type="curve" smooth="yes"/>
      <point x="106" y="-17"/>
      <point x="38" y="22"/>
    </contour>
  </outline>
</glyph>
<glyph name="currency" format="1">
  <advance width="514"/>
  <unicode hex="00A4"/>
  <outline>
    <contour>
      <point x="41" y="-2" type="curve" smooth="yes"/>
      <point x="71" y="-2"/>
      <point x="131" y="79"/>
      <point x="145" y="95" type="curve"/>
      <point x="179" y="67"/>
      <point x="223" y="40"/>
      <point x="261" y="40" type="curve" smooth="yes"/>
      <point x="296" y="40"/>
      <point x="339" y="58"/>
      <point x="366" y="83" type="curve"/>
      <point x="392" y="45"/>
      <point x="442" y="-9"/>
      <point x="456" y="-9" type="curve" smooth="yes"/>
      <point x="476" y="-9"/>
      <point x="487" y="2"/>
      <point x="488" y="33" type="curve" smooth="yes"/>
      <point x="488" y="44" type="line" smooth="yes"/>
      <point x="488" y="61"/>
      <point x="445" y="114"/>
      <point x="419" y="146" type="curve"/>
      <point x="435" y="177"/>
      <point x="447" y="218"/>
      <point x="447" y="258" type="curve" smooth="yes"/>
      <point x="447" y="266" type="line" smooth="yes"/>
      <point x="447" y="320"/>
      <point x="437" y="368"/>
      <point x="421" y="402" type="curve"/>
      <point x="481" y="458"/>
      <point x="484" y="466"/>
      <point x="484" y="479" type="curve" smooth="yes"/>
      <point x="484" y="504"/>
      <point x="474" y="545"/>
      <point x="452" y="545" type="curve" smooth="yes"/>
      <point x="439" y="545"/>
      <point x="397" y="499"/>
      <point x="368" y="467" type="curve"/>
      <point x="344" y="489"/>
      <point x="299" y="497"/>
      <point x="272" y="497" type="curve" smooth="yes"/>
      <point x="238" y="497"/>
      <point x="170" y="481"/>
      <point x="152" y="456" type="curve"/>
      <point x="126" y="492"/>
      <point x="95" y="547"/>
      <point x="71" y="547" type="curve" smooth="yes"/>
      <point x="58" y="547"/>
      <point x="38" y="539"/>
      <point x="38" y="507" type="curve" smooth="yes"/>
      <point x="38" y="459"/>
      <point x="93" y="396"/>
      <point x="100" y="389" type="curve"/>
      <point x="86" y="357"/>
      <point x="75" y="311"/>
      <point x="75" y="268" type="curve" smooth="yes"/>
      <point x="75" y="237"/>
      <point x="84" y="199"/>
      <point x="96" y="170" type="curve"/>
      <point x="40" y="100"/>
      <point x="26" y="83"/>
      <point x="26" y="82" type="curve" smooth="yes"/>
      <point x="19" y="74"/>
      <point x="12" y="61"/>
      <point x="12" y="43" type="curve" smooth="yes"/>
      <point x="12" y="15"/>
      <point x="24" y="-2"/>
    </contour>
    <contour>
      <point x="256" y="126" type="curve" smooth="yes"/>
      <point x="186" y="126"/>
      <point x="135" y="214"/>
      <point x="135" y="274" type="curve" smooth="yes"/>
      <point x="135" y="365"/>
      <point x="212" y="411"/>
      <point x="283" y="411" type="curve" smooth="yes"/>
      <point x="346" y="411"/>
      <point x="389" y="350"/>
      <point x="389" y="265" type="curve" smooth="yes"/>
      <point x="389" y="178"/>
      <point x="322" y="126"/>
    </contour>
  </outline>
</glyph>
<glyph name="brokenbar" format="1">
  <advance width="274"/>
  <unicode hex="00A6"/>
  <outline>
    <contour>
      <point x="148" y="263" type="curve" smooth="yes"/>
      <point x="162" y="263"/>
      <point x="174" y="278"/>
      <point x="176" y="307" type="curve"/>
      <point x="185" y="615" type="line"/>
      <point x="185" y="638"/>
      <point x="175" y="656"/>
      <point x="155" y="656" type="curve" smooth="yes"/>
      <point x="119" y="656"/>
      <point x="113" y="564"/>
      <point x="108" y="305" type="curve" smooth="yes"/>
      <point x="107" y="278"/>
      <point x="123" y="263"/>
    </contour>
    <contour>
      <point x="105" y="-186" type="curve"/>
      <point x="103" y="-212"/>
      <point x="123" y="-226"/>
      <point x="148" y="-226" type="curve" smooth="yes"/>
      <point x="162" y="-226"/>
      <point x="176" y="-211"/>
      <point x="176" y="-182" type="curve" smooth="yes"/>
      <point x="172" y="127" type="line" smooth="yes"/>
      <point x="172" y="150"/>
      <point x="165" y="168"/>
      <point x="146" y="168" type="curve" smooth="yes"/>
      <point x="107" y="168"/>
      <point x="105" y="87"/>
    </contour>
  </outline>
</glyph>
<glyph name="dieresis" format="1">
  <advance width="879"/>
  <unicode hex="00A8"/>
  <outline>
    <contour>
      <point x="160" y="1314" type="curve" smooth="yes"/>
      <point x="160" y="1220"/>
      <point x="188" y="1167"/>
      <point x="256" y="1167" type="curve" smooth="yes"/>
      <point x="287" y="1167"/>
      <point x="342" y="1216"/>
      <point x="342" y="1330" type="curve" smooth="yes"/>
      <point x="342" y="1416"/>
      <point x="309" y="1457"/>
      <point x="277" y="1457" type="curve" smooth="yes"/>
      <point x="238" y="1457"/>
      <point x="160" y="1392"/>
    </contour>
    <contour>
      <point x="622" y="1455" type="curve" smooth="yes"/>
      <point x="562" y="1455"/>
      <point x="516" y="1371"/>
      <point x="516" y="1295" type="curve" smooth="yes"/>
      <point x="516" y="1220"/>
      <point x="553" y="1167"/>
      <point x="607" y="1167" type="curve" smooth="yes"/>
      <point x="649" y="1167"/>
      <point x="702" y="1242"/>
      <point x="702" y="1305" type="curve" smooth="yes"/>
      <point x="702" y="1359"/>
      <point x="685" y="1455"/>
    </contour>
    <contour>
      <point x="427" y="1429" type="move" name="_top"/>
    </contour>
  </outline>
</glyph>
<glyph name="copyright" format="1">
  <advance width="661"/>
  <unicode hex="00A9"/>
  <outline>
    <contour>
      <point x="324" y="0" type="curve" smooth="yes"/>
      <point x="459" y="0"/>
      <point x="596" y="179"/>
      <point x="596" y="382" type="curve" smooth="yes"/>
      <point x="596" y="602"/>
      <point x="497" y="747"/>
      <point x="343" y="747" type="curve" smooth="yes"/>
      <point x="205" y="747"/>
      <point x="65" y="610"/>
      <point x="65" y="357" type="curve" smooth="yes"/>
      <point x="65" y="218"/>
      <point x="123" y="0"/>
    </contour>
    <contour>
      <point x="318" y="85" type="curve" smooth="yes"/>
      <point x="175" y="85"/>
      <point x="120" y="221"/>
      <point x="120" y="390" type="curve" smooth="yes"/>
      <point x="120" y="581"/>
      <point x="205" y="671"/>
      <point x="357" y="671" type="curve" smooth="yes"/>
      <point x="478" y="671"/>
      <point x="531" y="558"/>
      <point x="531" y="383" type="curve" smooth="yes"/>
      <point x="531" y="192"/>
      <point x="448" y="85"/>
    </contour>
    <contour>
      <point x="325" y="211" type="curve" smooth="yes"/>
      <point x="372" y="211"/>
      <point x="429" y="235"/>
      <point x="429" y="289" type="curve" smooth="yes"/>
      <point x="429" y="309"/>
      <point x="416" y="331"/>
      <point x="401" y="331" type="curve" smooth="yes"/>
      <point x="392" y="331"/>
      <point x="370" y="303"/>
      <point x="340" y="303" type="curve" smooth="yes"/>
      <point x="287" y="304"/>
      <point x="261" y="326"/>
      <point x="261" y="363" type="curve" smooth="yes"/>
      <point x="261" y="396"/>
      <point x="282" y="471"/>
      <point x="336" y="471" type="curve" smooth="yes"/>
      <point x="351" y="471"/>
      <point x="377" y="468"/>
      <point x="377" y="462" type="curve" smooth="yes"/>
      <point x="377" y="454" type="line" smooth="yes"/>
      <point x="377" y="428"/>
      <point x="378" y="399"/>
      <point x="403" y="399" type="curve" smooth="yes"/>
      <point x="428" y="399"/>
      <point x="432" y="434"/>
      <point x="432" y="451" type="curve" smooth="yes"/>
      <point x="432" y="522"/>
      <point x="382" y="557"/>
      <point x="333" y="557" type="curve" smooth="yes"/>
      <point x="279" y="557"/>
      <point x="239" y="505"/>
      <point x="222" y="441" type="curve" smooth="yes"/>
      <point x="215" y="413"/>
      <point x="202" y="393"/>
      <point x="204" y="357" type="curve"/>
      <point x="204" y="246"/>
      <point x="261" y="211"/>
    </contour>
  </outline>
</glyph>
<glyph name="ordfeminine" format="1">
  <advance width="1109"/>
  <unicode hex="00AA"/>
  <outline>
    <contour>
      <point x="431" y="1266" type="curve" smooth="yes"/>
      <point x="517" y="1266"/>
      <point x="629" y="1264"/>
      <point x="629" y="1133" type="curve" smooth="yes"/>
      <point x="626" y="905" type="line"/>
      <point x="753" y="697" type="line"/>
      <point x="755" y="1146" type="line" smooth="yes"/>
      <point x="755" y="1347"/>
      <point x="633" y="1449"/>
      <point x="468" y="1449" type="curve" smooth="yes"/>
      <point x="374" y="1449"/>
      <point x="183" y="1431"/>
      <point x="183" y="1317" type="curve" smooth="yes"/>
      <point x="183" y="1238"/>
      <point x="203" y="1213"/>
      <point x="256" y="1213" type="curve" smooth="yes"/>
      <point x="283" y="1213"/>
      <point x="303" y="1237"/>
      <point x="322" y="1247" type="curve" smooth="yes"/>
      <point x="349" y="1264"/>
      <point x="382" y="1266"/>
    </contour>
    <contour>
      <point x="771" y="621" type="curve" smooth="yes"/>
      <point x="831" y="621"/>
      <point x="894" y="678"/>
      <point x="894" y="750" type="curve" smooth="yes"/>
      <point x="894" y="814"/>
      <point x="875" y="841"/>
      <point x="834" y="841" type="curve" smooth="yes"/>
      <point x="812" y="841"/>
      <point x="792" y="815"/>
      <point x="790" y="805" type="curve"/>
      <point x="760" y="805"/>
      <point x="753" y="820"/>
      <point x="753" y="860" type="curve" smooth="yes"/>
      <point x="753" y="1020"/>
      <point x="641" y="1132"/>
      <point x="458" y="1132" type="curve" smooth="yes"/>
      <point x="256" y="1132"/>
      <point x="184" y="1033"/>
      <point x="184" y="859" type="curve" smooth="yes"/>
      <point x="184" y="712"/>
      <point x="274" y="607"/>
      <point x="421" y="607" type="curve" smooth="yes"/>
      <point x="515" y="607"/>
      <point x="574" y="641"/>
      <point x="633" y="706" type="curve"/>
      <point x="666" y="661"/>
      <point x="716" y="621"/>
    </contour>
    <contour>
      <point x="319" y="868" type="curve" smooth="yes"/>
      <point x="322" y="930"/>
      <point x="378" y="952"/>
      <point x="468" y="952" type="curve" smooth="yes"/>
      <point x="533" y="952"/>
      <point x="598" y="934"/>
      <point x="619" y="891" type="curve"/>
      <point x="605" y="863"/>
      <point x="555" y="777"/>
      <point x="436" y="777" type="curve" smooth="yes"/>
      <point x="363" y="777"/>
      <point x="319" y="829"/>
    </contour>
    <contour>
      <point x="517" y="421" type="curve" smooth="yes"/>
      <point x="454" y="421"/>
      <point x="406" y="378"/>
      <point x="406" y="283" type="curve" smooth="yes"/>
      <point x="406" y="195"/>
      <point x="473" y="181"/>
      <point x="528" y="181" type="curve" smooth="yes"/>
      <point x="582" y="181"/>
      <point x="641" y="258"/>
      <point x="641" y="301" type="curve" smooth="yes"/>
      <point x="641" y="381"/>
      <point x="552" y="421"/>
    </contour>
    <contour>
      <point x="311" y="1649" type="move" name="top"/>
    </contour>
  </outline>
</glyph>
<glyph name="guillemotleft" format="1">
  <advance width="628"/>
  <unicode hex="00AB"/>
  <outline>
    <contour>
      <point x="142" y="656" type="move" name="_top"/>
    </contour>
    <component base="guilsinglleft"/>
    <component base="guilsinglleft" xOffset="225" yOffset="10"/>
  </outline>
</glyph>
<glyph name="registered" format="1">
  <advance width="661"/>
  <unicode hex="00AE"/>
  <outline>
    <contour>
      <point x="324" y="0" type="curve" smooth="yes"/>
      <point x="459" y="0"/>
      <point x="596" y="179"/>
      <point x="596" y="382" type="curve" smooth="yes"/>
      <point x="596" y="602"/>
      <point x="497" y="747"/>
      <point x="343" y="747" type="curve" smooth="yes"/>
      <point x="205" y="747"/>
      <point x="65" y="610"/>
      <point x="65" y="357" type="curve" smooth="yes"/>
      <point x="65" y="218"/>
      <point x="123" y="0"/>
    </contour>
    <contour>
      <point x="318" y="85" type="curve" smooth="yes"/>
      <point x="175" y="85"/>
      <point x="120" y="221"/>
      <point x="120" y="390" type="curve" smooth="yes"/>
      <point x="120" y="581"/>
      <point x="205" y="671"/>
      <point x="357" y="671" type="curve" smooth="yes"/>
      <point x="478" y="671"/>
      <point x="531" y="558"/>
      <point x="531" y="383" type="curve" smooth="yes"/>
      <point x="531" y="192"/>
      <point x="448" y="85"/>
    </contour>
    <contour>
      <point x="251" y="224" type="curve" smooth="yes"/>
      <point x="269" y="224"/>
      <point x="284" y="240"/>
      <point x="285" y="272" type="curve" smooth="yes"/>
      <point x="285" y="296"/>
      <point x="279" y="318"/>
      <point x="277" y="340" type="curve"/>
      <point x="299" y="348"/>
      <point x="328" y="353"/>
      <point x="330" y="353" type="curve" smooth="yes"/>
      <point x="368" y="353"/>
      <point x="398" y="342"/>
      <point x="398" y="307" type="curve" smooth="yes"/>
      <point x="398" y="298"/>
      <point x="396" y="289"/>
      <point x="396" y="282" type="curve" smooth="yes"/>
      <point x="396" y="250"/>
      <point x="401" y="227"/>
      <point x="428" y="227" type="curve" smooth="yes"/>
      <point x="439" y="227"/>
      <point x="458" y="251"/>
      <point x="458" y="283" type="curve" smooth="yes"/>
      <point x="458" y="351"/>
      <point x="436" y="407"/>
      <point x="390" y="411" type="curve"/>
      <point x="420" y="416"/>
      <point x="443" y="439"/>
      <point x="443" y="468" type="curve" smooth="yes"/>
      <point x="443" y="536"/>
      <point x="378" y="569"/>
      <point x="338" y="569" type="curve" smooth="yes"/>
      <point x="299" y="569"/>
      <point x="259" y="552"/>
      <point x="233" y="518" type="curve" smooth="yes"/>
      <point x="211" y="488"/>
      <point x="215" y="453"/>
      <point x="215" y="418" type="curve" smooth="yes"/>
      <point x="215" y="381"/>
      <point x="221" y="346"/>
      <point x="221" y="309" type="curve" smooth="yes"/>
      <point x="221" y="292"/>
      <point x="221" y="289"/>
      <point x="220" y="270" type="curve" smooth="yes"/>
      <point x="220" y="255"/>
      <point x="234" y="224"/>
    </contour>
    <contour>
      <point x="271" y="416" type="curve"/>
      <point x="272" y="453" type="line" smooth="yes"/>
      <point x="272" y="471"/>
      <point x="311" y="487"/>
      <point x="337" y="487" type="curve" smooth="yes"/>
      <point x="350" y="487"/>
      <point x="383" y="479"/>
      <point x="383" y="463" type="curve" smooth="yes"/>
      <point x="383" y="447"/>
      <point x="309" y="427"/>
    </contour>
  </outline>
</glyph>
<glyph name="degree" format="1">
  <advance width="321"/>
  <unicode hex="00B0"/>
  <outline>
    <contour>
      <point x="146" y="656" type="move" name="_top"/>
    </contour>
    <contour>
      <point x="175" y="257" type="curve" smooth="yes"/>
      <point x="256" y="257"/>
      <point x="307" y="372"/>
      <point x="307" y="457" type="curve" smooth="yes"/>
      <point x="307" y="572"/>
      <point x="202" y="583"/>
      <point x="168" y="583" type="curve" smooth="yes"/>
      <point x="91" y="583"/>
      <point x="45" y="474"/>
      <point x="45" y="415" type="curve" smooth="yes"/>
      <point x="45" y="317"/>
      <point x="86" y="257"/>
    </contour>
    <contour>
      <point x="187" y="345" type="curve" smooth="yes"/>
      <point x="135" y="345"/>
      <point x="109" y="372"/>
      <point x="109" y="419" type="curve" smooth="yes"/>
      <point x="109" y="453"/>
      <point x="136" y="503"/>
      <point x="162" y="503" type="curve" smooth="yes"/>
      <point x="192" y="503"/>
      <point x="250" y="482"/>
      <point x="250" y="455" type="curve" smooth="yes"/>
      <point x="250" y="418"/>
      <point x="217" y="345"/>
    </contour>
  </outline>
</glyph>
<glyph name="two.superior" format="1">
  <advance width="364"/>
  <unicode hex="00B2"/>
  <outline>
    <contour>
      <point x="148" y="216" type="curve" smooth="yes"/>
      <point x="178" y="216"/>
      <point x="206" y="218"/>
      <point x="236" y="218" type="curve" smooth="yes"/>
      <point x="249" y="218"/>
      <point x="261" y="212"/>
      <point x="276" y="212" type="curve" smooth="yes"/>
      <point x="302" y="212"/>
      <point x="319" y="239"/>
      <point x="319" y="263" type="curve" smooth="yes"/>
      <point x="319" y="303"/>
      <point x="304" y="315"/>
      <point x="283" y="315" type="curve" smooth="yes"/>
      <point x="258" y="315"/>
      <point x="224" y="299"/>
      <point x="193" y="299" type="curve" smooth="yes"/>
      <point x="176" y="299"/>
      <point x="162" y="299"/>
      <point x="159" y="301" type="curve"/>
      <point x="204" y="385"/>
      <point x="278" y="494"/>
      <point x="278" y="559" type="curve" smooth="yes"/>
      <point x="278" y="616"/>
      <point x="240" y="652"/>
      <point x="167" y="652" type="curve" smooth="yes"/>
      <point x="101" y="652"/>
      <point x="49" y="621"/>
      <point x="49" y="564" type="curve" smooth="yes"/>
      <point x="49" y="527"/>
      <point x="58" y="519"/>
      <point x="76" y="519" type="curve" smooth="yes"/>
      <point x="110" y="519"/>
      <point x="117" y="566"/>
      <point x="157" y="566" type="curve" smooth="yes"/>
      <point x="195" y="566"/>
      <point x="206" y="556"/>
      <point x="206" y="545" type="curve" smooth="yes"/>
      <point x="206" y="516"/>
      <point x="129" y="379"/>
      <point x="110" y="349" type="curve" smooth="yes"/>
      <point x="94" y="323"/>
      <point x="71" y="281"/>
      <point x="71" y="265" type="curve" smooth="yes"/>
      <point x="71" y="216"/>
      <point x="114" y="216"/>
    </contour>
  </outline>
</glyph>
<glyph name="three.superior" format="1">
  <advance width="356"/>
  <unicode hex="00B3"/>
  <outline>
    <contour>
      <point x="67" y="210" type="curve" smooth="yes"/>
      <point x="220" y="210"/>
      <point x="309" y="221"/>
      <point x="309" y="356" type="curve" smooth="yes"/>
      <point x="309" y="405"/>
      <point x="280" y="441"/>
      <point x="253" y="459" type="curve"/>
      <point x="277" y="493"/>
      <point x="299" y="544"/>
      <point x="299" y="567" type="curve" smooth="yes"/>
      <point x="299" y="626"/>
      <point x="270" y="651"/>
      <point x="219" y="651" type="curve" smooth="yes"/>
      <point x="183" y="651"/>
      <point x="82" y="630"/>
      <point x="82" y="566" type="curve" smooth="yes"/>
      <point x="82" y="547"/>
      <point x="100" y="529"/>
      <point x="114" y="529" type="curve"/>
      <point x="131" y="539"/>
      <point x="199" y="569"/>
      <point x="226" y="569" type="curve" smooth="yes"/>
      <point x="230" y="569"/>
      <point x="233" y="568"/>
      <point x="235" y="567" type="curve"/>
      <point x="233" y="538"/>
      <point x="202" y="500"/>
      <point x="176" y="478" type="curve"/>
      <point x="143" y="470"/>
      <point x="103" y="459"/>
      <point x="103" y="409" type="curve" smooth="yes"/>
      <point x="103" y="382"/>
      <point x="115" y="370"/>
      <point x="140" y="370" type="curve" smooth="yes"/>
      <point x="157" y="370"/>
      <point x="172" y="383"/>
      <point x="188" y="383" type="curve" smooth="yes"/>
      <point x="218" y="383"/>
      <point x="246" y="377"/>
      <point x="246" y="351" type="curve" smooth="yes"/>
      <point x="246" y="296"/>
      <point x="178" y="292"/>
      <point x="128" y="292" type="curve" smooth="yes"/>
      <point x="91" y="292"/>
      <point x="95" y="312"/>
      <point x="63" y="312" type="curve" smooth="yes"/>
      <point x="44" y="312"/>
      <point x="38" y="267"/>
      <point x="38" y="252" type="curve" smooth="yes"/>
      <point x="38" y="233"/>
      <point x="45" y="210"/>
    </contour>
  </outline>
</glyph>
<glyph name="acute" format="1">
  <advance width="547"/>
  <unicode hex="00B4"/>
  <outline>
    <contour>
      <point x="165" y="1069" type="curve" smooth="yes"/>
      <point x="251" y="1069"/>
      <point x="475" y="1377"/>
      <point x="475" y="1420" type="curve" smooth="yes"/>
      <point x="475" y="1480"/>
      <point x="442" y="1513"/>
      <point x="402" y="1513" type="curve" smooth="yes"/>
      <point x="318" y="1513"/>
      <point x="242" y="1332"/>
      <point x="172" y="1264" type="curve" smooth="yes"/>
      <point x="142" y="1238"/>
      <point x="115" y="1214"/>
      <point x="115" y="1163" type="curve" smooth="yes"/>
      <point x="115" y="1134" type="line" smooth="yes"/>
      <point x="115" y="1093"/>
      <point x="123" y="1069"/>
    </contour>
    <contour>
      <point x="144" y="1516" type="move" name="_top"/>
    </contour>
  </outline>
</glyph>
<glyph name="mu" format="1">
  <advance width="447"/>
  <unicode hex="00B5"/>
  <outline>
    <contour>
      <point x="96" y="46" type="curve"/>
      <point x="122" y="11"/>
      <point x="166" y="-2"/>
      <point x="206" y="-2" type="curve" smooth="yes"/>
      <point x="248" y="-2"/>
      <point x="302" y="36"/>
      <point x="323" y="80" type="curve"/>
      <point x="324" y="37"/>
      <point x="329" y="11"/>
      <point x="359" y="11" type="curve" smooth="yes"/>
      <point x="379" y="11"/>
      <point x="386" y="19"/>
      <point x="387" y="55" type="curve" smooth="yes"/>
      <point x="394" y="418" type="line" smooth="yes"/>
      <point x="394" y="443"/>
      <point x="377" y="454"/>
      <point x="368" y="454" type="curve" smooth="yes"/>
      <point x="355" y="454"/>
      <point x="335" y="446"/>
      <point x="335" y="415" type="curve" smooth="yes"/>
      <point x="333" y="294" type="line" smooth="yes"/>
      <point x="332" y="268"/>
      <point x="332" y="233"/>
      <point x="323" y="186" type="curve"/>
      <point x="303" y="151"/>
      <point x="263" y="86"/>
      <point x="202" y="86" type="curve" smooth="yes"/>
      <point x="123" y="86"/>
      <point x="116" y="210"/>
      <point x="116" y="258" type="curve" smooth="yes"/>
      <point x="116" y="301"/>
      <point x="132" y="365"/>
      <point x="132" y="405" type="curve" smooth="yes"/>
      <point x="132" y="428"/>
      <point x="127" y="444"/>
      <point x="110" y="444" type="curve" smooth="yes"/>
      <point x="62" y="444"/>
      <point x="54" y="317"/>
      <point x="54" y="246" type="curve" smooth="yes"/>
      <point x="54" y="227"/>
      <point x="54" y="174"/>
      <point x="56" y="136" type="curve"/>
      <point x="53" y="-130" type="line" smooth="yes"/>
      <point x="53" y="-149"/>
      <point x="62" y="-175"/>
      <point x="81" y="-175" type="curve" smooth="yes"/>
      <point x="106" y="-175"/>
      <point x="113" y="-139"/>
      <point x="113" y="-98" type="curve" smooth="yes"/>
      <point x="113" y="-72"/>
      <point x="96" y="24"/>
    </contour>
  </outline>
</glyph>
<glyph name="paragraph" format="1">
  <advance width="522"/>
  <unicode hex="00B6"/>
  <outline>
    <contour>
      <point x="221" y="-37" type="curve" smooth="yes"/>
      <point x="221" y="-68"/>
      <point x="233" y="-83"/>
      <point x="252" y="-83" type="curve" smooth="yes"/>
      <point x="288" y="-83"/>
      <point x="298" y="-36"/>
      <point x="305" y="8" type="curve" smooth="yes"/>
      <point x="309" y="29"/>
      <point x="312" y="70"/>
      <point x="329" y="452" type="curve"/>
      <point x="347" y="444"/>
      <point x="382" y="433"/>
      <point x="384" y="420" type="curve"/>
      <point x="376" y="94" type="line"/>
      <point x="370" y="-1"/>
      <point x="368" y="-13"/>
      <point x="368" y="-25" type="curve" smooth="yes"/>
      <point x="368" y="-53"/>
      <point x="382" y="-66"/>
      <point x="398" y="-66" type="curve" smooth="yes"/>
      <point x="418" y="-66"/>
      <point x="434" y="-53"/>
      <point x="435" y="-5" type="curve" smooth="yes"/>
      <point x="444" y="459" type="line" smooth="yes"/>
      <point x="445" y="497"/>
      <point x="429" y="515"/>
      <point x="412" y="515" type="curve" smooth="yes"/>
      <point x="410" y="515"/>
      <point x="401" y="512"/>
      <point x="396" y="510" type="curve"/>
      <point x="375" y="520"/>
      <point x="340" y="530"/>
      <point x="326" y="538" type="curve"/>
      <point x="321" y="554"/>
      <point x="312" y="563"/>
      <point x="298" y="563" type="curve" smooth="yes"/>
      <point x="289" y="563"/>
      <point x="282" y="558"/>
      <point x="276" y="551" type="curve"/>
      <point x="134" y="548"/>
      <point x="61" y="464"/>
      <point x="61" y="350" type="curve" smooth="yes"/>
      <point x="61" y="203"/>
      <point x="131" y="125"/>
      <point x="254" y="111" type="curve"/>
      <point x="253" y="86"/>
      <point x="248" y="51"/>
      <point x="244" y="29" type="curve"/>
      <point x="229" y="5"/>
      <point x="221" y="-17"/>
    </contour>
    <contour>
      <point x="260" y="202" type="line"/>
      <point x="186" y="214"/>
      <point x="126" y="255"/>
      <point x="126" y="343" type="curve" smooth="yes"/>
      <point x="126" y="418"/>
      <point x="180" y="457"/>
      <point x="265" y="461" type="curve"/>
    </contour>
  </outline>
</glyph>
<glyph name="periodcentered" format="1">
  <advance width="229"/>
  <unicode hex="00B7"/>
  <outline>
    <contour>
      <point x="127" y="237" type="curve" smooth="yes"/>
      <point x="148" y="237"/>
      <point x="171" y="267"/>
      <point x="171" y="298" type="curve" smooth="yes"/>
      <point x="171" y="325"/>
      <point x="150" y="361"/>
      <point x="129" y="361" type="curve" smooth="yes"/>
      <point x="99" y="361"/>
      <point x="85" y="333"/>
      <point x="85" y="298" type="curve" smooth="yes"/>
      <point x="85" y="257"/>
      <point x="97" y="237"/>
    </contour>
  </outline>
</glyph>
<glyph name="cedilla" format="1">
  <advance width="253"/>
  <unicode hex="00B8"/>
  <outline>
    <contour>
      <point x="128" y="695" type="move" name="_top"/>
    </contour>
    <contour>
      <point x="101" y="-19" type="curve" smooth="yes"/>
      <point x="101" y="-83"/>
      <point x="149" y="-122"/>
      <point x="149" y="-133" type="curve" smooth="yes"/>
      <point x="149" y="-144"/>
      <point x="137" y="-145"/>
      <point x="124" y="-145" type="curve" smooth="yes"/>
      <point x="90" y="-145"/>
      <point x="70" y="-124"/>
      <point x="49" y="-114" type="curve"/>
      <point x="38" y="-114"/>
      <point x="25" y="-130"/>
      <point x="25" y="-157" type="curve" smooth="yes"/>
      <point x="25" y="-211"/>
      <point x="98" y="-227"/>
      <point x="120" y="-227" type="curve" smooth="yes"/>
      <point x="169" y="-227"/>
      <point x="207" y="-209"/>
      <point x="207" y="-129" type="curve" smooth="yes"/>
      <point x="207" y="-72"/>
      <point x="158" y="-47"/>
      <point x="152" y="-12" type="curve"/>
      <point x="156" y="6" type="line" smooth="yes"/>
      <point x="156" y="8"/>
      <point x="157" y="10"/>
      <point x="157" y="13" type="curve" smooth="yes"/>
      <point x="157" y="20"/>
      <point x="154" y="45"/>
      <point x="133" y="45" type="curve" smooth="yes"/>
      <point x="105" y="45"/>
      <point x="101" y="-1"/>
    </contour>
  </outline>
</glyph>
<glyph name="onehalf" format="1">
  <advance width="1543"/>
  <unicode hex="00BD"/>
  <outline>
    <contour>
      <point x="1063" y="-239"/>
      <point x="1199" y="-224"/>
      <point x="1294" y="-224" type="curve" smooth="yes"/>
      <point x="1317" y="-224"/>
      <point x="1345" y="-229"/>
      <point x="1364" y="-229" type="curve" smooth="yes"/>
      <point x="1362" y="-229"/>
      <point x="1487" y="-247"/>
      <point x="1487" y="-162" type="curve" smooth="yes"/>
      <point x="1487" y="-107"/>
      <point x="1451" y="-35"/>
      <point x="1422" y="-32" type="curve"/>
      <point x="1417" y="-38"/>
      <point x="1401" y="-40"/>
      <point x="1397" y="-40" type="curve"/>
      <point x="1349" y="-52"/>
      <point x="1135" y="-67"/>
      <point x="1102" y="-50" type="curve"/>
      <point x="1228" y="127"/>
      <point x="1446" y="378"/>
      <point x="1446" y="593" type="curve" smooth="yes"/>
      <point x="1446" y="736"/>
      <point x="1304" y="825"/>
      <point x="1196" y="825" type="curve" smooth="yes"/>
      <point x="1109" y="825"/>
      <point x="923" y="775"/>
      <point x="918" y="614" type="curve" smooth="yes"/>
      <point x="918" y="597"/>
      <point x="957" y="519"/>
      <point x="995" y="519" type="curve" smooth="yes"/>
      <point x="1059" y="519"/>
      <point x="1018" y="635"/>
      <point x="1167" y="635" type="curve" smooth="yes"/>
      <point x="1226" y="635"/>
      <point x="1296" y="611"/>
      <point x="1296" y="493" type="curve" smooth="yes"/>
      <point x="1296" y="378"/>
      <point x="1111" y="169"/>
      <point x="1008" y="28" type="curve" smooth="yes"/>
      <point x="965" y="-31"/>
      <point x="914" y="-70"/>
      <point x="914" y="-173" type="curve" smooth="yes"/>
      <point x="914" y="-211"/>
      <point x="945" y="-239"/>
      <point x="968" y="-239" type="curve" smooth="yes"/>
    </contour>
    <contour>
      <point x="23" y="1370"/>
      <point x="146" y="1419"/>
      <point x="161" y="1384" type="curve"/>
      <point x="154" y="1107"/>
      <point x="116" y="1041"/>
      <point x="116" y="821" type="curve"/>
      <point x="116" y="688"/>
      <point x="129" y="588"/>
      <point x="215" y="588" type="curve" smooth="yes"/>
      <point x="251" y="588"/>
      <point x="304" y="633"/>
      <point x="304" y="692" type="curve" smooth="yes"/>
      <point x="304" y="736"/>
      <point x="300" y="796"/>
      <point x="293" y="843" type="curve"/>
      <point x="291" y="1195"/>
      <point x="327" y="1234"/>
      <point x="335" y="1516" type="curve"/>
      <point x="335" y="1603"/>
      <point x="237" y="1636"/>
      <point x="215" y="1636" type="curve" smooth="yes"/>
      <point x="177" y="1636"/>
      <point x="23" y="1493"/>
      <point x="23" y="1435" type="curve" smooth="yes"/>
    </contour>
    <component base="fraction" xOffset="528" yOffset="-43"/>
  </outline>
</glyph>
<glyph name="Ccedilla" format="1">
  <advance width="464"/>
  <unicode hex="00C7"/>
  <outline>
    <contour>
      <point x="200" y="-57" type="curve" smooth="yes"/>
      <point x="200" y="-121"/>
      <point x="248" y="-160"/>
      <point x="248" y="-171" type="curve" smooth="yes"/>
      <point x="248" y="-182"/>
      <point x="236" y="-183"/>
      <point x="223" y="-183" type="curve" smooth="yes"/>
      <point x="189" y="-183"/>
      <point x="169" y="-162"/>
      <point x="148" y="-152" type="curve"/>
      <point x="137" y="-152"/>
      <point x="124" y="-168"/>
      <point x="124" y="-195" type="curve" smooth="yes"/>
      <point x="124" y="-249"/>
      <point x="197" y="-265"/>
      <point x="219" y="-265" type="curve" smooth="yes"/>
      <point x="268" y="-265"/>
      <point x="306" y="-247"/>
      <point x="306" y="-167" type="curve" smooth="yes"/>
      <point x="306" y="-110"/>
      <point x="257" y="-85"/>
      <point x="251" y="-50" type="curve"/>
      <point x="255" y="-32" type="line" smooth="yes"/>
      <point x="255" y="-30"/>
      <point x="256" y="-28"/>
      <point x="256" y="-25" type="curve" smooth="yes"/>
      <point x="256" y="-21"/>
      <point x="255" y="-14"/>
      <point x="252" y="-7" type="curve"/>
      <point x="328" y="-7"/>
      <point x="450" y="14"/>
      <point x="450" y="84" type="curve" smooth="yes"/>
      <point x="450" y="110"/>
      <point x="437" y="130"/>
      <point x="418" y="130" type="curve" smooth="yes"/>
      <point x="412" y="130"/>
      <point x="402" y="121"/>
      <point x="381" y="102" type="curve"/>
      <point x="345" y="86"/>
      <point x="279" y="80"/>
      <point x="244" y="80" type="curve" smooth="yes"/>
      <point x="173" y="80"/>
      <point x="100" y="127"/>
      <point x="100" y="211" type="curve" smooth="yes"/>
      <point x="100" y="281"/>
      <point x="146" y="477"/>
      <point x="259" y="477" type="curve" smooth="yes"/>
      <point x="394" y="477"/>
      <point x="316" y="340"/>
      <point x="372" y="340" type="curve" smooth="yes"/>
      <point x="400" y="340"/>
      <point x="412" y="384"/>
      <point x="412" y="407" type="curve" smooth="yes"/>
      <point x="412" y="509"/>
      <point x="334" y="563"/>
      <point x="258" y="563" type="curve" smooth="yes"/>
      <point x="173" y="563"/>
      <point x="96" y="462"/>
      <point x="72" y="393" type="curve" smooth="yes"/>
      <point x="51" y="334"/>
      <point x="34" y="273"/>
      <point x="34" y="210" type="curve" smooth="yes"/>
      <point x="34" y="55"/>
      <point x="121" y="5"/>
      <point x="211" y="-5" type="curve"/>
      <point x="201" y="-20"/>
      <point x="200" y="-45"/>
    </contour>
  </outline>
</glyph>
<glyph name="multiply" format="1">
  <advance width="390"/>
  <unicode hex="00D7"/>
  <outline>
    <contour>
      <point x="100" y="83" type="curve" smooth="yes"/>
      <point x="110" y="83"/>
      <point x="127" y="99"/>
      <point x="157" y="140" type="curve"/>
      <point x="196" y="197" type="line"/>
      <point x="250" y="123" type="line"/>
      <point x="262" y="110"/>
      <point x="274" y="94"/>
      <point x="287" y="94" type="curve" smooth="yes"/>
      <point x="298" y="94"/>
      <point x="325" y="104"/>
      <point x="325" y="149" type="curve" smooth="yes"/>
      <point x="325" y="180"/>
      <point x="298" y="197"/>
      <point x="289" y="201" type="curve"/>
      <point x="272" y="215"/>
      <point x="254" y="236"/>
      <point x="240" y="252" type="curve"/>
      <point x="256" y="272" type="line"/>
      <point x="282" y="300"/>
      <point x="325" y="327"/>
      <point x="325" y="366" type="curve" smooth="yes"/>
      <point x="325" y="388"/>
      <point x="298" y="407"/>
      <point x="289" y="407" type="curve" smooth="yes"/>
      <point x="277" y="406"/>
      <point x="261" y="391"/>
      <point x="249" y="374" type="curve" smooth="yes"/>
      <point x="198" y="301" type="line"/>
      <point x="149" y="383" type="line"/>
      <point x="140" y="402"/>
      <point x="120" y="414"/>
      <point x="108" y="414" type="curve" smooth="yes"/>
      <point x="96" y="414"/>
      <point x="74" y="402"/>
      <point x="74" y="369" type="curve" smooth="yes"/>
      <point x="74" y="356"/>
      <point x="76" y="345"/>
      <point x="81" y="338" type="curve" smooth="yes"/>
      <point x="152" y="246" type="line"/>
      <point x="112" y="208" type="line" smooth="yes"/>
      <point x="85" y="182"/>
      <point x="65" y="149"/>
      <point x="65" y="131" type="curve" smooth="yes"/>
      <point x="65" y="104"/>
      <point x="82" y="83"/>
    </contour>
  </outline>
</glyph>
<glyph name="Oslash" format="1">
  <advance width="544"/>
  <unicode hex="00D8"/>
  <outline>
    <contour>
      <point x="69" y="22" type="curve" smooth="yes"/>
      <point x="69" y="-3"/>
      <point x="98" y="-30"/>
      <point x="109" y="-30" type="curve" smooth="yes"/>
      <point x="125" y="-30"/>
      <point x="144" y="0"/>
      <point x="155" y="23" type="curve"/>
      <point x="187" y="7"/>
      <point x="234" y="-10"/>
      <point x="269" y="-10" type="curve" smooth="yes"/>
      <point x="393" y="-10"/>
      <point x="506" y="106"/>
      <point x="506" y="273" type="curve" smooth="yes"/>
      <point x="506" y="356"/>
      <point x="484" y="427"/>
      <point x="453" y="476" type="curve"/>
      <point x="471" y="497" type="line" smooth="yes"/>
      <point x="476" y="503"/>
      <point x="480" y="515"/>
      <point x="480" y="533" type="curve" smooth="yes"/>
      <point x="480" y="558"/>
      <point x="462" y="571"/>
      <point x="449" y="571" type="curve" smooth="yes"/>
      <point x="439" y="571"/>
      <point x="422" y="552"/>
      <point x="413" y="543" type="curve" smooth="yes"/>
      <point x="400" y="530" type="line"/>
      <point x="399" y="530"/>
      <point x="396" y="532"/>
      <point x="395" y="532" type="curve" smooth="yes"/>
      <point x="363" y="548"/>
      <point x="323" y="561"/>
      <point x="284" y="561" type="curve" smooth="yes"/>
      <point x="163" y="561"/>
      <point x="35" y="483"/>
      <point x="35" y="273" type="curve" smooth="yes"/>
      <point x="35" y="210"/>
      <point x="66" y="132"/>
      <point x="100" y="84" type="curve"/>
      <point x="75" y="42" type="line"/>
      <point x="73" y="36"/>
      <point x="69" y="27"/>
    </contour>
    <contour>
      <point x="147" y="156" type="curve"/>
      <point x="118" y="192"/>
      <point x="100" y="240"/>
      <point x="100" y="283" type="curve" smooth="yes"/>
      <point x="100" y="410"/>
      <point x="194" y="471"/>
      <point x="291" y="471" type="curve" smooth="yes"/>
      <point x="313" y="471"/>
      <point x="328" y="467"/>
      <point x="344" y="458" type="curve"/>
      <point x="277" y="364"/>
      <point x="192" y="225"/>
    </contour>
    <contour>
      <point x="201" y="100" type="curve"/>
      <point x="212" y="120"/>
      <point x="221" y="136"/>
      <point x="240" y="167" type="curve" smooth="yes"/>
      <point x="313" y="285" type="line" smooth="yes"/>
      <point x="338" y="326"/>
      <point x="375" y="381"/>
      <point x="401" y="413" type="curve"/>
      <point x="423" y="382"/>
      <point x="442" y="328"/>
      <point x="442" y="277" type="curve" smooth="yes"/>
      <point x="442" y="149"/>
      <point x="358" y="80"/>
      <point x="265" y="80" type="curve" smooth="yes"/>
      <point x="243" y="80"/>
      <point x="218" y="87"/>
    </contour>
  </outline>
</glyph>
<glyph name="Thorn" format="1">
  <advance width="445"/>
  <unicode hex="00DE"/>
  <outline>
    <contour>
      <point x="66" y="46" type="line" smooth="yes"/>
      <point x="65" y="3"/>
      <point x="75" y="-13"/>
      <point x="103" y="-13" type="curve" smooth="yes"/>
      <point x="114" y="-13"/>
      <point x="138" y="-9"/>
      <point x="138" y="21" type="curve" smooth="yes"/>
      <point x="138" y="47"/>
      <point x="133" y="81"/>
      <point x="133" y="104" type="curve"/>
      <point x="164" y="103" type="line"/>
      <point x="238" y="103"/>
      <point x="336" y="144"/>
      <point x="368" y="177" type="curve" smooth="yes"/>
      <point x="380" y="189"/>
      <point x="410" y="227"/>
      <point x="410" y="312" type="curve" smooth="yes"/>
      <point x="410" y="405"/>
      <point x="352" y="454"/>
      <point x="236" y="454" type="curve" smooth="yes"/>
      <point x="205" y="454"/>
      <point x="179" y="447"/>
      <point x="139" y="438" type="curve"/>
      <point x="140" y="558" type="line" smooth="yes"/>
      <point x="140" y="567"/>
      <point x="127" y="574"/>
      <point x="109" y="574" type="curve" smooth="yes"/>
      <point x="85" y="574"/>
      <point x="73" y="553"/>
      <point x="73" y="512" type="curve"/>
    </contour>
    <contour>
      <point x="137" y="206" type="curve"/>
      <point x="137" y="349" type="line"/>
      <point x="150" y="363"/>
      <point x="208" y="366"/>
      <point x="239" y="366" type="curve" smooth="yes"/>
      <point x="315" y="366"/>
      <point x="346" y="338"/>
      <point x="346" y="287" type="curve" smooth="yes"/>
      <point x="346" y="214"/>
      <point x="266" y="194"/>
      <point x="183" y="194" type="curve" smooth="yes"/>
      <point x="166" y="194"/>
      <point x="152" y="198"/>
    </contour>
  </outline>
</glyph>
<glyph name="germandbls" format="1">
  <advance width="475"/>
  <unicode hex="00DF"/>
  <outline>
    <contour>
      <point x="61" y="54" type="line" smooth="yes"/>
      <point x="60" y="10"/>
      <point x="67" y="-11"/>
      <point x="104" y="-11" type="curve" smooth="yes"/>
      <point x="128" y="-11"/>
      <point x="133" y="0"/>
      <point x="134" y="44" type="curve" smooth="yes"/>
      <point x="134" y="48"/>
      <point x="132" y="61"/>
      <point x="124" y="312" type="curve"/>
      <point x="124" y="380"/>
      <point x="134" y="518"/>
      <point x="244" y="518" type="curve" smooth="yes"/>
      <point x="276" y="518"/>
      <point x="305" y="508"/>
      <point x="305" y="489" type="curve" smooth="yes"/>
      <point x="305" y="398"/>
      <point x="161" y="440"/>
      <point x="161" y="313" type="curve" smooth="yes"/>
      <point x="161" y="174"/>
      <point x="392" y="229"/>
      <point x="392" y="158" type="curve" smooth="yes"/>
      <point x="392" y="105"/>
      <point x="330" y="80"/>
      <point x="296" y="80" type="curve" smooth="yes"/>
      <point x="256" y="80"/>
      <point x="228" y="85"/>
      <point x="228" y="97" type="curve" smooth="yes"/>
      <point x="228" y="136"/>
      <point x="209" y="144"/>
      <point x="196" y="144" type="curve" smooth="yes"/>
      <point x="177" y="144"/>
      <point x="164" y="114"/>
      <point x="164" y="85" type="curve" smooth="yes"/>
      <point x="164" y="34"/>
      <point x="211" y="-9"/>
      <point x="284" y="-9" type="curve" smooth="yes"/>
      <point x="365" y="-9"/>
      <point x="454" y="47"/>
      <point x="454" y="167" type="curve" smooth="yes"/>
      <point x="454" y="318"/>
      <point x="227" y="299"/>
      <point x="227" y="320" type="curve" smooth="yes"/>
      <point x="227" y="320"/>
      <point x="364" y="372"/>
      <point x="364" y="491" type="curve" smooth="yes"/>
      <point x="364" y="553"/>
      <point x="311" y="605"/>
      <point x="246" y="605" type="curve" smooth="yes"/>
      <point x="125" y="605"/>
      <point x="65" y="489"/>
      <point x="62" y="317" type="curve" smooth="yes"/>
      <point x="62" y="292"/>
      <point x="62" y="239"/>
      <point x="64" y="206" type="curve"/>
    </contour>
  </outline>
</glyph>
<glyph name="ae" format="1">
  <advance width="756"/>
  <unicode hex="00E6"/>
  <outline>
    <contour>
      <point x="373" y="695" type="move" name="top"/>
    </contour>
    <contour>
      <point x="36" y="133" type="curve" smooth="yes"/>
      <point x="36" y="54"/>
      <point x="91" y="-9"/>
      <point x="184" y="-9" type="curve" smooth="yes"/>
      <point x="290" y="-9"/>
      <point x="347" y="46"/>
      <point x="376" y="94" type="curve"/>
      <point x="409" y="40"/>
      <point x="463" y="5"/>
      <point x="522" y="5" type="curve" smooth="yes"/>
      <point x="559" y="5"/>
      <point x="707" y="9"/>
      <point x="707" y="76" type="curve" smooth="yes"/>
      <point x="707" y="107"/>
      <point x="696" y="119"/>
      <point x="673" y="119" type="curve" smooth="yes"/>
      <point x="648" y="119"/>
      <point x="600" y="88"/>
      <point x="555" y="88" type="curve" smooth="yes"/>
      <point x="510" y="88"/>
      <point x="429" y="97"/>
      <point x="406" y="169" type="curve"/>
      <point x="645" y="254"/>
      <point x="655" y="254"/>
      <point x="676" y="262" type="curve"/>
      <point x="695" y="266"/>
      <point x="704" y="278"/>
      <point x="704" y="310" type="curve" smooth="yes"/>
      <point x="704" y="404"/>
      <point x="621" y="457"/>
      <point x="552" y="457" type="curve" smooth="yes"/>
      <point x="465" y="457"/>
      <point x="405" y="416"/>
      <point x="373" y="347" type="curve"/>
      <point x="345" y="409"/>
      <point x="291" y="443"/>
      <point x="221" y="443" type="curve" smooth="yes"/>
      <point x="168" y="443"/>
      <point x="53" y="433"/>
      <point x="53" y="376" type="curve" smooth="yes"/>
      <point x="53" y="339"/>
      <point x="63" y="329"/>
      <point x="90" y="329" type="curve" smooth="yes"/>
      <point x="98" y="329"/>
      <point x="111" y="337"/>
      <point x="119" y="340" type="curve" smooth="yes"/>
      <point x="132" y="346" type="line" smooth="yes"/>
      <point x="147" y="353"/>
      <point x="172" y="359"/>
      <point x="203" y="359" type="curve" smooth="yes"/>
      <point x="255" y="359"/>
      <point x="334" y="352"/>
      <point x="338" y="247" type="curve"/>
      <point x="309" y="273"/>
      <point x="265" y="287"/>
      <point x="207" y="287" type="curve" smooth="yes"/>
      <point x="82" y="287"/>
      <point x="36" y="231"/>
    </contour>
    <contour>
      <point x="402" y="235" type="curve"/>
      <point x="423" y="323"/>
      <point x="482" y="359"/>
      <point x="541" y="373" type="curve" smooth="yes"/>
      <point x="550" y="375"/>
      <point x="559" y="376"/>
      <point x="567" y="376" type="curve" smooth="yes"/>
      <point x="606" y="376"/>
      <point x="630" y="352"/>
      <point x="640" y="333" type="curve"/>
      <point x="587" y="312"/>
      <point x="478" y="273"/>
    </contour>
    <contour>
      <point x="92" y="136" type="curve" smooth="yes"/>
      <point x="93" y="184"/>
      <point x="138" y="203"/>
      <point x="207" y="203" type="curve" smooth="yes"/>
      <point x="259" y="203"/>
      <point x="330" y="190"/>
      <point x="336" y="146" type="curve"/>
      <point x="316" y="115"/>
      <point x="265" y="74"/>
      <point x="196" y="74" type="curve" smooth="yes"/>
      <point x="127" y="74"/>
      <point x="92" y="106"/>
    </contour>
  </outline>
</glyph>
<glyph name="ccedilla" format="1">
  <advance width="402"/>
  <unicode hex="00E7"/>
  <outline>
    <contour>
      <point x="123" y="-114" type="curve"/>
      <point x="112" y="-114"/>
      <point x="99" y="-130"/>
      <point x="99" y="-157" type="curve" smooth="yes"/>
      <point x="99" y="-211"/>
      <point x="172" y="-227"/>
      <point x="194" y="-227" type="curve" smooth="yes"/>
      <point x="243" y="-227"/>
      <point x="281" y="-209"/>
      <point x="281" y="-129" type="curve" smooth="yes"/>
      <point x="281" y="-72"/>
      <point x="232" y="-47"/>
      <point x="226" y="-12" type="curve"/>
      <point x="227" y="-5" type="line"/>
      <point x="251" y="-4"/>
      <point x="273" y="-1"/>
      <point x="299" y="-1" type="curve" smooth="yes"/>
      <point x="326" y="-1" type="line" smooth="yes"/>
      <point x="340" y="-1"/>
      <point x="364" y="27"/>
      <point x="364" y="49" type="curve" smooth="yes"/>
      <point x="364" y="91"/>
      <point x="338" y="104"/>
      <point x="328" y="104" type="curve"/>
      <point x="302" y="97"/>
      <point x="290" y="83"/>
      <point x="259" y="83" type="curve" smooth="yes"/>
      <point x="146" y="83"/>
      <point x="95" y="104"/>
      <point x="95" y="194" type="curve" smooth="yes"/>
      <point x="95" y="271"/>
      <point x="149" y="347"/>
      <point x="227" y="347" type="curve" smooth="yes"/>
      <point x="312" y="347"/>
      <point x="310" y="269"/>
      <point x="341" y="269" type="curve" smooth="yes"/>
      <point x="357" y="269"/>
      <point x="362" y="303"/>
      <point x="362" y="319" type="curve" smooth="yes"/>
      <point x="362" y="389"/>
      <point x="307" y="439"/>
      <point x="243" y="439" type="curve" smooth="yes"/>
      <point x="108" y="439"/>
      <point x="34" y="316"/>
      <point x="34" y="167" type="curve" smooth="yes"/>
      <point x="34" y="48"/>
      <point x="96" y="5"/>
      <point x="176" y="-3" type="curve"/>
      <point x="175" y="-9"/>
      <point x="175" y="-15"/>
      <point x="175" y="-19" type="curve" smooth="yes"/>
      <point x="175" y="-83"/>
      <point x="223" y="-122"/>
      <point x="223" y="-133" type="curve" smooth="yes"/>
      <point x="223" y="-144"/>
      <point x="211" y="-145"/>
      <point x="198" y="-145" type="curve" smooth="yes"/>
      <point x="164" y="-145"/>
      <point x="144" y="-124"/>
    </contour>
  </outline>
</glyph>
<glyph name="eth" format="1">
  <advance width="462"/>
  <unicode hex="00F0"/>
  <outline>
    <contour>
      <point x="35" y="184" type="curve" smooth="yes"/>
      <point x="35" y="60"/>
      <point x="126" y="-13"/>
      <point x="220" y="-13" type="curve" smooth="yes"/>
      <point x="339" y="-13"/>
      <point x="417" y="64"/>
      <point x="417" y="244" type="curve" smooth="yes"/>
      <point x="417" y="322"/>
      <point x="379" y="442"/>
      <point x="313" y="533" type="curve"/>
      <point x="364" y="564"/>
      <point x="394" y="573"/>
      <point x="394" y="623" type="curve" smooth="yes"/>
      <point x="394" y="650"/>
      <point x="377" y="656"/>
      <point x="369" y="656" type="curve" smooth="yes"/>
      <point x="340" y="656"/>
      <point x="304" y="616"/>
      <point x="272" y="582" type="curve"/>
      <point x="226" y="629"/>
      <point x="170" y="660"/>
      <point x="107" y="660" type="curve" smooth="yes"/>
      <point x="71" y="660"/>
      <point x="60" y="644"/>
      <point x="60" y="615" type="curve" smooth="yes"/>
      <point x="60" y="594"/>
      <point x="64" y="578"/>
      <point x="109" y="578" type="curve" smooth="yes"/>
      <point x="144" y="578"/>
      <point x="180" y="558"/>
      <point x="213" y="529" type="curve"/>
      <point x="152" y="504" type="line" smooth="yes"/>
      <point x="143" y="500"/>
      <point x="139" y="479"/>
      <point x="139" y="458" type="curve" smooth="yes"/>
      <point x="139" y="442"/>
      <point x="146" y="420"/>
      <point x="165" y="420" type="curve" smooth="yes"/>
      <point x="188" y="420"/>
      <point x="198" y="434"/>
      <point x="255" y="485" type="curve"/>
      <point x="310" y="418"/>
      <point x="348" y="329"/>
      <point x="348" y="276" type="curve"/>
      <point x="323" y="345"/>
      <point x="256" y="390"/>
      <point x="203" y="390" type="curve" smooth="yes"/>
      <point x="104" y="390"/>
      <point x="35" y="307"/>
    </contour>
    <contour>
      <point x="91" y="185" type="curve" smooth="yes"/>
      <point x="91" y="230"/>
      <point x="118" y="301"/>
      <point x="201" y="301" type="curve" smooth="yes"/>
      <point x="255" y="301"/>
      <point x="333" y="240"/>
      <point x="346" y="158" type="curve"/>
      <point x="334" y="117"/>
      <point x="285" y="78"/>
      <point x="234" y="78" type="curve" smooth="yes"/>
      <point x="173" y="78"/>
      <point x="91" y="106"/>
    </contour>
  </outline>
</glyph>
<glyph name="Aogonek" format="1">
  <advance width="546"/>
  <unicode hex="0104"/>
  <outline>
    <contour>
      <point x="40" y="31" type="curve" smooth="yes"/>
      <point x="40" y="2"/>
      <point x="52" y="-6"/>
      <point x="73" y="-6" type="curve" smooth="yes"/>
      <point x="79" y="-6"/>
      <point x="108" y="4"/>
      <point x="112" y="56" type="curve"/>
      <point x="143" y="145" type="line" smooth="yes"/>
      <point x="156" y="182"/>
      <point x="158" y="186"/>
      <point x="177" y="186" type="curve" smooth="yes"/>
      <point x="345" y="186" type="line" smooth="yes"/>
      <point x="379" y="186"/>
      <point x="381" y="169"/>
      <point x="403" y="94" type="curve"/>
      <point x="406" y="79"/>
      <point x="411" y="59"/>
      <point x="419" y="41" type="curve"/>
      <point x="404" y="32" type="line"/>
      <point x="370" y="5"/>
      <point x="309" y="-65"/>
      <point x="309" y="-150" type="curve" smooth="yes"/>
      <point x="309" y="-209"/>
      <point x="355" y="-251"/>
      <point x="415" y="-251" type="curve" smooth="yes"/>
      <point x="450" y="-251"/>
      <point x="508" y="-244"/>
      <point x="508" y="-179" type="curve" smooth="yes"/>
      <point x="508" y="-161"/>
      <point x="503" y="-141"/>
      <point x="490" y="-141" type="curve" smooth="yes"/>
      <point x="460" y="-141"/>
      <point x="461" y="-171"/>
      <point x="422" y="-171" type="curve" smooth="yes"/>
      <point x="405" y="-171"/>
      <point x="374" y="-155"/>
      <point x="374" y="-131" type="curve" smooth="yes"/>
      <point x="374" y="-82"/>
      <point x="443" y="-47"/>
      <point x="478" y="-7" type="curve"/>
      <point x="491" y="-3"/>
      <point x="503" y="7"/>
      <point x="503" y="34" type="curve" smooth="yes"/>
      <point x="503" y="67"/>
      <point x="496" y="68"/>
      <point x="477" y="92" type="curve" smooth="yes"/>
      <point x="435" y="144"/>
      <point x="382" y="565"/>
      <point x="271" y="565" type="curve" smooth="yes"/>
      <point x="245" y="565"/>
      <point x="222" y="512"/>
      <point x="207" y="480" type="curve"/>
      <point x="120" y="276" type="line"/>
      <point x="99" y="263"/>
      <point x="94" y="246"/>
      <point x="94" y="219" type="curve" smooth="yes"/>
      <point x="94" y="216"/>
      <point x="94" y="210"/>
      <point x="95" y="206" type="curve"/>
      <point x="78" y="158"/>
      <point x="66" y="121"/>
      <point x="56" y="92" type="curve"/>
      <point x="47" y="75"/>
      <point x="40" y="53"/>
    </contour>
    <contour>
      <point x="191" y="279" type="curve"/>
      <point x="208" y="330"/>
      <point x="254" y="449"/>
      <point x="267" y="457" type="curve"/>
      <point x="304" y="378" type="line" smooth="yes"/>
      <point x="321" y="342"/>
      <point x="336" y="304"/>
      <point x="345" y="278" type="curve"/>
      <point x="325" y="277"/>
      <point x="308" y="277"/>
      <point x="292" y="277" type="curve" smooth="yes"/>
      <point x="257" y="277"/>
      <point x="229" y="278"/>
    </contour>
  </outline>
</glyph>
<glyph name="aogonek" format="1">
  <advance width="443"/>
  <unicode hex="0105"/>
  <outline>
    <contour>
      <point x="36" y="133" type="curve" smooth="yes"/>
      <point x="36" y="54"/>
      <point x="91" y="-9"/>
      <point x="184" y="-9" type="curve" smooth="yes"/>
      <point x="210" y="-9"/>
      <point x="232" y="-5"/>
      <point x="253" y="0" type="curve"/>
      <point x="234" y="-28"/>
      <point x="221" y="-63"/>
      <point x="221" y="-107" type="curve" smooth="yes"/>
      <point x="221" y="-165"/>
      <point x="267" y="-207"/>
      <point x="326" y="-207" type="curve" smooth="yes"/>
      <point x="363" y="-207"/>
      <point x="409" y="-199"/>
      <point x="409" y="-135" type="curve" smooth="yes"/>
      <point x="409" y="-117"/>
      <point x="403" y="-98"/>
      <point x="391" y="-98" type="curve" smooth="yes"/>
      <point x="364" y="-98"/>
      <point x="361" y="-127"/>
      <point x="332" y="-127" type="curve" smooth="yes"/>
      <point x="315" y="-127"/>
      <point x="294" y="-112"/>
      <point x="286" y="-88" type="curve"/>
      <point x="299" y="-29"/>
      <point x="392" y="-5"/>
      <point x="392" y="66" type="curve" smooth="yes"/>
      <point x="392" y="71"/>
      <point x="391" y="76"/>
      <point x="390" y="80" type="curve"/>
      <point x="393" y="240" type="line"/>
      <point x="393" y="371"/>
      <point x="324" y="443"/>
      <point x="221" y="443" type="curve" smooth="yes"/>
      <point x="168" y="443"/>
      <point x="53" y="433"/>
      <point x="53" y="376" type="curve" smooth="yes"/>
      <point x="53" y="339"/>
      <point x="63" y="329"/>
      <point x="90" y="329" type="curve" smooth="yes"/>
      <point x="98" y="329"/>
      <point x="111" y="337"/>
      <point x="119" y="340" type="curve" smooth="yes"/>
      <point x="132" y="346" type="line" smooth="yes"/>
      <point x="147" y="353"/>
      <point x="172" y="359"/>
      <point x="203" y="359" type="curve" smooth="yes"/>
      <point x="255" y="359"/>
      <point x="334" y="352"/>
      <point x="338" y="247" type="curve"/>
      <point x="309" y="273"/>
      <point x="265" y="287"/>
      <point x="207" y="287" type="curve" smooth="yes"/>
      <point x="82" y="287"/>
      <point x="36" y="231"/>
    </contour>
    <contour>
      <point x="92" y="136" type="curve" smooth="yes"/>
      <point x="93" y="184"/>
      <point x="138" y="203"/>
      <point x="207" y="203" type="curve" smooth="yes"/>
      <point x="259" y="203"/>
      <point x="330" y="190"/>
      <point x="336" y="146" type="curve"/>
      <point x="316" y="115"/>
      <point x="265" y="74"/>
      <point x="196" y="74" type="curve" smooth="yes"/>
      <point x="127" y="74"/>
      <point x="92" y="106"/>
    </contour>
    <contour>
      <point x="378" y="97" type="curve"/>
      <point x="380" y="99" type="line"/>
      <point x="382" y="93" type="line" smooth="yes"/>
      <point x="381" y="94"/>
      <point x="379" y="95"/>
    </contour>
  </outline>
</glyph>
<glyph name="dcroat" format="1">
  <advance width="1021"/>
  <unicode hex="0111"/>
  <outline>
    <contour>
      <point x="836" y="1126" type="curve"/>
      <point x="999" y="1097"/>
      <point x="1018" y="1097"/>
      <point x="1021" y="1097" type="curve" smooth="yes"/>
      <point x="1040" y="1097"/>
      <point x="1109" y="1149"/>
      <point x="1109" y="1216" type="curve" smooth="yes"/>
      <point x="1109" y="1341"/>
      <point x="1003" y="1315"/>
      <point x="932" y="1315" type="curve" smooth="yes"/>
      <point x="657" y="1315"/>
      <point x="598" y="1309"/>
      <point x="598" y="1209" type="curve" smooth="yes"/>
      <point x="598" y="1123"/>
      <point x="633" y="1109"/>
      <point x="674" y="1109" type="curve" smooth="yes"/>
      <point x="729" y="1109"/>
      <point x="781" y="1126"/>
    </contour>
    <component base="d"/>
  </outline>
</glyph>
<glyph name="Eogonek" format="1">
  <advance width="454"/>
  <unicode hex="0118"/>
  <outline>
    <contour>
      <point x="72" y="53" type="line" smooth="yes"/>
      <point x="71" y="18"/>
      <point x="88" y="-6"/>
      <point x="111" y="-6" type="curve" smooth="yes"/>
      <point x="144" y="-6"/>
      <point x="173" y="-1"/>
      <point x="201" y="-1" type="curve" smooth="yes"/>
      <point x="227" y="-1"/>
      <point x="248" y="-1"/>
      <point x="265" y="-2" type="curve"/>
      <point x="237" y="-42"/>
      <point x="216" y="-91"/>
      <point x="216" y="-135" type="curve" smooth="yes"/>
      <point x="216" y="-194"/>
      <point x="262" y="-236"/>
      <point x="322" y="-236" type="curve" smooth="yes"/>
      <point x="357" y="-236"/>
      <point x="415" y="-229"/>
      <point x="415" y="-164" type="curve" smooth="yes"/>
      <point x="415" y="-146"/>
      <point x="400" y="-126"/>
      <point x="387" y="-126" type="curve" smooth="yes"/>
      <point x="357" y="-126"/>
      <point x="358" y="-156"/>
      <point x="329" y="-156" type="curve" smooth="yes"/>
      <point x="312" y="-156"/>
      <point x="290" y="-140"/>
      <point x="281" y="-116" type="curve"/>
      <point x="289" y="-81"/>
      <point x="328" y="-58"/>
      <point x="354" y="-32" type="curve" smooth="yes"/>
      <point x="379" y="-7"/>
      <point x="411" y="-6"/>
      <point x="415" y="19" type="curve"/>
      <point x="417" y="24"/>
      <point x="418" y="30"/>
      <point x="418" y="38" type="curve" smooth="yes"/>
      <point x="418" y="64"/>
      <point x="413" y="92"/>
      <point x="387" y="92" type="curve" smooth="yes"/>
      <point x="299" y="92"/>
      <point x="217" y="99"/>
      <point x="137" y="99" type="curve"/>
      <point x="134" y="247" type="line"/>
      <point x="137" y="248"/>
      <point x="141" y="248"/>
      <point x="150" y="248" type="curve" smooth="yes"/>
      <point x="168" y="248"/>
      <point x="208" y="247"/>
      <point x="309" y="247" type="curve" smooth="yes"/>
      <point x="331" y="247"/>
      <point x="339" y="281"/>
      <point x="339" y="292" type="curve" smooth="yes"/>
      <point x="339" y="325"/>
      <point x="324" y="338"/>
      <point x="305" y="338" type="curve" smooth="yes"/>
      <point x="133" y="336" type="line"/>
      <point x="133" y="368"/>
      <point x="135" y="440"/>
      <point x="135" y="470" type="curve"/>
      <point x="164" y="469"/>
      <point x="232" y="468"/>
      <point x="411" y="467" type="curve" smooth="yes"/>
      <point x="428" y="467"/>
      <point x="442" y="495"/>
      <point x="442" y="517" type="curve" smooth="yes"/>
      <point x="442" y="556"/>
      <point x="429" y="558"/>
      <point x="389" y="558" type="curve" smooth="yes"/>
      <point x="331" y="558"/>
      <point x="226" y="556"/>
      <point x="168" y="556" type="curve" smooth="yes"/>
      <point x="147" y="556"/>
      <point x="130" y="564"/>
      <point x="110" y="564" type="curve" smooth="yes"/>
      <point x="74" y="564"/>
      <point x="74" y="516"/>
      <point x="74" y="482" type="curve" smooth="yes"/>
      <point x="74" y="411"/>
      <point x="75" y="344"/>
      <point x="76" y="317" type="curve"/>
      <point x="72" y="307"/>
      <point x="70" y="296"/>
      <point x="70" y="291" type="curve" smooth="yes"/>
      <point x="70" y="278"/>
      <point x="75" y="267"/>
      <point x="75" y="257" type="curve" smooth="yes"/>
    </contour>
  </outline>
</glyph>
<glyph name="eogonek" format="1">
  <advance width="958"/>
  <unicode hex="0119"/>
  <outline>
    <contour>
      <point x="715" y="-293" type="curve" smooth="yes"/>
      <point x="678" y="-293"/>
      <point x="633" y="-260"/>
      <point x="615" y="-208" type="curve"/>
      <point x="615" y="-8"/>
      <point x="844" y="-14"/>
      <point x="844" y="94" type="curve" smooth="yes"/>
      <point x="844" y="149"/>
      <point x="804" y="173"/>
      <point x="790" y="173" type="curve"/>
      <point x="745" y="144"/>
      <point x="736" y="105"/>
      <point x="674" y="60" type="curve" smooth="yes"/>
      <point x="590" y="4"/>
      <point x="472" y="-59"/>
      <point x="472" y="-248" type="curve" smooth="yes"/>
      <point x="472" y="-377"/>
      <point x="574" y="-466"/>
      <point x="702" y="-466" type="curve" smooth="yes"/>
      <point x="781" y="-466"/>
      <point x="884" y="-450"/>
      <point x="884" y="-309" type="curve" smooth="yes"/>
      <point x="884" y="-270"/>
      <point x="868" y="-230"/>
      <point x="843" y="-230" type="curve" smooth="yes"/>
      <point x="783" y="-230"/>
      <point x="777" y="-293"/>
    </contour>
    <component base="e"/>
  </outline>
</glyph>
<glyph name="Hbar" format="1">
  <advance width="560"/>
  <unicode hex="0126"/>
  <outline>
    <contour>
      <point x="101" y="67" type="curve" smooth="yes"/>
      <point x="101" y="28"/>
      <point x="105" y="-5"/>
      <point x="132" y="-5" type="curve" smooth="yes"/>
      <point x="145" y="-5"/>
      <point x="169" y="12"/>
      <point x="170" y="32" type="curve" smooth="yes"/>
      <point x="170" y="42"/>
      <point x="169" y="21"/>
      <point x="167" y="176" type="curve"/>
      <point x="198" y="179"/>
      <point x="227" y="180"/>
      <point x="309" y="180" type="curve" smooth="yes"/>
      <point x="403" y="180" type="line"/>
      <point x="400" y="63" type="line"/>
      <point x="400" y="9"/>
      <point x="410" y="-6"/>
      <point x="435" y="-6" type="curve" smooth="yes"/>
      <point x="456" y="-6"/>
      <point x="469" y="17"/>
      <point x="469" y="43" type="curve" smooth="yes"/>
      <point x="469" y="62"/>
      <point x="469" y="140"/>
      <point x="465" y="250" type="curve"/>
      <point x="472" y="280" type="line"/>
      <point x="471" y="294"/>
      <point x="466" y="308"/>
      <point x="463" y="316" type="curve"/>
      <point x="463" y="369" type="line"/>
      <point x="505" y="369" type="line" smooth="yes"/>
      <point x="517" y="369"/>
      <point x="530" y="374"/>
      <point x="530" y="412" type="curve" smooth="yes"/>
      <point x="530" y="445"/>
      <point x="517" y="458"/>
      <point x="501" y="458" type="curve" smooth="yes"/>
      <point x="464" y="458" type="line"/>
      <point x="464" y="471" type="line" smooth="yes"/>
      <point x="464" y="529"/>
      <point x="458" y="561"/>
      <point x="429" y="561" type="curve" smooth="yes"/>
      <point x="404" y="561"/>
      <point x="400" y="530"/>
      <point x="399" y="493" type="curve" smooth="yes"/>
      <point x="399" y="458" type="line"/>
      <point x="328" y="457"/>
      <point x="240" y="456"/>
      <point x="168" y="456" type="curve"/>
      <point x="168" y="501" type="line" smooth="yes"/>
      <point x="168" y="526"/>
      <point x="150" y="558"/>
      <point x="136" y="558" type="curve" smooth="yes"/>
      <point x="112" y="558"/>
      <point x="105" y="519"/>
      <point x="102" y="455" type="curve"/>
      <point x="79" y="454"/>
      <point x="60" y="454"/>
      <point x="51" y="454" type="curve" smooth="yes"/>
      <point x="38" y="453"/>
      <point x="22" y="439"/>
      <point x="22" y="417" type="curve" smooth="yes"/>
      <point x="22" y="398"/>
      <point x="32" y="369"/>
      <point x="55" y="369" type="curve"/>
      <point x="101" y="369" type="line"/>
      <point x="102" y="325"/>
      <point x="103" y="275"/>
      <point x="103" y="222" type="curve" smooth="yes"/>
      <point x="103" y="181"/>
      <point x="101" y="130"/>
    </contour>
    <contour>
      <point x="167" y="270" type="line"/>
      <point x="167" y="369" type="line"/>
      <point x="399" y="369" type="line"/>
      <point x="401" y="270" type="line"/>
    </contour>
  </outline>
</glyph>
<glyph name="Iogonek" format="1">
  <advance width="676"/>
  <unicode hex="012E"/>
  <outline>
    <contour>
      <point x="436" y="-293" type="curve" smooth="yes"/>
      <point x="399" y="-293"/>
      <point x="354" y="-260"/>
      <point x="337" y="-208" type="curve"/>
      <point x="337" y="-8"/>
      <point x="565" y="-35"/>
      <point x="565" y="74" type="curve" smooth="yes"/>
      <point x="565" y="129"/>
      <point x="525" y="153"/>
      <point x="511" y="153" type="curve"/>
      <point x="466" y="124"/>
      <point x="458" y="105"/>
      <point x="394" y="60" type="curve" smooth="yes"/>
      <point x="311" y="4"/>
      <point x="193" y="-59"/>
      <point x="193" y="-248" type="curve" smooth="yes"/>
      <point x="193" y="-377"/>
      <point x="295" y="-466"/>
      <point x="423" y="-466" type="curve" smooth="yes"/>
      <point x="502" y="-466"/>
      <point x="605" y="-450"/>
      <point x="605" y="-309" type="curve" smooth="yes"/>
      <point x="605" y="-270"/>
      <point x="590" y="-230"/>
      <point x="563" y="-230" type="curve" smooth="yes"/>
      <point x="505" y="-230"/>
      <point x="499" y="-293"/>
    </contour>
    <component base="I"/>
  </outline>
</glyph>
<glyph name="IJ" format="1">
  <advance width="447"/>
  <unicode hex="0132"/>
  <outline>
    <contour>
      <point x="106" y="172" type="curve" smooth="yes"/>
      <point x="122" y="172"/>
      <point x="137" y="188"/>
      <point x="137" y="218" type="curve" smooth="yes"/>
      <point x="137" y="269"/>
      <point x="123" y="317"/>
      <point x="123" y="366" type="curve"/>
      <point x="124" y="391"/>
      <point x="127" y="419"/>
      <point x="135" y="514" type="curve"/>
      <point x="135" y="536"/>
      <point x="132" y="556"/>
      <point x="110" y="558" type="curve" smooth="yes"/>
      <point x="64" y="562"/>
      <point x="56" y="529"/>
      <point x="54" y="290" type="curve" smooth="yes"/>
      <point x="54" y="236"/>
      <point x="60" y="172"/>
    </contour>
    <contour>
      <point x="72" y="65" type="curve" smooth="yes"/>
      <point x="72" y="4"/>
      <point x="153" y="-8"/>
      <point x="189" y="-8" type="curve" smooth="yes"/>
      <point x="267" y="-8"/>
      <point x="331" y="27"/>
      <point x="379" y="114" type="curve" smooth="yes"/>
      <point x="393" y="140"/>
      <point x="397" y="233"/>
      <point x="398" y="308" type="curve" smooth="yes"/>
      <point x="400" y="430" type="line" smooth="yes"/>
      <point x="401" y="503"/>
      <point x="395" y="555"/>
      <point x="372" y="555" type="curve" smooth="yes"/>
      <point x="341" y="555"/>
      <point x="328" y="519"/>
      <point x="328" y="488" type="curve" smooth="yes"/>
      <point x="328" y="384"/>
      <point x="326" y="277"/>
      <point x="326" y="179" type="curve" smooth="yes"/>
      <point x="326" y="129"/>
      <point x="259" y="86"/>
      <point x="201" y="86" type="curve" smooth="yes"/>
      <point x="178" y="86"/>
      <point x="142" y="89"/>
      <point x="136" y="100" type="curve" smooth="yes"/>
      <point x="132" y="108"/>
      <point x="117" y="123"/>
      <point x="111" y="123" type="curve" smooth="yes"/>
      <point x="87" y="123"/>
      <point x="72" y="89"/>
    </contour>
  </outline>
</glyph>
<glyph name="kgreenlandic" format="1">
  <advance width="387"/>
  <unicode hex="0138"/>
  <outline>
    <contour>
      <point x="48" y="37" type="curve" smooth="yes"/>
      <point x="48" y="22"/>
      <point x="56" y="-14"/>
      <point x="83" y="-14" type="curve" smooth="yes"/>
      <point x="108" y="-14"/>
      <point x="119" y="15"/>
      <point x="119" y="38" type="curve" smooth="yes"/>
      <point x="119" y="100" type="line" smooth="yes"/>
      <point x="119" y="108"/>
      <point x="118" y="130"/>
      <point x="118" y="138" type="curve"/>
      <point x="131" y="156"/>
      <point x="151" y="174"/>
      <point x="196" y="231" type="curve"/>
      <point x="277" y="2"/>
      <point x="302" y="-11"/>
      <point x="315" y="-11" type="curve" smooth="yes"/>
      <point x="337" y="-11"/>
      <point x="346" y="6"/>
      <point x="346" y="39" type="curve" smooth="yes"/>
      <point x="346" y="114"/>
      <point x="241" y="244"/>
      <point x="241" y="279" type="curve" smooth="yes"/>
      <point x="241" y="283"/>
      <point x="242" y="285"/>
      <point x="245" y="287" type="curve" smooth="yes"/>
      <point x="328" y="368" type="line"/>
      <point x="341" y="375"/>
      <point x="355" y="392"/>
      <point x="355" y="423" type="curve" smooth="yes"/>
      <point x="355" y="450"/>
      <point x="341" y="454"/>
      <point x="325" y="454" type="curve" smooth="yes"/>
      <point x="308" y="454"/>
      <point x="295" y="443"/>
      <point x="288" y="434" type="curve" smooth="yes"/>
      <point x="201" y="323"/>
      <point x="175" y="298"/>
      <point x="124" y="240" type="curve"/>
      <point x="123" y="245"/>
      <point x="123" y="267"/>
      <point x="123" y="272" type="curve" smooth="yes"/>
      <point x="123" y="320"/>
      <point x="131" y="364"/>
      <point x="131" y="408" type="curve" smooth="yes"/>
      <point x="131" y="441"/>
      <point x="110" y="454"/>
      <point x="99" y="454" type="curve" smooth="yes"/>
      <point x="81" y="454"/>
      <point x="64" y="439"/>
      <point x="63" y="409" type="curve" smooth="yes"/>
      <point x="55" y="165" type="line"/>
      <point x="49" y="83"/>
      <point x="48" y="58"/>
    </contour>
  </outline>
</glyph>
<glyph name="Lslash" format="1">
  <advance width="422"/>
  <unicode hex="0141"/>
  <outline>
    <contour>
      <point x="67" y="30" type="curve" smooth="yes"/>
      <point x="67" y="2"/>
      <point x="74" y="0"/>
      <point x="83" y="0" type="curve"/>
      <point x="132" y="-5"/>
      <point x="140" y="-5"/>
      <point x="146" y="-5" type="curve" smooth="yes"/>
      <point x="171" y="-5"/>
      <point x="193" y="0"/>
      <point x="214" y="0" type="curve" smooth="yes"/>
      <point x="267" y="0"/>
      <point x="313" y="-5"/>
      <point x="356" y="-5" type="curve" smooth="yes"/>
      <point x="372" y="-5"/>
      <point x="393" y="24"/>
      <point x="393" y="47" type="curve" smooth="yes"/>
      <point x="393" y="74"/>
      <point x="379" y="98"/>
      <point x="362" y="99" type="curve"/>
      <point x="320" y="93"/>
      <point x="314" y="92"/>
      <point x="308" y="92" type="curve" smooth="yes"/>
      <point x="247" y="92"/>
      <point x="196" y="95"/>
      <point x="138" y="98" type="curve"/>
      <point x="134" y="268" type="line"/>
      <point x="269" y="356" type="line" smooth="yes"/>
      <point x="282" y="365"/>
      <point x="308" y="384"/>
      <point x="308" y="409" type="curve" smooth="yes"/>
      <point x="308" y="438"/>
      <point x="289" y="447"/>
      <point x="268" y="447" type="curve" smooth="yes"/>
      <point x="261" y="447"/>
      <point x="249" y="442"/>
      <point x="244" y="438" type="curve" smooth="yes"/>
      <point x="211" y="416"/>
      <point x="171" y="388"/>
      <point x="132" y="361" type="curve"/>
      <point x="132" y="437" type="line"/>
      <point x="135" y="470"/>
      <point x="136" y="480"/>
      <point x="136" y="506" type="curve" smooth="yes"/>
      <point x="136" y="534"/>
      <point x="117" y="559"/>
      <point x="100" y="559" type="curve" smooth="yes"/>
      <point x="72" y="559"/>
      <point x="69" y="525"/>
      <point x="69" y="434" type="curve" smooth="yes"/>
      <point x="69" y="397"/>
      <point x="69" y="360"/>
      <point x="71" y="322" type="curve"/>
      <point x="51" y="311"/>
      <point x="33" y="301"/>
      <point x="17" y="294" type="curve" smooth="yes"/>
      <point x="0" y="287"/>
      <point x="-16" y="272"/>
      <point x="-16" y="255" type="curve" smooth="yes"/>
      <point x="-16" y="229"/>
      <point x="-8" y="208"/>
      <point x="15" y="208" type="curve" smooth="yes"/>
      <point x="27" y="208"/>
      <point x="42" y="213"/>
      <point x="75" y="232" type="curve"/>
      <point x="76" y="205"/>
      <point x="76" y="178"/>
      <point x="76" y="151" type="curve"/>
      <point x="70" y="92"/>
      <point x="67" y="66"/>
    </contour>
  </outline>
</glyph>
<glyph name="oe" format="1">
  <advance width="764"/>
  <unicode hex="0153"/>
  <outline>
    <contour>
      <point x="38" y="212" type="curve" smooth="yes"/>
      <point x="38" y="111"/>
      <point x="123" y="-10"/>
      <point x="224" y="-10" type="curve" smooth="yes"/>
      <point x="270" y="-10"/>
      <point x="343" y="26"/>
      <point x="378" y="83" type="curve"/>
      <point x="416" y="30"/>
      <point x="475" y="-9"/>
      <point x="529" y="-9" type="curve" smooth="yes"/>
      <point x="567" y="-9"/>
      <point x="714" y="-6"/>
      <point x="714" y="62" type="curve" smooth="yes"/>
      <point x="714" y="92"/>
      <point x="704" y="106"/>
      <point x="682" y="106" type="curve" smooth="yes"/>
      <point x="651" y="106"/>
      <point x="608" y="74"/>
      <point x="563" y="74" type="curve" smooth="yes"/>
      <point x="517" y="74"/>
      <point x="434" y="82"/>
      <point x="412" y="151" type="curve"/>
      <point x="459" y="170"/>
      <point x="517" y="189"/>
      <point x="656" y="237" type="curve"/>
      <point x="684" y="243"/>
      <point x="712" y="249"/>
      <point x="712" y="295" type="curve" smooth="yes"/>
      <point x="712" y="391"/>
      <point x="629" y="442"/>
      <point x="561" y="442" type="curve" smooth="yes"/>
      <point x="479" y="442"/>
      <point x="416" y="401"/>
      <point x="380" y="337" type="curve"/>
      <point x="347" y="396"/>
      <point x="296" y="443"/>
      <point x="236" y="443" type="curve" smooth="yes"/>
      <point x="138" y="443"/>
      <point x="38" y="380"/>
    </contour>
    <contour>
      <point x="410" y="236" type="curve"/>
      <point x="428" y="328"/>
      <point x="511" y="356"/>
      <point x="547" y="356" type="curve" smooth="yes"/>
      <point x="596" y="356"/>
      <point x="635" y="342"/>
      <point x="646" y="317" type="curve"/>
      <point x="594" y="296"/>
      <point x="482" y="257"/>
    </contour>
    <contour>
      <point x="218" y="75" type="curve" smooth="yes"/>
      <point x="157" y="75"/>
      <point x="97" y="149"/>
      <point x="97" y="222" type="curve" smooth="yes"/>
      <point x="97" y="311"/>
      <point x="176" y="356"/>
      <point x="245" y="356" type="curve" smooth="yes"/>
      <point x="306" y="356"/>
      <point x="354" y="300"/>
      <point x="354" y="216" type="curve" smooth="yes"/>
      <point x="354" y="126"/>
      <point x="285" y="75"/>
    </contour>
  </outline>
</glyph>
<glyph name="Scedilla" format="1">
  <advance width="411"/>
  <unicode hex="015E"/>
  <outline>
    <contour>
      <point x="57" y="93" type="curve" smooth="yes"/>
      <point x="57" y="18"/>
      <point x="114" y="-1"/>
      <point x="156" y="-5" type="curve"/>
      <point x="146" y="-20"/>
      <point x="145" y="-45"/>
      <point x="145" y="-57" type="curve" smooth="yes"/>
      <point x="145" y="-121"/>
      <point x="193" y="-160"/>
      <point x="193" y="-171" type="curve" smooth="yes"/>
      <point x="193" y="-182"/>
      <point x="181" y="-183"/>
      <point x="168" y="-183" type="curve" smooth="yes"/>
      <point x="134" y="-183"/>
      <point x="114" y="-162"/>
      <point x="93" y="-152" type="curve"/>
      <point x="82" y="-152"/>
      <point x="69" y="-168"/>
      <point x="69" y="-195" type="curve" smooth="yes"/>
      <point x="69" y="-249"/>
      <point x="142" y="-265"/>
      <point x="164" y="-265" type="curve" smooth="yes"/>
      <point x="213" y="-265"/>
      <point x="251" y="-247"/>
      <point x="251" y="-167" type="curve" smooth="yes"/>
      <point x="251" y="-110"/>
      <point x="202" y="-85"/>
      <point x="196" y="-50" type="curve"/>
      <point x="200" y="-32" type="line" smooth="yes"/>
      <point x="200" y="-30"/>
      <point x="201" y="-28"/>
      <point x="201" y="-25" type="curve" smooth="yes"/>
      <point x="201" y="-21"/>
      <point x="200" y="-12"/>
      <point x="196" y="-4" type="curve"/>
      <point x="258" y="3"/>
      <point x="376" y="49"/>
      <point x="376" y="158" type="curve" smooth="yes"/>
      <point x="376" y="337"/>
      <point x="99" y="272"/>
      <point x="99" y="361" type="curve" smooth="yes"/>
      <point x="99" y="418"/>
      <point x="180" y="471"/>
      <point x="225" y="471" type="curve" smooth="yes"/>
      <point x="265" y="471"/>
      <point x="291" y="458"/>
      <point x="291" y="416" type="curve" smooth="yes"/>
      <point x="291" y="393"/>
      <point x="292" y="373"/>
      <point x="310" y="373" type="curve" smooth="yes"/>
      <point x="339" y="373"/>
      <point x="342" y="421"/>
      <point x="342" y="455" type="curve" smooth="yes"/>
      <point x="342" y="509"/>
      <point x="300" y="559"/>
      <point x="237" y="559" type="curve" smooth="yes"/>
      <point x="145" y="559"/>
      <point x="37" y="484"/>
      <point x="37" y="352" type="curve" smooth="yes"/>
      <point x="37" y="182"/>
      <point x="313" y="228"/>
      <point x="313" y="153" type="curve" smooth="yes"/>
      <point x="313" y="123"/>
      <point x="243" y="83"/>
      <point x="188" y="83" type="curve" smooth="yes"/>
      <point x="142" y="83"/>
      <point x="127" y="84"/>
      <point x="99" y="139" type="curve" smooth="yes"/>
      <point x="94" y="149"/>
      <point x="89" y="155"/>
      <point x="88" y="155" type="curve" smooth="yes"/>
      <point x="71" y="155"/>
      <point x="57" y="110"/>
    </contour>
  </outline>
</glyph>
